<?xml version="1.0" encoding="utf-8"?>
<!-- Generator: Adobe Illustrator 26.3.1, SVG Export Plug-In . SVG Version: 6.00 Build 0)  -->
<svg version="1.1" id="katman_1" xmlns="http://www.w3.org/2000/svg" xmlns:xlink="http://www.w3.org/1999/xlink" x="0px" y="0px"
	 viewBox="0 0 850.4 850.4" style="enable-background:new 0 0 850.4 850.4;" xml:space="preserve">
<g>
	<path d="M550.1,166.8l-21.6,117.8l38.7,24.3l70.1-42.2l-39.5,68.3c6,12,12.9,23.4,20.7,34.2l116-21.6L640,416.7
		c2.4,14.4,4.8,27.9,7.2,40.5l81.8,22.5l-81.8,24.3l-9.9,44l91.7,63.8l-110.6-21.6l-18,27l39.5,70.1l-70.1-38.7L536.7,671
		l20.7,114.2l-69.2-94.4c-11.4,3-23.7,5.7-36.9,8.1l-18.9,80.9C418.6,725.3,409,698,403.6,698l-34.2-6.3l-63.8,93.5l18-112.4
		l-31.5-22.5l-76.4,41.3l40.4-73.7c-6-11.4-12.9-21.6-20.7-30.6l-116,20.7l96.2-69.2c-4.8-13.8-7.8-27-9-39.6l-80-19.8l82.7-25.2
		l3.6-29.7L116,358.2l116,18.9c8.4-15.6,16.5-28.8,24.3-39.6L214,264.7l74.6,42.2h0.9l32.4-22.5l-22.5-116L374,276.4V298l-31.5,12.6
		c-48,28.2-78.8,65.9-92.6,113.3c-4.2,9.6-7.5,24.6-9.9,44.9c0,92.3,44.3,155.2,133,188.8c14.4,4.2,30,6.3,46.7,6.3h20.7
		c64.1,0,116.5-35.1,157.3-105.2c10.2-25.2,15.3-50.9,15.3-77.3c0-80.9-38.7-139.6-116-176.2l-20.7-7.2v-21.6L550.1,166.8z"/>
	<path d="M494,411.7c18.3,18.3,27.4,40.6,27.4,67c0,25.8-9.1,47.9-27.4,66.5c-18.3,18.6-40.3,27.9-66.1,27.9
		c-26.4,0-48.7-9.3-67-27.9c-18.3-18.6-27.4-40.7-27.4-66.5c0-26.4,9.1-48.7,27.4-67c18.3-18.3,40.6-27.4,67-27.4
		C453.7,384.3,475.7,393.4,494,411.7z"/>
	<polygon points="375.8,137.1 377.6,229.7 338.9,154.2 	"/>
	<polygon points="425.2,65.2 451.3,294.4 398.2,294.4 	"/>
	<polygon points="511.5,154.2 472.8,229.7 472.8,137.1 	"/>
</g>
</svg>
