<?xml version="1.0" encoding="utf-8"?>
<!-- Generator: Adobe Illustrator 26.3.1, SVG Export Plug-In . SVG Version: 6.00 Build 0)  -->
<svg version="1.1" id="katman_1" xmlns="http://www.w3.org/2000/svg" xmlns:xlink="http://www.w3.org/1999/xlink" x="0px" y="0px"
	 viewBox="0 0 850.4 850.4" style="enable-background:new 0 0 850.4 850.4;" xml:space="preserve">
<g>
	<path d="M680.3,355.4l19.2-252.1l-91.3,5.4l6-43.6L236,65.4l6.2,43.4l-91.3-5.4l19,252.3c20.5,17.8,35.5,45.1,44.9,81.7
		c5.6,26.7,5.6,53.3,0,80.2c-8.1,38.5-25,68.9-50.7,90.9c62.6,106.1,149.7,164.9,261.5,176.8c111.2-11.8,198-70.6,260.5-176.8
		c-25.7-22-42.6-52.4-50.7-90.9c-5.6-26.9-5.6-53.5,0-80.2C644.8,400.7,659.8,373.4,680.3,355.4L680.3,355.4z M585.8,93.6v42.1h74
		L651.2,343c-21.2,27.8-35.7,58.4-43.6,92c-4.7,24.6-4.7,49.2,0,73.8c7,35.5,19.3,67.1,37.4,94.7c-49,90-121.2,140.5-216,151.4
		c-94.1-10.7-165.9-61.2-214.9-151.2c18-27.6,30.4-59.4,37.4-94.9c4.7-24.6,4.7-49,0-73.6c-8.1-33.6-22.5-64.2-43.6-92l-16.7-207.4
		h77.6V93.6L585.8,93.6L585.8,93.6z"/>
	<path d="M543.7,135.6v-9.6l17.1-3.8l-17.1-2.4v-11.1h10.9c5.4,5.8,9.2,8.1,10.9,7.1v-13h-40.2v37.8h40.2v-11.6
		C563.6,132.3,556.3,134.3,543.7,135.6L543.7,135.6z"/>
	<path d="M572.8,152.5l-1.9-1.1h-42.5v126.4c7.3,2.4,14.5,5.1,21.8,8.1c5.6,2.4,11.3,4.9,17.1,7.7c0.9,0.6,3,1.7,6.4,3.6v-40.8
		l-13,3.8h-10.5v-31.9c5.1-3.2,10.9-5.6,17.1-7.7c0.9-1.7,0.9-3.2,0-4.9c-6.2-3.4-12-7-17.1-10.7v-33.1c2.4-0.9,5.1-0.9,7.9,0
		c4.3,3.4,9.2,5.3,14.7,5.4V152.5L572.8,152.5z"/>
	<path d="M520.1,218.7v-58.4c0.6-5.8-2.4-8.6-9.2-8.8h-44.3v110.6c7.3,1.1,14.7,2.6,22.2,4.3v-40h24
		C516.3,224.7,518.7,222.2,520.1,218.7L520.1,218.7z M488.7,168.3c2.8-3.2,6.4-3.2,10.7,0.4V211c-3.9,3.9-7.5,4.3-10.7,1.3V168.3
		L488.7,168.3z"/>
	<path d="M635,160.2c-2.8-4.9-7.5-7.9-13.7-8.8h-40.8V300c7.3,3.8,14.8,7.9,22.4,12.2v-68c3.6-1.3,7.1-1.3,10.3,0v74.2
		c7.3,4.3,14.5,9,21.8,13.9v-84.7c-1.1-6.2-4.5-10-10.1-11.3c-1.5-2.1-1.5-4.1,0-6.4l10.1-7.7C637.1,201.6,637.1,180.9,635,160.2
		L635,160.2z M602.9,176.4c3.4-1.9,6.8-1.9,10.3,0v45.5c-3.6,2.4-7,2.4-10.3,0V176.4L602.9,176.4z"/>
	<path d="M450.4,106.7c-0.2-1.7-1.1-3-2.6-3.8h-42.5c-2.1,0.2-3.2,1.1-3.8,2.8c-1.5,11.1-1.5,21.8,0,32.3c0.6,1.3,1.7,2.3,3.4,2.6
		h43.2c1.7-0.8,2.4-1.7,2.3-3C451.7,127,451.7,116.7,450.4,106.7L450.4,106.7z M419.2,135.6v-26.9c3.4-0.9,6.8-0.9,10.1,0v26.9
		C425.9,137.3,422.6,137.3,419.2,135.6L419.2,135.6z"/>
	<path d="M459.4,103v37.8h15.4v-21.2l3.8,0.2l13.3,21h22.9V103h-16.3v9.4h2.6v11.5h-2.6c-0.8,1.7-5.8-5.3-15.4-20.9L459.4,103
		L459.4,103z"/>
	<path d="M367.3,135.6V103h-20.5v37.8H394v-20.9h-18.2c-0.8,2.8,0,8.1,2.3,15.8H367.3L367.3,135.6z"/>
	<path d="M388.8,160.2c-0.9-5.8-4.7-8.8-10.9-8.8h-32.5c-5.8,0.9-9.6,3.8-11.3,8.8v97.1c1.7,5.3,5.4,9,11.5,11.5
		c3.6-0.9,7.3-1.9,11.1-2.6c3.6-0.9,7.1-1.7,10.7-2.3c4.7-0.9,9.6-1.9,14.3-2.4c5.4-1.3,7.7-4.1,7.1-8.5
		C388.8,222,388.8,191.2,388.8,160.2L388.8,160.2z M367.3,168.7c0,26.5,0,53.2,0,79.8l-10.7-0.6v-79.3
		C360.2,165.1,363.8,165.1,367.3,168.7L367.3,168.7z"/>
	<path d="M412.6,151.4c-7,0.2-10.1,2.8-9.2,8.3v90c0.9,4.7,4.3,7.7,9.8,9.2c3.6-0.2,7.1-0.2,10.7,0c3.2-0.2,6.6,0,10,0.2
		c0.2-0.2,0.6-0.2,0.8,0c3.9,0.2,8.1,0.4,12,0.8c6.2-1.3,9.4-4.5,9.6-10v-87.5c0.2-7-3.4-10.5-10.3-10.9H412.6L412.6,151.4z
		 M423.9,167.4c3.4-3.2,6.8-3.2,10,0c0.2,25.4,0.4,51.3,0.6,77.8c-2.8,1.9-6.4,1.7-10.5-0.8V167.4L423.9,167.4z"/>
	<path d="M453,290.6c-3.9-19.5-8.1-26.5-12.6-20.9v104.8c5.4,1.7,11.1-21.2,17.3-68.4c41.9,1.1,75.9,23.9,102,68.4
		C547.3,335.1,511.8,307.1,453,290.6L453,290.6z"/>
	<path d="M425.8,266.9l-17.3,1.9v104.1c-5.8-22-10-44.5-12-67.4c-2.4-4.3-1.1-10.3,3.9-17.8c-30.2,7.9-57.1,19.9-80.4,35.9
		c-19.2,21.2-31,45.8-35.5,73.8c1.9,6.6,5.8,10.5,11.6,11.8v22.9h129.6L425.8,266.9L425.8,266.9z"/>
	<path d="M585.2,397.3c-10.7,2.6-18.8,7.1-24.6,13.7v21H425.8v18.2h159.5V397.3L585.2,397.3z"/>
	<path d="M313.6,476.8c-10.7-2.6-14.7-6.6-11.8-12h124v-14.5H267.2V485c8.1,18.2,20.5,34.6,37.2,49c19.9,16.3,40.6,31.9,62,46.6
		c4.3,7,4.3,13,0,18l-58.2-9.8l-16.5-42.3l3.8,38.5c-10.9,4.3-20.9,10.1-30.1,17.5c-8.5,8.6-13.3,19.5-14.5,32.7
		c20.9,20.3,44.3,37.9,70.8,52.8c26.9,13.9,54.5,21.2,83,22v-26.5h21v-81c-28.6,6.6-65.2,31.9-109.7,76.1
		c5.4-18.6,38.5-53.7,98.8-105.4c-2.4-16.7-4.9-32.5-7.3-47.3c-2.4-14.8-10.7-25.4-24.6-31.2L313.6,476.8L313.6,476.8z"/>
	<path d="M550.9,470.9v-6.2H425.8v137.9c16.3-1.7,53.9,24.6,112.7,78.5c-30.6-40.4-64.2-74.4-100.7-101.8c-3.2-1.3-3.2-7.9-0.2-19.7
		l6.8-34.2c5.8-15.4,16.7-26.3,32.9-32.7C501.8,484.3,526.3,476.9,550.9,470.9L550.9,470.9z"/>
	<path d="M292.4,103c-1.5,0.2-2.6,0.9-3.6,2.6v31.6c0.4,1.7,1.9,3,4.3,3.6h42.6l1.5-3.2v-11.5h-19.5v9.6c-3.4,1.3-6.6,1.3-9.8,0
		c0-9,0-18,0-26.9c3.6-0.9,6.8-0.9,9.8,0v7.1h19.5v-9.4c0.6-2.1-0.4-3.2-2.8-3.6L292.4,103L292.4,103z"/>
	<path d="M258.4,176.4v-25h-53.5v30.8c0.9,4.5,3.8,4.5,8.1,0v-3.9c2.4-2.4,4.9-2.4,7.3,0v154c7.7-5.8,15.6-11.5,23.3-16.7V176.4
		C244.9,174.1,249.9,174.1,258.4,176.4L258.4,176.4z"/>
	<path d="M321.9,161.2c-0.9-5.4-4.9-8.6-11.5-9.8h-45.3v151c7.3-4.3,14.7-8.1,22-11.6v-66.3c4.1-2.8,8.3-2.6,12.2,0.6v60.1
		c7.5-3.2,15-6.2,22.5-8.8v-53.5c-3.6-3.6-7.5-5.3-11.8-4.9c-0.9-1.3-0.9-2.8,0-4.1c6.2-1.7,10.1-5.4,11.8-11.6V161.2L321.9,161.2z
		 M287.1,171.1c3.6-2.1,7.7-2.1,12.2,0v34c-4.5,4.3-8.6,4.5-12.2,0.6V171.1L287.1,171.1z"/>
	<path d="M589.6,484.8l-5.4,2.8c-5.1,23.1-38.3,54.7-99.4,94.9v16c20.5-4.5,40.8-7.7,61.2-9.8l14.7-44c3.8,0.6,6.6,2.6,8.6,5.8H564
		l-4.1,31.2l21.2,15.4L589.6,484.8L589.6,484.8z"/>
	<polygon points="425.8,684.5 425.8,711.9 447.2,711.9 447.2,684.5 425.8,684.5 	"/>
</g>
</svg>
