<?xml version="1.0" encoding="utf-8"?>
<!-- Generator: Adobe Illustrator 26.3.1, SVG Export Plug-In . SVG Version: 6.00 Build 0)  -->
<svg version="1.1" id="katman_1" xmlns="http://www.w3.org/2000/svg" xmlns:xlink="http://www.w3.org/1999/xlink" x="0px" y="0px"
	 viewBox="0 0 850.4 850.4" style="enable-background:new 0 0 850.4 850.4;" xml:space="preserve">
<g>
	<path d="M425.2,65.2c-198.5,0-360,161.5-360,360s161.5,360,360,360c198.5,0,360-161.5,360-360S623.7,65.2,425.2,65.2z M425.2,752.9
		c-181,0-327.7-146.7-327.7-327.7S244.2,97.5,425.2,97.5c181,0,327.7,146.7,327.7,327.7S606.2,752.9,425.2,752.9z"/>
	<g>
		<path d="M585.3,627.8c0,12.2,0,24.4,0,36.6c-45.8,30.7-100.8,48.7-160.1,48.7c-119.8,0-222.4-73.2-265.8-177.3
			c43.8,0,87.5,0.1,131.3,0.1c-2.5-4.8-5.1-9.7-7.6-14.5c-43.1,0-86.2,0-129.3,0h-9.2h-5.9c40.3,119.6,153.4,206,286.4,206
			c65,0,125.2-20.7,174.5-55.7v-1.6v-16c0-11.5,0-23-0.1-34.5C594.9,622.4,590.1,625.1,585.3,627.8z"/>
		<path d="M425.2,123c-4,0-8,0.1-11.9,0.3h-1.7v0C251.2,130.5,123,263.1,123,425.2c0,21,2.2,41.4,6.2,61.2v0.1h0h14.7
			c41.8,0,83.7,0,125.5,0c-1.5-4.8-2.9-9.6-4.4-14.4c-41.3,0-82.6,0-123.8,0c-2.5-15.2-3.9-30.9-3.9-46.9
			c0-159,128.9-287.9,287.9-287.9c59.3,0,114.3,18,160.1,48.7c0,7.6,0,15.2,0,22.8c4.8,2.1,9.6,4.1,14.4,6.2c0-6.3,0-12.5,0-18.8
			v-12.9v-4.7C550.4,143.7,490.2,123,425.2,123z"/>
		<path d="M585.3,618v-82.1H299.7c39.6,64.1,110.4,106.8,191.3,106.8c33.7,0,65.6-7.4,94.3-20.7L585.3,618L585.3,618z"/>
		<path d="M649.1,577.5c12.6-12.5,23.7-26.5,33.1-41.7h-33.1V577.5z"/>
		<path d="M709,472c0.2-0.8,0.4-1.5,0.6-2.3c-0.1,0.8-0.3,1.5-0.4,2.3h14.6c2.4-15.3,3.6-30.9,3.6-46.9
			c0-85.3-35.6-162.5-92.7-217.5v15.4v4.7v12.4h11c19.8,23.6,35.9,50.5,47.4,79.6c-11.1-22.9-26.1-43.6-44-61.3V472H709z"/>
		<path d="M585.3,216.9L585.3,216.9l0-2.8c-28.7-13.3-60.6-20.7-94.3-20.7C366.9,193.4,266.4,294,266.4,418c0,18.6,2.3,36.7,6.6,54
			h312.4V216.9z"/>
		<path d="M649.1,605.9c0-7.3,0-14.6,0-22c-4.8,4-9.6,8.1-14.4,12.1v26.5c0,0,0,0,0,0v20.1c31-29.8,55.5-66.2,71.6-106.9H691
			C680.4,561.2,666.2,584.8,649.1,605.9z"/>
		<path d="M643.7,486.4l-8.9-8.9V472V245.4c-10.9-9.1-22.6-17.1-35-24v253h0v3.1l-8.9,8.9H277c3.9,12.2,8.8,23.9,14.6,35h293.7h5.5
			l8.9,8.9l0,0v84.3c12.4-6.9,24.2-15,35-24v-9.8v-4.4v-40.5v-5.5l8.9-8.9h46.8c5.8-11.1,10.7-22.8,14.5-35H643.7z"/>
	</g>
</g>
</svg>
