<?xml version="1.0" encoding="utf-8"?>
<!-- Generator: Adobe Illustrator 26.3.1, SVG Export Plug-In . SVG Version: 6.00 Build 0)  -->
<svg version="1.1" id="katman_1" xmlns="http://www.w3.org/2000/svg" xmlns:xlink="http://www.w3.org/1999/xlink" x="0px" y="0px"
	 viewBox="0 0 850.4 850.4" style="enable-background:new 0 0 850.4 850.4;" xml:space="preserve">
<path d="M425.3,65.3c66.9,0,133.8,0.1,200.7-0.1c5,0,7.7,1.4,10.3,5.8c66.9,116.3,133.9,232.5,201.1,348.6c2.4,4.2,2.3,7.1-0.1,11.2
	c-67,115.9-133.9,231.9-200.7,348c-2.6,4.5-5.3,6.3-10.7,6.3c-133.8-0.2-267.6-0.2-401.4,0c-5,0-7.7-1.4-10.3-5.8
	C147.2,663.1,80.2,546.9,13.1,430.7c-2.4-4.1-2.3-7.1,0.1-11.2c67-115.9,133.9-232,200.7-348c2.6-4.5,5.3-6.3,10.7-6.3
	C291.5,65.4,358.4,65.3,425.3,65.3z M231.4,737.8c1.3-1.7,1.8-2.2,2.2-2.8c38-65.6,76-131.3,114.1-196.8c2.2-3.7,1.2-6.2-0.6-9.4
	c-16.6-28.5-33.3-56.9-49.6-85.5c-2.6-4.6-5.5-6.3-10.8-6.3c-73.4,0.2-146.7,0.1-220.1,0.1c-2.4,0-4.8,0-8.6,0
	C116.1,538.1,173.5,637.6,231.4,737.8z M58.2,412.7c2.9,0.3,4.6,0.6,6.4,0.6c74.5,0,149.1,0.1,223.6-0.2c2.7,0,6.6-2.2,8-4.6
	c17.2-28.9,33.9-58.1,51-87.2c2.2-3.7,2-6.4-0.1-10c-37.3-64.4-74.5-129-111.7-193.5c-0.9-1.6-2.2-3.1-3.7-5.3
	C173.7,212.9,116.2,312.4,58.2,412.7z M253.3,748.8c115.7,0,230.4,0,345.3,0c-0.4-1.2-0.6-1.9-0.9-2.5
	c-37.9-65.7-75.7-131.4-113.8-196.9c-1.3-2.3-5.4-4.1-8.2-4.1c-33-0.3-66-0.1-98.9-0.3c-4.9,0-7.4,1.7-9.7,5.7
	c-36.8,64.1-73.8,128.2-110.8,192.2C255.4,744.7,254.5,746.5,253.3,748.8z M598.8,101.6c-115.6,0-230.1,0-345.1,0
	c0.9,1.9,1.5,3.1,2.2,4.3c37.4,64.9,74.9,129.8,112.2,194.7c2.2,3.8,4.8,4.7,8.9,4.7c32.5-0.1,65.1-0.2,97.6,0.1
	c5,0,7.8-1.6,10.3-5.9c26.3-46,52.9-91.9,79.4-137.8C575.6,141.9,587,122.2,598.8,101.6z M619.8,114.1c-1.5,2.2-2.7,3.6-3.5,5.1
	c-37.3,64.7-74.6,129.4-112,194c-2.2,3.8-1.7,6.5,0.3,10c16.2,27.9,32.3,55.8,48.2,84c2.6,4.7,5.5,6.2,10.8,6.2
	c73.6-0.2,147.2-0.1,220.8-0.1c2.2,0,4.4,0,8.2,0C734.6,312.9,677.4,213.8,619.8,114.1z M792.3,437.5c-3.4-0.2-5.4-0.3-7.5-0.3
	c-74.1,0-148.1,0-222.2-0.1c-4.9,0-7.4,1.8-9.6,5.8c-15.8,27.9-31.7,55.7-47.9,83.3c-2.7,4.6-2.7,7.8,0,12.4
	C541.9,602,578.5,665.5,615.2,729c1.2,2.2,2.6,4.2,4.5,7.2C677.3,636.5,734.4,537.6,792.3,437.5z"/>
</svg>
