<?xml version="1.0" encoding="utf-8"?>
<!-- Generator: Adobe Illustrator 26.3.1, SVG Export Plug-In . SVG Version: 6.00 Build 0)  -->
<svg version="1.1" id="katman_1" xmlns="http://www.w3.org/2000/svg" xmlns:xlink="http://www.w3.org/1999/xlink" x="0px" y="0px"
	 viewBox="0 0 850.4 850.4" style="enable-background:new 0 0 850.4 850.4;" xml:space="preserve">
<g>
	<path d="M435,785.2c-5.4,0-10.8,0-16.3,0c-0.8-0.1-1.7-0.3-2.5-0.3c-14.9-0.4-29.6-1.8-44.3-4.1c-16.2-2.4-32.2-5.5-47.9-10.2
		c-58.7-17.6-109.8-47.8-153.1-91.3c-21.1-21.2-39.7-44.4-54.8-70.2C99.2,580.3,86,550,77.3,517.8c-4.2-15.4-7.1-31.1-8.8-47
		c-1.2-10.8-1.8-21.7-2.7-32.6c-0.1-0.7-0.2-1.3-0.3-1.9c0-8.7,0-17.4,0-26.2c0.2-2.8,0.4-5.5,0.6-8.3c1-13.4,2.6-26.8,5-40
		c3.9-21.4,9.3-42.5,17-62.9c10.4-27.5,23.8-53.5,40.6-77.7c6.3-9.1,13.7-17.4,20.7-26c5.5-6.7,10.8-13.6,16.7-19.9
		c12-12.8,25.1-24.3,39.1-34.9c13.1-9.9,26.3-19.7,40.9-27.4c19.8-10.4,39.5-20.8,60.9-28C338.6,74.5,370.7,67.8,404,66
		c3.8-0.2,7.5-0.5,11.2-0.8c7.4,0,14.8,0,22.2,0c1,0.1,1.9,0.3,2.9,0.4c20,0.7,39.9,3.1,59.5,7.2c23.7,5,46.6,12.3,68.7,22.2
		c14.9,6.6,29.3,13.9,43.3,22.2c13.9,8.3,26.9,18,39.1,28.6c8.9,7.7,18.3,14.8,26.9,22.8c20.8,19.5,37.3,42.7,52.8,66.3
		c15.2,23.2,26.9,48.4,35.7,74.8c11.7,35.1,17.8,71.1,18.5,108.2c0.4,23.8-1.2,47.3-5.4,70.8c-5.4,30.1-14.5,59-27.3,86.7
		c-17,36.8-39.5,69.9-67.5,99.3c-12.3,12.9-25.9,24.4-40,35.5c-24.1,19-50.3,34.2-78.5,46.1c-26.5,11.1-53.8,19.5-82.2,23.8
		c-12.1,1.8-24.3,3-36.5,4.3C443.3,784.8,439.2,784.9,435,785.2z M425,743.3c178.3-0.3,318.2-144.1,318.6-317.6
		C744,253.2,605.4,107.6,426,106.9C248.8,106.3,106.7,250.3,107,425C107.2,602.1,250.5,743.4,425,743.3z"/>
	<path d="M536.8,415.8c0,61.2-50.1,111.5-111.3,111.5c-61.2,0-111.9-50.3-111.8-111.3c0.1-60.8,49.1-112,112.2-111.7
		C486.9,304.6,536.5,354.3,536.8,415.8z"/>
	<path d="M317.2,719.4c11.1-62,22.1-123.9,33.3-186.4c19.5,12.1,40.2,19.4,63.2,21.3c-32.1,55.5-64,110.4-95.8,165.4
		C317.6,719.6,317.4,719.5,317.2,719.4z"/>
	<path d="M437,554.5c30.6-4.4,30.3-4.9,63.1-21.1c11.1,62.1,22.1,124.2,33.2,186.2c-0.2,0.1-0.4,0.2-0.6,0.3
		C500.9,664.8,469,609.8,437,554.5z"/>
	<path d="M294.4,463.3c8.2,21,19.9,38.8,36.1,54.2c-59.8,21.7-118.9,43.2-178.1,64.7c-0.1-0.2-0.2-0.4-0.3-0.5
		C199.5,542.3,246.9,502.8,294.4,463.3z"/>
	<path d="M520,517.5c8.2-7.8,15.2-15.9,21.2-25c5.9-9,10.9-18.5,14.9-29.1c47.5,39.5,94.9,79,142.4,118.4c-0.1,0.2-0.2,0.4-0.3,0.6
		C639,560.8,579.9,539.3,520,517.5z"/>
	<path d="M287.3,433.3c-57.7-20.8-115.1-41.4-172.4-62c0-0.2,0.1-0.4,0.1-0.6c0.6,0,1.2-0.1,1.8-0.1c58.1,0,116.3,0,174.4-0.1
		c2.3,0,2.5,0.3,1.7,2.4c-5.7,16.5-7.1,33.5-6.7,50.7c0,1.5,0.3,3,0.5,4.5C286.9,429.7,287.1,431.2,287.3,433.3z"/>
	<path d="M735.7,371.2c-57.4,20.6-114.7,41.3-172.4,62c0.1-1.4,0.1-2.5,0.2-3.6c2-19.2,0-38-5.9-56.4c-0.8-2.4-0.6-2.6,1.9-2.6
		c57.6,0,115.2,0,172.8,0c1,0,2.1,0,3.1,0C735.6,370.8,735.6,371,735.7,371.2z"/>
	<path d="M628.1,185.3c-29.3,50.4-58.7,100.8-88.4,151.7c-12.1-17-26.3-30.9-44.2-41.1c0.4-0.6,0.8-1.2,1.3-1.6
		c28.7-24.1,57.5-48.3,86.2-72.3c14.5-12.2,29.1-24.3,43.7-36.4c0.3-0.2,0.6-0.4,1-0.6C627.8,185.1,628,185.2,628.1,185.3z"/>
	<path d="M355.3,295.7C346,301,337.9,307,330.7,314c-7.1,7-13.5,14.6-20.4,22.2c-29.2-50.1-58.5-100.4-87.8-150.7
		c0.1-0.1,0.3-0.2,0.4-0.4C267,222,311,258.8,355.3,295.7z"/>
	<path d="M425.7,111.7c9.8,55.9,19.6,111.7,29.4,167.5c-9.9-0.8-19.7-2.1-29.6-2.1c-9.9,0-19.8,1.4-29.8,2.2
		c9.7-55.7,19.5-111.6,29.3-167.6C425.1,111.6,425.4,111.7,425.7,111.7z"/>
</g>
</svg>
