<?xml version="1.0" encoding="utf-8"?>
<!-- Generator: Adobe Illustrator 26.3.1, SVG Export Plug-In . SVG Version: 6.00 Build 0)  -->
<svg version="1.1" id="katman_1" xmlns="http://www.w3.org/2000/svg" xmlns:xlink="http://www.w3.org/1999/xlink" x="0px" y="0px"
	 viewBox="0 0 850.4 850.4" style="enable-background:new 0 0 850.4 850.4;" xml:space="preserve">
<style type="text/css">
	.st0{fill:#FFFFFF;}
</style>
<g>
	<path d="M757.9,349.6l0.1-84.3l-65.8-52.6l-36.5-76L573.5,118l-65.8-52.6L425.6,84l-82.1-18.8l-65.9,52.5l-82.2,18.7l-36.6,75.9
		l-65.9,52.5l-0.1,84.3L56,424.8l36.5,76L92.4,585l65.8,52.6l36.5,76l82.1,18.8l65.8,52.6l82.2-18.7l82.1,18.8l65.9-52.5l82.2-18.7
		l36.6-75.9l65.9-52.5l0.1-84.3l36.6-75.9L757.9,349.6z M425.2,739.1c-158.1,0-288.8-116.8-310.7-268.9c-2.4-15.7-3.7-31.7-3.7-48.1
		c0-172.8,140.1-312.9,312.9-312.9c87.2,0,166,35.6,222.7,93.1c57.3,56.9,92.7,135.7,92.7,222.7
		C739.1,598.6,598.6,739.1,425.2,739.1z"/>
	<g>
		<path class="st0" d="M304.8,361.8c-36,0-87.3,59.3-87.3,59.3s-8,14-2.8,18.4c6.4-2.4,53.7-65.3,90.9-65.3c37.2,0,52.9,20,58.9,18
			s4.4-6.4,4.4-6.4S340.8,361.8,304.8,361.8z"/>
		<path class="st0" d="M479.8,385.8c0,0-1.6,4.4,4.4,6.4s21.6-18,58.9-18c37.2,0,84.5,62.9,90.9,65.3c5.2-4.4-2.8-18.4-2.8-18.4
			s-51.3-59.3-87.3-59.3S479.8,385.8,479.8,385.8z"/>
		<path class="st0" d="M313.6,514.4c-17.6,4.4-24.4-4-24.4-4l12.8,18.4c56.5-18.8,65.8,4.4,65.8,4.4c-37.6,28.8-40.5,55.7-40.5,55.7
			l8.4,21.2c0-59.3,60.9-76.9,60.9-76.9v-12.4C353.6,503.6,331.2,510,313.6,514.4z"/>
		<path class="st0" d="M395.3,498.4l0.4-13.6c0,0-66.5,17.6-101.3-8.4l-12.8-0.8C281.5,475.5,298.8,509.2,395.3,498.4z"/>
		<path class="st0" d="M511,610.1l8.4-21.2c0,0-3-26.8-40.5-55.7c0,0,9.3-23.2,65.8-4.4l12.8-18.4c0,0-6.8,8.4-24.4,4
			c-17.6-4.4-40-10.8-82.9,6.4v12.4C450.2,533.2,511,550.8,511,610.1z"/>
		<path class="st0" d="M565.1,475.5l-12.8,0.8c-34.8,26-101.3,8.4-101.3,8.4l0.4,13.6C547.9,509.2,565.1,475.5,565.1,475.5z"/>
		<path class="st0" d="M402.5,473.8v15.4c16.8-14.3,43.3,0,43.3,0v-14.9C421.7,461,402.5,473.8,402.5,473.8z"/>
		<path class="st0" d="M402.5,495.4V506c16.8-9.9,43.3,0,43.3,0v-10.3C421.7,486.5,402.5,495.4,402.5,495.4z"/>
		<path class="st0" d="M203.4,543.6c7.2-21.4,47.3-134.6,97.7-122.6c0,0-12,3.2-12,22.4c0,16.8,26.4,48.1,106.5,31.2l1.6-15.2
			c-28.4-14.8-49.7-45.7-99.3-45.7c-0.7-0.1-1.3-0.1-2-0.2c-0.2,0-0.4,0-0.7,0c-0.4,0-0.9,0-1.3,0c-0.3,0-0.5,0-0.8,0
			c-0.4,0-0.8,0-1.2,0c-0.3,0-0.6,0-0.8,0.1c-0.4,0-0.8,0.1-1.2,0.1c-0.3,0-0.6,0.1-0.9,0.1c-0.4,0-0.8,0.1-1.1,0.1
			c-0.3,0-0.6,0.1-0.9,0.1c-0.4,0.1-0.7,0.1-1.1,0.2c-0.3,0.1-0.6,0.1-0.9,0.2c-0.4,0.1-0.8,0.2-1.1,0.3c-0.3,0.1-0.6,0.1-0.9,0.2
			c-0.4,0.1-0.8,0.2-1.1,0.3c-0.3,0.1-0.6,0.2-0.8,0.3c-0.4,0.1-0.8,0.3-1.2,0.4c-0.3,0.1-0.5,0.2-0.8,0.3c-0.4,0.2-0.9,0.3-1.3,0.5
			c-0.2,0.1-0.5,0.2-0.7,0.3c-0.6,0.2-1.1,0.5-1.7,0.7c-0.1,0-0.2,0.1-0.3,0.1c-0.7,0.3-1.3,0.6-2,0.9c-0.2,0.1-0.4,0.2-0.6,0.3
			c-0.4,0.2-0.9,0.5-1.3,0.7c-0.3,0.1-0.5,0.3-0.8,0.4c-0.4,0.2-0.8,0.4-1.2,0.7c-0.3,0.2-0.6,0.3-0.8,0.5c-0.4,0.2-0.7,0.5-1.1,0.7
			c-0.3,0.2-0.6,0.4-0.9,0.6c-0.4,0.2-0.7,0.5-1.1,0.7c-0.3,0.2-0.6,0.4-0.9,0.6c-0.4,0.2-0.7,0.5-1.1,0.8c-0.3,0.2-0.6,0.4-0.9,0.6
			c-0.4,0.3-0.7,0.5-1.1,0.8c-0.3,0.2-0.6,0.5-0.9,0.7c-0.3,0.3-0.7,0.6-1,0.8c-0.3,0.2-0.6,0.5-0.9,0.7c-0.4,0.3-0.7,0.6-1.1,0.9
			c-0.3,0.2-0.6,0.5-0.9,0.7c-0.4,0.3-0.7,0.6-1.1,1c-0.3,0.2-0.5,0.5-0.8,0.7c-0.4,0.4-0.8,0.7-1.2,1.1c-0.2,0.2-0.5,0.4-0.7,0.6
			c-0.6,0.6-1.2,1.2-1.8,1.8c-0.3,0.3-0.5,0.5-0.8,0.8c-0.4,0.4-0.7,0.7-1.1,1.1c-0.3,0.3-0.6,0.6-0.9,0.9c-0.3,0.3-0.6,0.7-1,1
			c-0.3,0.3-0.6,0.7-0.9,1c-0.3,0.3-0.6,0.7-0.9,1c-0.3,0.3-0.6,0.7-0.9,1.1c-0.3,0.3-0.6,0.7-0.9,1c-0.3,0.4-0.6,0.7-0.9,1.1
			c-0.3,0.3-0.6,0.7-0.9,1c-0.3,0.4-0.6,0.8-0.9,1.1c-0.3,0.3-0.6,0.7-0.8,1c-0.3,0.4-0.6,0.8-1,1.2c-0.3,0.3-0.5,0.7-0.8,1
			c-0.3,0.4-0.6,0.8-1,1.2c-0.3,0.3-0.5,0.7-0.8,1c-0.3,0.4-0.7,0.9-1,1.3c-0.2,0.3-0.5,0.6-0.7,0.9c-0.3,0.5-0.7,0.9-1,1.4
			c-0.2,0.2-0.3,0.5-0.5,0.7c-1.4,1.9-2.7,3.9-4.1,5.9c-0.1,0.2-0.2,0.3-0.3,0.5c-0.4,0.6-0.8,1.2-1.1,1.7c-0.2,0.3-0.3,0.5-0.5,0.8
			c-0.4,0.6-0.7,1.1-1.1,1.7c-0.2,0.3-0.3,0.5-0.5,0.8c-0.4,0.6-0.7,1.1-1,1.7c-0.2,0.3-0.4,0.6-0.5,0.9c-0.3,0.6-0.7,1.1-1,1.7
			c-0.2,0.3-0.3,0.6-0.5,0.9c-0.3,0.6-0.7,1.2-1,1.7c-0.2,0.3-0.3,0.6-0.5,0.9c-0.3,0.6-0.7,1.2-1,1.8c-0.2,0.3-0.3,0.5-0.4,0.8
			c-0.4,0.6-0.7,1.3-1.1,1.9c-0.1,0.2-0.3,0.5-0.4,0.7c-0.4,0.7-0.7,1.3-1.1,2c-0.1,0.2-0.2,0.3-0.2,0.5c-2.7,5-5.3,10.2-7.7,15.4
			c0,0.1-0.1,0.2-0.1,0.3c-0.4,0.8-0.7,1.5-1.1,2.3c-0.1,0.2-0.1,0.3-0.2,0.5c-0.3,0.8-0.7,1.5-1,2.3c-0.1,0.2-0.1,0.3-0.2,0.5
			c-0.3,0.8-0.7,1.5-1,2.3c-0.1,0.2-0.1,0.3-0.2,0.5c-0.3,0.8-0.6,1.5-1,2.3c-0.1,0.2-0.1,0.3-0.2,0.5c-0.3,0.8-0.6,1.6-1,2.4
			c0,0.1-0.1,0.2-0.1,0.3c-0.3,0.8-0.7,1.7-1,2.5c0,0,0,0,0,0c-2.1,5.5-4.1,11-5.8,16.4c0,0,0,0,0,0c2,4.3,4.2,8.6,6.4,12.8
			C203.3,544.2,203.3,543.9,203.4,543.6z"/>
		<path class="st0" d="M646.2,519.1c0-0.1-0.1-0.3-0.1-0.4c-0.3-0.8-0.6-1.6-0.9-2.4c-0.1-0.2-0.1-0.4-0.2-0.5
			c-0.3-0.8-0.6-1.5-0.9-2.3c-0.1-0.2-0.2-0.4-0.2-0.6c-0.3-0.7-0.6-1.5-0.9-2.2c-0.1-0.2-0.2-0.4-0.3-0.7c-0.3-0.7-0.6-1.5-0.9-2.2
			c-0.1-0.2-0.2-0.4-0.3-0.6c-0.3-0.7-0.6-1.5-1-2.2c-0.1-0.2-0.2-0.4-0.2-0.6c-0.3-0.8-0.7-1.5-1-2.3c-0.1-0.1-0.1-0.3-0.2-0.4
			c-2-4.4-4.1-8.8-6.3-13.2c-0.1-0.1-0.1-0.2-0.2-0.4c-0.4-0.7-0.7-1.4-1.1-2.1c-0.1-0.2-0.2-0.5-0.4-0.7c-0.3-0.7-0.7-1.3-1-2
			c-0.1-0.3-0.3-0.6-0.4-0.8c-0.3-0.6-0.7-1.2-1-1.9c-0.2-0.3-0.3-0.6-0.5-0.9c-0.3-0.6-0.7-1.2-1-1.8c-0.2-0.3-0.4-0.6-0.5-1
			c-0.3-0.6-0.7-1.2-1-1.7c-0.2-0.3-0.4-0.6-0.6-1c-0.3-0.6-0.7-1.1-1-1.7c-0.2-0.3-0.4-0.6-0.6-1c-0.3-0.6-0.7-1.1-1-1.7
			c-0.2-0.3-0.4-0.6-0.6-0.9c-0.4-0.6-0.7-1.1-1.1-1.7c-0.2-0.3-0.3-0.5-0.5-0.8c-0.4-0.6-0.8-1.2-1.1-1.8c-0.1-0.1-0.2-0.2-0.2-0.4
			c-1-1.5-1.9-2.9-2.9-4.3c0-0.1-0.1-0.1-0.1-0.2c-0.4-0.5-0.7-1-1.1-1.5c-0.2-0.3-0.4-0.6-0.7-0.9c-0.3-0.5-0.7-0.9-1-1.4
			c-0.3-0.3-0.5-0.7-0.8-1c-0.3-0.4-0.6-0.9-1-1.3c-0.3-0.4-0.5-0.7-0.8-1.1c-0.3-0.4-0.6-0.8-1-1.3c-0.3-0.4-0.6-0.7-0.8-1.1
			c-0.3-0.4-0.6-0.8-0.9-1.2c-0.3-0.4-0.6-0.7-0.9-1.1c-0.3-0.4-0.6-0.8-0.9-1.2c-0.3-0.4-0.6-0.7-0.9-1.1c-0.3-0.4-0.6-0.7-0.9-1.1
			c-0.3-0.4-0.6-0.7-0.9-1.1c-0.3-0.4-0.6-0.7-0.9-1.1c-0.3-0.4-0.6-0.7-1-1.1c-0.3-0.3-0.6-0.7-0.9-1c-0.3-0.4-0.7-0.7-1-1.1
			c-0.3-0.3-0.6-0.6-0.9-0.9c-0.4-0.4-0.8-0.8-1.1-1.2c-0.2-0.3-0.5-0.5-0.7-0.8c-0.6-0.6-1.2-1.2-1.9-1.9c-0.2-0.2-0.5-0.5-0.7-0.7
			c-0.4-0.4-0.8-0.8-1.2-1.1c-0.3-0.3-0.5-0.5-0.8-0.8c-0.4-0.3-0.7-0.7-1.1-1c-0.3-0.3-0.6-0.5-0.9-0.8c-0.4-0.3-0.7-0.6-1.1-0.9
			c-0.3-0.2-0.6-0.5-0.9-0.7c-0.4-0.3-0.7-0.6-1.1-0.9c-0.3-0.2-0.6-0.5-0.9-0.7c-0.4-0.3-0.7-0.6-1.1-0.8c-0.3-0.2-0.6-0.4-0.9-0.7
			c-0.4-0.3-0.7-0.5-1.1-0.8c-0.3-0.2-0.6-0.4-0.9-0.6c-0.4-0.3-0.7-0.5-1.1-0.8c-0.3-0.2-0.6-0.4-0.9-0.6c-0.4-0.3-0.8-0.5-1.1-0.7
			c-0.3-0.2-0.6-0.4-0.8-0.5c-0.4-0.2-0.8-0.5-1.2-0.7c-0.3-0.2-0.5-0.3-0.8-0.5c-0.5-0.3-0.9-0.5-1.4-0.8c-0.2-0.1-0.4-0.2-0.6-0.3
			c-0.7-0.3-1.3-0.7-2-1c-0.1-0.1-0.2-0.1-0.4-0.2c-0.5-0.3-1.1-0.5-1.6-0.7c-0.2-0.1-0.5-0.2-0.7-0.3c-0.4-0.2-0.9-0.4-1.3-0.5
			c-0.3-0.1-0.5-0.2-0.8-0.3c-0.4-0.1-0.8-0.3-1.2-0.4c-0.3-0.1-0.6-0.2-0.9-0.3c-0.4-0.1-0.8-0.2-1.2-0.3c-0.3-0.1-0.6-0.2-0.9-0.2
			c-0.4-0.1-0.8-0.2-1.1-0.3c-0.3-0.1-0.6-0.1-0.9-0.2c-0.4-0.1-0.8-0.2-1.1-0.2c-0.3-0.1-0.6-0.1-0.9-0.1c-0.4-0.1-0.8-0.1-1.2-0.2
			c-0.3,0-0.6-0.1-0.9-0.1c-0.4,0-0.8-0.1-1.2-0.1c-0.3,0-0.6,0-0.9-0.1c-0.4,0-0.8,0-1.2,0c-0.3,0-0.5,0-0.8,0c-0.4,0-0.9,0-1.3,0
			c-0.2,0-0.4,0-0.7,0c-0.7,0-1.3,0.1-2,0.2c-49.7,0-70.9,30.8-99.3,45.7l1.6,15.2c80.1,16.8,106.5-14.4,106.5-31.2
			c0-19.2-12-22.4-12-22.4c50.5-12,90.6,101.2,97.7,122.6c0.3,0.8,0.5,1.7,0.8,2.5c0.2,0.7,0.4,1.4,0.6,2.1
			c2.3-4.1,4.5-8.3,6.6-12.5C650.2,530.2,648.3,524.6,646.2,519.1z"/>
	</g>
	<g>
		<path class="st0" d="M646.2,200.8c-56.9-56.5-135.2-91.5-221.7-91.5c-173.8,0-314.6,141-314.6,314.9c0,15.4,1.1,30.4,3.2,45.2
			C135,621.9,266,739.1,424.5,739.1c173.8,0,314.6-141,314.6-314.9C739.1,336.9,703.6,257.8,646.2,200.8z M655.7,550.4
			c-2.7,4.9-5.5,9.7-8.5,14.4c-5,7.9-10.4,15.5-16.2,22.9C588.8,641,526.4,677.6,455.6,686c-10.2,1.2-20.6,1.8-31.1,1.8
			c-12.4,0-24.6-0.9-36.6-2.6c-69.2-9.7-129.9-46.3-171-99c-6.5-8.4-12.6-17.2-18.1-26.3c-2.7-4.4-5.2-9-7.6-13.6
			c-11.9-22.6-20.6-47.2-25.5-73c-3-15.9-4.6-32.4-4.6-49.2c0-102.1,58.3-190.8,143.3-234.6c36-18.5,76.9-29,120.1-29
			c39,0,76.1,8.5,109.4,23.9c90.8,41.7,154,133.5,154,239.8c0,18.7-2,36.9-5.7,54.5C676.8,504.2,667.8,528.3,655.7,550.4z"/>
		<g>
			<path d="M687.9,424.2c0-106.3-63.2-198.1-154-239.8c0,0,0,0,0,0c0,0,0,0,0,0c-10.4-4.8-21.1-8.9-32.2-12.3
				c-0.2-0.1-0.4-0.1-0.6-0.2c-1.9-0.6-3.9-1.2-5.9-1.7c-0.4-0.1-0.9-0.2-1.3-0.4c-1.7-0.5-3.5-0.9-5.2-1.4
				c-0.6-0.1-1.2-0.3-1.8-0.4c-1.6-0.4-3.2-0.8-4.8-1.1c-0.7-0.2-1.4-0.3-2.1-0.5c-1.5-0.3-3-0.6-4.6-0.9c-0.8-0.2-1.5-0.3-2.3-0.4
				c-1.5-0.3-2.9-0.5-4.4-0.8c-0.8-0.1-1.7-0.3-2.5-0.4c-1.4-0.2-2.9-0.4-4.3-0.7c-0.9-0.1-1.7-0.2-2.6-0.4
				c-1.4-0.2-2.8-0.4-4.3-0.5c-0.9-0.1-1.8-0.2-2.7-0.3c-1.4-0.2-2.8-0.3-4.3-0.4c-0.9-0.1-1.8-0.2-2.7-0.2
				c-1.5-0.1-2.9-0.2-4.4-0.3c-0.9-0.1-1.7-0.1-2.6-0.2c-1.6-0.1-3.2-0.1-4.8-0.2c-0.8,0-1.5-0.1-2.2-0.1c-2.3-0.1-4.7-0.1-7.1-0.1
				c-2,0-4.1,0-6.1,0.1c-0.4,0-0.7,0-1.1,0c-2,0.1-3.9,0.1-5.8,0.2c-0.4,0-0.8,0-1.1,0.1c-2,0.1-4,0.2-6,0.4c-0.1,0-0.2,0-0.3,0
				c-1.9,0.1-3.8,0.3-5.7,0.5c-0.4,0-0.7,0.1-1.1,0.1c-1.9,0.2-3.8,0.4-5.7,0.7c-0.4,0.1-0.8,0.1-1.2,0.2c-1.9,0.2-3.8,0.5-5.7,0.8
				c-0.2,0-0.4,0.1-0.6,0.1c-1.8,0.3-3.6,0.6-5.3,0.9c-0.4,0.1-0.7,0.1-1.1,0.2c-1.8,0.3-3.6,0.7-5.5,1c-0.4,0.1-0.9,0.2-1.3,0.3
				c-1.8,0.4-3.6,0.8-5.4,1.2c-0.3,0.1-0.6,0.1-0.9,0.2c-1.6,0.4-3.3,0.8-4.9,1.2c-0.4,0.1-0.8,0.2-1.1,0.3
				c-1.7,0.5-3.5,0.9-5.2,1.4c-0.5,0.1-1,0.3-1.4,0.4c-1.7,0.5-3.4,1-5.1,1.5c-0.4,0.1-0.8,0.2-1.2,0.4c-1.5,0.5-3,1-4.5,1.5
				c-0.4,0.1-0.8,0.3-1.2,0.4c-1.7,0.6-3.3,1.2-5,1.7c-0.5,0.2-1,0.4-1.5,0.6c-1.6,0.6-3.2,1.2-4.9,1.8c-0.4,0.2-0.9,0.4-1.3,0.5
				c-1.4,0.6-2.8,1.1-4.2,1.7c-0.4,0.2-0.8,0.3-1.2,0.5c-1.6,0.7-3.1,1.4-4.7,2.1c-0.5,0.2-1,0.5-1.5,0.7c-1.5,0.7-3.1,1.4-4.6,2.2
				c-0.5,0.2-0.9,0.5-1.4,0.7c-1.3,0.7-2.7,1.3-4,2c-85.6,43.6-144.4,132.6-144.4,235.2c0,40.7,9.3,79.2,25.8,113.6c0,0,0,0.1,0,0.1
				c0.7,1.4,1.4,2.8,2.1,4.2c0,0,0,0.1,0,0.1c0.7,1.4,1.4,2.8,2.2,4.2c0,0,0,0.1,0.1,0.1c1.1,2,2.2,4.1,3.3,6.1
				c0.3,0.5,0.5,0.9,0.8,1.4c1.1,2,2.2,3.9,3.4,5.8c0,0.1,0.1,0.1,0.1,0.2c0,0,0,0,0,0c0,0,0,0,0,0c0,0,0,0,0,0
				c1.3,2.1,2.6,4.3,4,6.4c0.2,0.4,0.5,0.7,0.7,1.1c1.1,1.7,2.2,3.4,3.4,5.1c0.3,0.5,0.6,0.9,0.9,1.4c1.4,2,2.8,4,4.2,5.9
				c0,0,0.1,0.1,0.1,0.1c1.4,1.9,2.8,3.7,4.2,5.6c0.2,0.2,0.3,0.5,0.5,0.7c0,0,0,0,0,0c41.1,52.6,101.8,89.3,171,99v0c0,0,0,0,0,0
				c4.2,0.6,8.4,1.1,12.7,1.5c0.5,0,1,0.1,1.5,0.1c1.2,0.1,2.3,0.2,3.5,0.3c1.3,0.1,2.5,0.2,3.8,0.2c1,0.1,2,0.1,3.1,0.2
				c1.4,0.1,2.8,0.1,4.2,0.2c0.6,0,1.3,0,1.9,0.1c2,0,3.9,0.1,5.9,0.1c2,0,4,0,6-0.1c0.4,0,0.9,0,1.3,0c1.7,0,3.5-0.1,5.2-0.2
				c0.8,0,1.6-0.1,2.4-0.1c1.1-0.1,2.1-0.1,3.2-0.2c1.6-0.1,3.1-0.2,4.7-0.4c0.4,0,0.9-0.1,1.3-0.1c73.7-6.7,138.8-44,182.4-99
				c0,0,0,0,0,0c0.2-0.3,0.5-0.6,0.7-0.9c1-1.3,2.1-2.7,3.1-4c0.4-0.5,0.7-1,1.1-1.5c1-1.4,2-2.7,3-4.1c0.3-0.4,0.6-0.9,0.9-1.3
				c1.1-1.5,2.2-3.1,3.2-4.7c0.2-0.3,0.3-0.5,0.5-0.8c1.3-1.9,2.5-3.8,3.7-5.7c0.9-1.4,1.8-2.8,2.6-4.2c0,0,0,0,0,0
				c2-3.3,4-6.7,5.9-10.2c0,0,0,0,0,0c0.1-0.2,0.2-0.5,0.4-0.7c0.4-0.8,0.8-1.5,1.2-2.3c0.4-0.8,0.9-1.7,1.3-2.5
				c0.4-0.8,0.8-1.6,1.2-2.4c0.4-0.8,0.8-1.7,1.3-2.6c0.7-1.3,1.3-2.7,1.9-4c0.4-0.9,0.8-1.8,1.3-2.7c0.4-0.9,0.8-1.8,1.2-2.8
				c0.3-0.7,0.6-1.4,0.9-2.1c0.4-1,0.8-1.9,1.2-2.9c0.3-0.6,0.5-1.3,0.8-1.9c0.4-1,0.8-2.1,1.3-3.1c0.2-0.4,0.3-0.8,0.5-1.2
				c0.9-2.4,1.8-4.8,2.7-7.2c0.1-0.3,0.2-0.6,0.3-0.9c0.4-1.2,0.8-2.4,1.2-3.6c0.2-0.5,0.3-0.9,0.5-1.4c0.4-1.2,0.8-2.5,1.2-3.7
				c0.1-0.4,0.2-0.7,0.3-1.1c1.3-4.3,2.5-8.6,3.6-12.9c0-0.1,0.1-0.3,0.1-0.4c0.3-1.4,0.7-2.8,1-4.2c0.1-0.3,0.1-0.6,0.2-0.9
				c0.3-1.4,0.6-2.8,0.9-4.2c0,0,0,0,0-0.1c0,0,0,0,0,0C685.9,461.2,687.9,442.9,687.9,424.2z M479.3,384.7c0,0,28.1-24.1,64.2-24.1
				c36.1,0,87.5,59.5,87.5,59.5s8,14.1,2.8,18.5c-6.4-2.4-53.8-65.5-91.1-65.5c-37.3,0-53,20.1-59,18.1
				C477.6,389.1,479.3,384.7,479.3,384.7z M401.7,473c0,0,19.3-12.9,43.4,0.5v14.9c0,0-26.5-14.4-43.4,0V473z M401.7,494.6
				c0,0,19.3-8.9,43.4,0.4v10.3c0,0-26.5-9.9-43.4,0V494.6z M368,384.7c0,0,1.6,4.4-4.4,6.4c-6,2-21.7-18.1-59-18.1
				c-37.3,0-84.7,63.1-91.1,65.5c-5.2-4.4,2.8-18.5,2.8-18.5s51.4-59.5,87.5-59.5S368,384.7,368,384.7z M174.1,457.7
				c-1.5-11-2.2-22.2-2.2-33.5c0-83.6,40.5-157.7,103-203.7c-46.7,63.2-45.2,147.3-45.2,147.3S203.9,403.3,174.1,457.7z M202.2,543
				c-0.1,0.3-0.2,0.6-0.3,0.9c-2.3-4.2-4.4-8.5-6.4-12.8v0c0,0,0,0,0,0c1.7-5.4,3.7-10.9,5.8-16.4c0,0,0,0,0,0
				c0.3-0.8,0.7-1.7,1-2.5c0-0.1,0.1-0.2,0.1-0.3c0.3-0.8,0.6-1.6,1-2.4c0.1-0.2,0.1-0.3,0.2-0.5c0.3-0.8,0.6-1.5,1-2.3
				c0.1-0.2,0.1-0.3,0.2-0.5c0.3-0.8,0.6-1.5,1-2.3c0.1-0.2,0.1-0.3,0.2-0.5c0.3-0.8,0.7-1.5,1-2.3c0.1-0.2,0.1-0.3,0.2-0.5
				c0.3-0.8,0.7-1.6,1.1-2.3c0-0.1,0.1-0.2,0.1-0.3c2.4-5.2,5-10.4,7.7-15.5c0.1-0.2,0.2-0.3,0.2-0.5c0.4-0.7,0.7-1.4,1.1-2
				c0.1-0.2,0.3-0.5,0.4-0.7c0.3-0.6,0.7-1.3,1.1-1.9c0.1-0.3,0.3-0.5,0.4-0.8c0.3-0.6,0.7-1.2,1-1.8c0.2-0.3,0.3-0.6,0.5-0.9
				c0.3-0.6,0.7-1.2,1-1.7c0.2-0.3,0.3-0.6,0.5-0.9c0.3-0.6,0.7-1.1,1-1.7c0.2-0.3,0.4-0.6,0.5-0.9c0.3-0.6,0.7-1.1,1.1-1.7
				c0.2-0.3,0.3-0.6,0.5-0.8c0.4-0.6,0.7-1.1,1.1-1.7c0.2-0.3,0.3-0.5,0.5-0.8c0.4-0.6,0.8-1.2,1.1-1.7c0.1-0.2,0.2-0.3,0.3-0.5
				c1.3-2,2.7-4,4.1-5.9c0.2-0.2,0.3-0.5,0.5-0.7c0.3-0.5,0.7-1,1-1.4c0.2-0.3,0.5-0.6,0.7-0.9c0.3-0.4,0.7-0.9,1-1.3
				c0.3-0.3,0.5-0.7,0.8-1c0.3-0.4,0.6-0.8,1-1.3c0.3-0.3,0.5-0.7,0.8-1c0.3-0.4,0.6-0.8,1-1.2c0.3-0.3,0.6-0.7,0.8-1
				c0.3-0.4,0.6-0.8,0.9-1.1c0.3-0.3,0.6-0.7,0.9-1c0.3-0.4,0.6-0.7,0.9-1.1c0.3-0.3,0.6-0.7,0.9-1c0.3-0.4,0.6-0.7,0.9-1.1
				c0.3-0.3,0.6-0.7,0.9-1c0.3-0.3,0.6-0.7,0.9-1c0.3-0.3,0.6-0.7,1-1c0.3-0.3,0.6-0.6,0.9-0.9c0.4-0.4,0.7-0.7,1.1-1.1
				c0.3-0.3,0.5-0.5,0.8-0.8c0.6-0.6,1.2-1.2,1.8-1.8c0.2-0.2,0.5-0.4,0.7-0.6c0.4-0.4,0.8-0.8,1.2-1.1c0.3-0.2,0.5-0.5,0.8-0.7
				c0.4-0.3,0.7-0.7,1.1-1c0.3-0.2,0.6-0.5,0.9-0.7c0.4-0.3,0.7-0.6,1.1-0.9c0.3-0.2,0.6-0.5,0.9-0.7c0.3-0.3,0.7-0.6,1.1-0.8
				c0.3-0.2,0.6-0.5,0.9-0.7c0.4-0.3,0.7-0.5,1.1-0.8c0.3-0.2,0.6-0.4,0.9-0.6c0.4-0.3,0.7-0.5,1.1-0.8c0.3-0.2,0.6-0.4,0.9-0.6
				c0.4-0.2,0.7-0.5,1.1-0.7c0.3-0.2,0.6-0.4,0.9-0.6c0.4-0.2,0.7-0.5,1.1-0.7c0.3-0.2,0.6-0.3,0.8-0.5c0.4-0.2,0.8-0.5,1.2-0.7
				c0.3-0.1,0.5-0.3,0.8-0.4c0.4-0.2,0.9-0.5,1.3-0.7c0.2-0.1,0.4-0.2,0.6-0.3c0.7-0.3,1.3-0.6,2-1c0.1,0,0.2-0.1,0.3-0.1
				c0.6-0.3,1.1-0.5,1.7-0.7c0.2-0.1,0.5-0.2,0.7-0.3c0.4-0.2,0.9-0.3,1.3-0.5c0.3-0.1,0.5-0.2,0.8-0.3c0.4-0.1,0.8-0.3,1.2-0.4
				c0.3-0.1,0.6-0.2,0.8-0.3c0.4-0.1,0.8-0.2,1.1-0.3c0.3-0.1,0.6-0.1,0.9-0.2c0.4-0.1,0.8-0.2,1.1-0.3c0.3-0.1,0.6-0.1,0.9-0.2
				c0.4-0.1,0.8-0.1,1.1-0.2c0.3,0,0.6-0.1,0.9-0.1c0.4-0.1,0.8-0.1,1.1-0.1c0.3,0,0.6-0.1,0.9-0.1c0.4,0,0.8-0.1,1.2-0.1
				c0.3,0,0.6,0,0.8-0.1c0.4,0,0.8,0,1.2,0c0.3,0,0.5,0,0.8,0c0.4,0,0.9,0,1.3,0c0.2,0,0.4,0,0.7,0c0.7,0,1.3,0.1,2,0.2
				c49.8,0,71.1,30.9,99.6,45.8l-1.6,15.3c-80.3,16.9-106.8-14.5-106.8-31.3c0-19.3,12-22.5,12-22.5
				C249.6,408,209.4,521.6,202.2,543z M301,528.1l-12.8-18.5c0,0,6.8,8.4,24.5,4c17.7-4.4,40.1-10.8,83.1,6.4v12.5
				c0,0-61,17.7-61,77.1l-8.4-21.3c0,0,3-26.9,40.6-55.8C366.9,532.6,357.6,509.3,301,528.1z M280.5,474.7l12.8,0.8
				c34.9,26.1,101.6,8.4,101.6,8.4l-0.4,13.7C297.8,508.5,280.5,474.7,280.5,474.7z M479.7,670.9l16.6-10.3h-74h-74l13.9,8.7
				c-53.6-13.6-100.4-44.4-134.2-86.1c24.8-3.9,56.3,8.1,56.3,8.1l35.5,60.5v-14.5l-40.3-74.1v-19.3l49,87.4l78.7-81.8
				c0,0,3.3-13.9,15.4-14.4c12,0.6,15.3,14.4,15.3,14.4l78.7,81.8l49-87.4v19.3l-40.3,74.1v14.5l35.5-60.5c0,0,34.4-13.2,59.6-7.4
				C585.2,627,536,658.4,479.7,670.9z M532.6,513.7c17.7,4.4,24.5-4,24.5-4l-12.8,18.5c-56.6-18.9-65.9,4.4-65.9,4.4
				c37.7,28.9,40.6,55.8,40.6,55.8l-8.4,21.3c0-59.5-61-77.1-61-77.1v-12.5C492.5,502.8,514.9,509.3,532.6,513.7z M450.3,484
				c0,0,66.6,17.7,101.6-8.4l12.8-0.8c0,0-17.3,33.7-114,22.9L450.3,484z M645,547.5L645,547.5c-0.2-0.7-0.4-1.4-0.6-2.1
				c-0.2-0.8-0.5-1.6-0.8-2.5c-7.2-21.5-47.4-135-97.9-122.9c0,0,12,3.2,12,22.5c0,16.9-26.5,48.2-106.8,31.3l-1.6-15.3
				c28.5-14.9,49.8-45.8,99.6-45.8c0.7-0.1,1.3-0.1,2-0.2c0.2,0,0.4,0,0.7,0c0.5,0,0.9,0,1.4,0c0.3,0,0.5,0,0.8,0c0.4,0,0.8,0,1.2,0
				c0.3,0,0.6,0,0.9,0.1c0.4,0,0.8,0.1,1.2,0.1c0.3,0,0.6,0.1,0.9,0.1c0.4,0,0.8,0.1,1.2,0.2c0.3,0,0.6,0.1,0.9,0.1
				c0.4,0.1,0.8,0.1,1.2,0.2c0.3,0.1,0.6,0.1,0.9,0.2c0.4,0.1,0.8,0.2,1.2,0.3c0.3,0.1,0.6,0.2,0.9,0.2c0.4,0.1,0.8,0.2,1.2,0.3
				c0.3,0.1,0.6,0.2,0.9,0.3c0.4,0.1,0.8,0.3,1.2,0.4c0.3,0.1,0.5,0.2,0.8,0.3c0.4,0.2,0.9,0.3,1.3,0.5c0.2,0.1,0.5,0.2,0.7,0.3
				c0.5,0.2,1.1,0.5,1.6,0.7c0.1,0.1,0.2,0.1,0.4,0.2c0.7,0.3,1.3,0.7,2,1c0.2,0.1,0.4,0.2,0.6,0.3c0.5,0.2,0.9,0.5,1.4,0.8
				c0.3,0.1,0.5,0.3,0.8,0.5c0.4,0.2,0.8,0.5,1.2,0.7c0.3,0.2,0.6,0.4,0.8,0.5c0.4,0.2,0.8,0.5,1.2,0.7c0.3,0.2,0.6,0.4,0.9,0.6
				c0.4,0.3,0.7,0.5,1.1,0.8c0.3,0.2,0.6,0.4,0.9,0.6c0.4,0.3,0.7,0.5,1.1,0.8c0.3,0.2,0.6,0.4,0.9,0.7c0.4,0.3,0.7,0.6,1.1,0.8
				c0.3,0.2,0.6,0.5,0.9,0.7c0.4,0.3,0.7,0.6,1.1,0.9c0.3,0.2,0.6,0.5,0.9,0.7c0.4,0.3,0.7,0.6,1.1,0.9c0.3,0.3,0.6,0.5,0.9,0.8
				c0.4,0.3,0.7,0.7,1.1,1c0.3,0.3,0.5,0.5,0.8,0.8c0.4,0.4,0.8,0.8,1.2,1.2c0.2,0.2,0.5,0.5,0.7,0.7c0.6,0.6,1.2,1.2,1.9,1.9
				c0.2,0.3,0.5,0.5,0.7,0.8c0.4,0.4,0.8,0.8,1.1,1.2c0.3,0.3,0.6,0.6,0.9,0.9c0.3,0.4,0.7,0.7,1,1.1c0.3,0.3,0.6,0.7,0.9,1
				c0.3,0.4,0.6,0.7,1,1.1c0.3,0.4,0.6,0.7,0.9,1.1c0.3,0.4,0.6,0.7,0.9,1.1c0.3,0.4,0.6,0.7,0.9,1.1c0.3,0.4,0.6,0.7,0.9,1.1
				c0.3,0.4,0.6,0.8,0.9,1.2c0.3,0.4,0.6,0.7,0.9,1.1c0.3,0.4,0.6,0.8,0.9,1.2c0.3,0.4,0.6,0.7,0.8,1.1c0.3,0.4,0.6,0.8,1,1.3
				c0.3,0.4,0.5,0.7,0.8,1.1c0.3,0.4,0.6,0.9,1,1.3c0.3,0.3,0.5,0.7,0.8,1.1c0.3,0.5,0.7,0.9,1,1.4c0.2,0.3,0.4,0.6,0.7,0.9
				c0.4,0.5,0.7,1,1.1,1.5c0,0.1,0.1,0.1,0.1,0.2c1,1.4,1.9,2.9,2.9,4.3c0.1,0.1,0.2,0.2,0.2,0.4c0.4,0.6,0.8,1.2,1.1,1.8
				c0.2,0.3,0.3,0.5,0.5,0.8c0.4,0.6,0.7,1.1,1.1,1.7c0.2,0.3,0.4,0.6,0.6,0.9c0.3,0.6,0.7,1.1,1,1.7c0.2,0.3,0.4,0.6,0.6,1
				c0.3,0.6,0.7,1.1,1,1.7c0.2,0.3,0.4,0.7,0.6,1c0.3,0.6,0.7,1.2,1,1.7c0.2,0.3,0.4,0.6,0.5,1c0.3,0.6,0.7,1.2,1,1.8
				c0.2,0.3,0.3,0.6,0.5,0.9c0.3,0.6,0.7,1.2,1,1.9c0.2,0.3,0.3,0.6,0.4,0.8c0.3,0.7,0.7,1.3,1,2c0.1,0.2,0.2,0.5,0.4,0.7
				c0.4,0.7,0.7,1.4,1.1,2.1c0.1,0.1,0.1,0.2,0.2,0.4c2.2,4.3,4.3,8.8,6.3,13.2c0.1,0.1,0.1,0.3,0.2,0.4c0.3,0.8,0.7,1.6,1,2.3
				c0.1,0.2,0.2,0.4,0.2,0.6c0.3,0.7,0.6,1.5,1,2.2c0.1,0.2,0.2,0.4,0.3,0.6c0.3,0.7,0.6,1.5,0.9,2.2c0.1,0.2,0.2,0.4,0.3,0.7
				c0.3,0.7,0.6,1.5,0.9,2.2c0.1,0.2,0.2,0.4,0.2,0.6c0.3,0.8,0.6,1.5,0.9,2.3c0.1,0.2,0.1,0.4,0.2,0.5c0.3,0.8,0.6,1.6,0.9,2.4
				c0,0.1,0.1,0.3,0.1,0.4c0.5,1.4,1,2.7,1.5,4.1c0.1,0.4,0.3,0.8,0.4,1.3c0.3,0.9,0.7,1.9,1,2.8c0.2,0.5,0.3,0.9,0.5,1.4
				c0.3,0.9,0.6,1.8,0.9,2.7c0.1,0.4,0.3,0.8,0.4,1.2c0.3,1,0.6,1.9,0.9,2.9c0,0,0,0.1,0,0.1C649.5,539.2,647.3,543.4,645,547.5z
				 M674.1,463.3c-31.1-57.6-58.7-95.5-58.7-95.5s1.7-89.6-49.8-153.3c67.3,45.4,111.5,122.4,111.5,209.7
				C677.1,437.5,676,450.6,674.1,463.3z"/>
			<g>
				<rect x="324.1" y="647.2" width="196.5" height="6.4"/>
				<polygon points="371.9,604.1 358.7,622.2 358.7,637.2 371.9,637.2 				"/>
				<polygon points="485.9,622.2 472.7,604.1 472.7,637.2 485.9,637.2 				"/>
				<polygon points="398.8,573.3 387.3,584.8 387.3,637.8 398.8,637.8 				"/>
				<polygon points="457.3,584.8 445.8,573.3 445.8,637.8 457.3,637.8 				"/>
				<rect x="414.2" y="564.3" width="16.3" height="73.5"/>
			</g>
		</g>
	</g>
	<g>
		<g>
			<path d="M710.6,428.8l-4.7,4.2l-0.5,9.7l-4.6-0.2l0.2-4.2l2.8,0.2l0.5-9.6l-5.9-0.3l-6,5.2l-0.7,12.5l5.4,6.1l21.4,1.2l6.3-5.4
				l0.7-12.5l-5.7-6.2L710.6,428.8z M716.2,443.3l-2.9-0.2l0.2-4.2l2.9,0.2L716.2,443.3z"/>
			<polygon points="715.8,407.6 715.9,410.6 700.9,411.1 700.8,408.5 692,408.8 692.6,424 701.4,423.7 701.3,421 725.6,420.2 
				725.3,411.1 721.3,407.4 			"/>
			<polygon points="712.3,466.3 713.8,466.5 713.4,468.8 691.1,454.4 689.6,464 713.3,479.2 720.7,480.3 723.9,459 713.7,457.4 			
				"/>
			<polygon points="707.8,490.7 709.2,491 708.6,493.3 687.6,477 685.4,486.5 707.7,503.6 715,505.3 719.9,484.4 709.9,482 			"/>
			<polygon points="706.8,364 710,363.4 710.3,364.6 695.1,367.6 694.7,365.3 686,367 688.8,381.2 697.5,379.5 697,377.2 
				712.2,374.3 712.4,375.4 709.2,376.1 710.8,384.2 722.7,381.8 717.2,353.7 705.2,356.1 			"/>
			<polygon points="700.2,352.9 703.1,347.8 700.1,337.9 702.9,337 704.1,341.1 702.4,341.6 705.3,351.1 710.5,349.5 714,342.9 
				710.1,330.3 702.9,326.6 693.9,329.4 690.9,334.9 693.8,344.3 689.4,345.6 688.2,341.6 690.8,340.8 687.8,331.3 682.2,333 
				678.5,340.2 682.3,352.5 689.4,356.2 			"/>
			<polygon points="682.1,318.7 680.1,319.5 678.4,315.7 681.9,314.2 684.9,321.4 692.7,318.1 689.6,310.9 692.6,309.6 694.2,313.5 
				692.6,314.1 696.5,323.3 706.3,319.1 695.9,294.8 687.7,298.4 688.6,300.5 674.5,306.5 673.6,304.4 665.5,307.9 675.9,332.2 
				686.1,327.8 			"/>
			<polygon points="674.9,274.8 676.5,277.3 684,272.4 676.8,261.5 670,266 670.4,266.7 666.2,267.2 668.3,263.4 668.8,264.3 
				675.7,259.8 668.5,248.8 661,253.6 662.6,256.1 656.3,267.8 653.2,269.8 652,267.9 644.6,272.8 652.5,284.8 659.9,280 658.6,278 
				661.7,276 			"/>
			<polygon points="644.7,257.4 656.4,247.4 657.9,249.1 664.6,243.3 657.2,234.7 645.7,236.8 649.6,225.8 642.2,217.1 635.4,222.9 
				637,224.7 625.3,234.7 623.8,232.9 617,238.7 626,249.1 632.7,243.3 631.2,241.6 637,236.6 634.7,243.3 637.6,246.6 644.6,245.5 
				638.8,250.4 637.2,248.6 630.5,254.4 639.5,264.9 646.2,259.1 			"/>
			<polygon points="615.1,222 613.6,223.7 610.5,220.9 613,218.1 618.8,223.4 624.4,217.2 618.6,211.9 620.8,209.5 623.9,212.3 
				622.8,213.6 630.1,220.2 637.2,212.4 617.7,194.6 611.8,201.2 613.4,202.8 603.1,214.2 601.4,212.6 595.5,219.2 615,236.9 
				622.4,228.7 			"/>
			<path d="M609.1,195.3l-1.1-8.2L591.3,175l-5.3,7.2l1.9,1.4l-9,12.4l-1.9-1.4l-5.2,7.2l16.7,12.1l8.1-1.4L609.1,195.3z
				 M599.3,191.8l-9,12.4l-3.3-2.4l9.1-12.4L599.3,191.8z"/>
			<path d="M571.7,191.2l5.3-24.9l-8.1-4.6l-18.8,17.3l-2.5-1.4l-4.4,7.7l11.7,6.6l4.1-7.3l-1.7-1l1.4-1.4l5.5,3.1l-0.5,1.9
				l-1.9-1.1l-4.1,7.3l12.1,6.8l4.4-7.7L571.7,191.2z M563.9,177.3l2.7-2.4l-0.8,3.5L563.9,177.3z"/>
			<polygon points="546.3,171.9 537.2,168 535.3,172.4 531.3,170.8 537.4,156.5 541.3,158.2 539.7,161.9 548.8,165.8 551.5,159.5 
				548.7,151.7 537.1,146.8 529.5,149.7 521.1,169.5 524.1,177.3 535.2,182 543.2,178.9 			"/>
			<path d="M516.1,139.3l-8.9-2.7l-14.5,21l-2.8-0.8l-2.5,8.5l12.9,3.9l2.4-8l-1.9-0.6l1.1-1.6l6.1,1.8l0,2l-2-0.6l-2.4,8l13.3,4
				l2.5-8.5l-2.8-0.8L516.1,139.3z M505.7,152.8l2.1-3v3.6L505.7,152.8z"/>
			<polygon points="453.7,126.5 447.2,131.8 444.7,152.8 449.9,159.4 468,161.5 470.3,142 458.8,140.7 457.9,148.6 459.5,148.8 
				459.2,151.6 455,151.1 456.7,135.8 460.9,136.3 460.6,138.9 470.5,140 471.2,134.3 465.8,127.9 			"/>
			<polygon points="428.6,133.5 431,133.6 431,140.1 423.1,125.2 411,125.1 411,134 413.4,134.1 413.3,149.4 410.9,149.4 
				410.9,158.3 424.3,158.3 424.3,149.8 421.5,149.8 421.6,141.7 430.6,158.3 439.4,158.4 439.4,134.1 441.7,134.1 441.7,125.2 
				428.7,125.2 			"/>
			<polygon points="404.8,150.2 403.4,134.9 405.7,134.7 404.9,125.8 390.4,127.1 391.2,136 393.5,135.8 395,151.1 392.6,151.3 
				393.4,160.1 407.9,158.8 407.1,150 			"/>
			<polygon points="386.4,136.3 384.7,127.6 371.9,130 373.4,138.2 375.8,137.7 377,144.2 366.4,131 354.6,133.3 356.2,142 
				358.6,141.6 361.4,156.7 359.1,157.1 360.8,165.8 373.9,163.3 372.3,155 369.6,155.5 368.1,147.6 380.2,162.1 388.7,160.5 
				384.2,136.7 			"/>
			<polygon points="353.3,159 349,144.2 351.2,143.6 348.8,135.1 334.8,139.1 337.2,147.7 339.5,147 343.8,161.8 341.5,162.5 
				344,170.9 358,166.9 355.5,158.4 			"/>
			<path d="M335.6,164.1l-16.1-19.7l-8.6,3.5l1.8,25.5l-2.8,1.1l3.3,8.2l12.5-5l-3.1-7.7l-1.9,0.7l-0.2-1.9l5.9-2.4l1.2,1.6l-2,0.8
				l3.1,7.7l12.9-5.2l-3.3-8.2L335.6,164.1z M319.8,161.4l-0.2-3.6l2.2,2.8L319.8,161.4z"/>
			<path d="M304.8,176.9l-5.4-4.2l1.5-4.2l-4.4-8.3l-7.8-2.3l-17.9,9.6l4.2,7.9l2-1.1l7.3,13.5l-2,1.1l4.2,7.8l12.2-6.6l-3.9-7.2
				l-1.4,0.8l-2-3.7l1.5-0.8l3.9,2.7l-0.8,0.4l3.9,7.2l11.8-6.3l-4.2-7.8L304.8,176.9z M285.8,169.7l3.4-1.8l1.5,2.8l-3.4,1.8
				L285.8,169.7z"/>
			<polygon points="271.8,196.1 263,183.4 264,182.7 265.8,185.4 272.6,180.7 265.7,170.7 242.2,187 249.1,197 255.8,192.4 
				253.9,189.7 254.9,189 263.7,201.7 261.7,203 266.8,210.3 278.7,202 273.7,194.8 			"/>
			<path d="M238.3,222.1l-6.4-2.4l0.2-4.5l-6.6-6.6l-8.1,0L203,223l6.3,6.3l1.6-1.6l10.9,10.9l-1.6,1.6l6.3,6.3l9.8-9.8l-5.8-5.8
				l-1.1,1.1l-3-3l1.2-1.2l4.5,1.5l-0.7,0.7l5.8,5.8l9.4-9.4l-6.3-6.2L238.3,222.1z M218,220.6l2.7-2.7l2.2,2.2l-2.7,2.7L218,220.6z
				"/>
			<path d="M216.1,245l-23.8-9.1l-5.8,7.3l14.2,21.2l-1.8,2.3l7,5.5l8.3-10.5l-6.5-5.2l-1.2,1.6l-1.1-1.6l3.9-5l1.8,0.8l-1.3,1.7
				l6.6,5.1l8.6-10.9l-7-5.5L216.1,245z M201.1,250.6l-2-3l3.3,1.3L201.1,250.6z"/>
			<polygon points="192.6,277 179.5,269 180.1,267.9 182.9,269.6 187.2,262.6 176.8,256.2 161.9,280.6 172.2,287 176.5,280.1 
				173.7,278.4 174.3,277.4 187.5,285.4 186.2,287.4 193.7,292 201.3,279.7 193.8,275 			"/>
			<polygon points="173.8,292.8 168.1,294.6 163.7,304 161,302.7 162.9,298.8 164.5,299.6 168.8,290.6 163.9,288.4 156.8,290.8 
				151.2,302.7 153.9,310.3 162.4,314.3 168.4,312.4 172.7,303.5 176.7,305.4 174.9,309.3 172.4,308.1 168.2,317.1 173.5,319.6 
				181.1,316.9 186.6,305.2 183.9,297.6 			"/>
			<path d="M148.8,430.4l8.8,0.3l0.5-13.5l-8.3-0.3l-0.1,2.1l-1.9-0.6l0.2-6.3l1.9-0.5l-0.1,2.1l8.3,0.3l0.5-13.9l-8.9-0.3l-0.1,2.9
				l-24.6,6.6l-0.4,9.3l24,8.8L148.8,430.4z M141.1,413.8L141,416l-3.4-1.3L141.1,413.8z"/>
			<polygon points="162.5,340.5 147.6,336.4 148.1,334.5 139.5,332.2 136,344.8 144,347 144.3,345.8 147.7,346.7 146.6,350.7 
				143.2,349.8 143.5,348.6 135.6,346.4 132,359.4 140.6,361.8 141.2,359.5 156,363.6 155.4,365.9 163.9,368.3 167.5,355.2 
				159.5,353 159.1,354.2 155.3,353.1 156.4,349.1 160.3,350.2 159.9,351.4 168,353.6 171.5,341 163,338.6 			"/>
			<polygon points="139.6,387.4 136.3,386.9 136.5,385.7 151.8,388.1 151.4,390.4 160.1,391.8 162.3,377.4 153.6,376.1 153.3,378.3 
				138.1,375.9 138.2,374.8 141.4,375.3 142.7,367.1 130.7,365.3 126.3,393.5 138.3,395.4 			"/>
			<path d="M154.4,463.3l-20.8,4l-4.8,6.7l3.9,20.3l8.7-1.7l-0.5-2.3l15.1-2.9l0.4,2.3l8.7-1.6l-3.8-20.3L154.4,463.3z M138.3,476.4
				l15.1-2.9l0.8,4.1l-15.1,2.9L138.3,476.4z"/>
			<polygon points="135.5,458.7 150.9,457.6 151,459.8 159.9,459.2 157.8,432.8 146.8,433.7 147.5,443.6 149.8,443.4 150.1,447.6 
				146.4,447.9 145.8,440.1 137.3,440.8 137.9,448.5 134.8,448.8 134.4,444.6 136.1,444.5 135.4,434.6 124.8,435.4 126.8,461.7 
				135.7,461 			"/>
		</g>
		<g>
			<polygon points="533.3,704.9 547.1,699.6 544,691.4 540.5,692.7 531.4,687.7 534.7,678.4 538.1,677.2 534.9,668.8 521.7,673.8 
				524.6,681.3 525.4,681 524.3,684.2 521.4,682.5 522.3,682.2 519.4,674.7 505.9,679.9 509.1,688.2 512.2,687.1 521,691.7 
				517.4,701.6 514.3,702.8 517.5,711 531,705.8 528.2,698.5 526.9,698.9 528.1,695.3 531.6,697.2 530.5,697.6 			"/>
			<polygon points="507.4,704.7 499,698.7 503.4,689.8 506.9,688.9 504.7,680.3 491.1,683.7 493,691.4 493.8,691.2 492.4,694.3 
				489.7,692.3 490.6,692 488.7,684.3 474.7,687.8 476.8,696.5 480.1,695.7 488.2,701.4 483.5,710.7 480.2,711.5 482.4,720.1 
				496.5,716.5 494.6,708.9 493.2,709.2 494.9,705.8 498,708 496.9,708.3 498.8,716 513.2,712.4 511,703.8 			"/>
			<polygon points="473.1,712.6 465.5,705.6 470.9,697.3 474.5,696.9 473.4,688.1 459.5,689.8 460.4,697.7 461.2,697.6 459.5,700.4 
				457,698.1 458,698 457,690.1 442.7,691.9 443.8,700.7 447.1,700.3 454.5,707 448.6,715.6 445.3,716.1 446.4,724.8 460.8,723 
				459.8,715.2 458.5,715.4 460.5,712.2 463.4,714.8 462.2,714.9 463.2,722.7 477.9,720.9 476.8,712.1 			"/>
			<polygon points="431.8,711.1 431.9,716.2 427.6,716.3 427.5,700.9 430.6,700.9 430.5,691.9 415.1,692.1 415.2,701 417.6,701 
				417.7,716.4 415.4,716.4 415.5,725.3 441.9,725 441.7,711 			"/>
			<polygon points="395.3,700.5 390.6,689.8 379.3,688.5 378.3,697.4 380.7,697.6 379,712.9 376.6,712.6 375.7,721.5 389.4,723 
				390.3,714.2 388,713.9 388.8,706.3 391.8,712.7 396.1,713.2 400.4,707.5 399.6,715.2 397.2,714.9 396.3,723.7 410,725.2 
				411,716.4 408.7,716.2 410.4,700.9 412.6,701.1 413.6,692.3 402.3,691 			"/>
			<polygon points="374.8,700.5 376.4,693.8 372.2,686.7 359.9,683.8 353,688.1 348.2,709 352.5,716.1 364.2,718.8 371.7,714.4 
				373.4,706.9 363.7,704.7 362.6,709.4 358.5,708.4 361.9,693.4 366.1,694.4 365.2,698.3 			"/>
			<polygon points="349.6,690.8 352.6,682.4 341.8,678.6 332.8,686.2 330.7,674.7 320,670.9 317,679.3 319.2,680.1 314.1,694.6 
				311.9,693.8 308.9,702.1 321.9,706.7 324.9,698.4 322.7,697.6 325.2,690.3 326.6,697.3 330.7,698.8 336.2,694.2 333.7,701.5 
				331.4,700.7 328.5,709 341.5,713.6 344.5,705.3 342.3,704.5 347.4,690 			"/>
		</g>
	</g>
</g>
</svg>
