<?xml version="1.0" encoding="utf-8"?>
<!-- Generator: Adobe Illustrator 26.3.1, SVG Export Plug-In . SVG Version: 6.00 Build 0)  -->
<svg version="1.1" id="katman_1" xmlns="http://www.w3.org/2000/svg" xmlns:xlink="http://www.w3.org/1999/xlink" x="0px" y="0px"
	 viewBox="0 0 850.4 850.4" style="enable-background:new 0 0 850.4 850.4;" xml:space="preserve">
<g>
	<path d="M113.7,425.3c0-58.2,0.1-116.5-0.1-174.7c0-4.5,1.5-6.8,5.3-9c100.6-58.2,201.1-116.4,301.5-174.8c3.7-2.2,6.3-2.1,9.9,0.1
		c100.4,58.4,200.9,116.6,301.5,174.8c3.7,2.1,5,4.4,5,8.7c-0.1,116.7-0.1,233.3,0,350c0,4-1.3,6.2-4.7,8.2
		c-100.9,58.3-201.7,116.8-302.5,175.3c-3.1,1.8-5.2,2-8.4,0.1c-100.9-58.6-201.9-117.2-302.9-175.6c-3.6-2.1-4.6-4.3-4.6-8.3
		C113.8,541.8,113.7,483.5,113.7,425.3z M137.9,424.9c0,53.4,0,106.9-0.1,160.3c0,4,1.1,6.2,4.6,8.2
		c92.8,53.5,185.6,107.1,278.4,160.7c3.1,1.8,5.3,2,8.5,0.1c92.9-53.8,185.8-107.4,278.8-161c3.2-1.8,4.2-3.9,4.2-7.4
		c-0.1-107.3-0.1-214.5,0-321.8c0-3.5-1-5.6-4.2-7.4c-93-53.6-186-107.3-278.8-161c-3.2-1.8-5.3-1.7-8.4,0
		c-92.7,53.7-185.5,107.3-278.4,160.7c-3.5,2-4.8,4.1-4.8,8.2C138,318,137.9,371.4,137.9,424.9z"/>
	<path d="M158.9,425.1c0-49.6,0-99.2-0.1-148.7c0-3.9,0.9-6.2,4.5-8.2c85.9-49.6,171.8-99.4,257.6-149.2c3.4-1.9,5.7-1.8,8.9,0.1
		c85.8,49.8,171.7,99.6,257.6,149.2c3.4,1.9,4.4,4.1,4.4,7.8c-0.1,99.3-0.1,198.7,0,298c0,4.1-1.4,6.2-4.8,8.2
		c-85.8,49.6-171.5,99.2-257.1,148.9c-3.2,1.9-5.6,2.1-8.9,0.1c-85.8-49.8-171.7-99.6-257.6-149.2c-3.6-2.1-4.6-4.3-4.5-8.3
		C158.9,524.3,158.9,474.7,158.9,425.1z M425.1,188c-131.3,0.5-236.9,106.4-236.6,237.2c0.3,131,106.5,237.1,237.1,236.7
		c130.9-0.4,236.8-106.7,236.4-237.5C661.6,293.7,555.2,187.5,425.1,188z"/>
	<path d="M314.7,498.3c-27.6,13.3-55.1,26.6-82.6,39.9c-7.5-8.5-22.2-43.5-23.6-56.6c28.6-10,57.3-20,86-30
		c-0.1-0.4-0.1-0.7-0.2-1.1c-30.2,1.7-60.4,3.4-91.4,5.2c-3.2-20.6-2.8-40.8-0.2-61.5c31.2,1.8,61.9,3.6,92.6,5.4
		c0.1-0.3,0.2-0.6,0.3-0.9c-29-10.1-58.1-20.3-87.6-30.6c5.1-20.2,13-38.6,23.5-56.7c27.9,13.5,55.6,26.8,83.3,40.2
		c0.2-0.3,0.4-0.5,0.5-0.8c-22.8-20.4-45.7-40.8-68.5-61.1c5.3-10.2,28.3-33.5,43.1-43.6c20.1,22.5,40.3,45.1,60.4,67.8
		c0.4-0.2,0.7-0.5,1.1-0.7c-13.1-27.2-26.2-54.4-39.5-82c17.8-10.6,36.4-18.2,56.7-23.5c10.1,29,20.2,57.8,30.2,86.7
		c0.3-0.1,0.6-0.2,0.9-0.2c-0.8-15.2-1.7-30.5-2.5-45.7c-0.8-14-1.6-28-2.6-41.9c-0.2-2.5,0-4.5,3.1-4.5c18.7,0.1,37.5,0.1,56.2,0.2
		c0.5,0,1,0.5,1.8,0.9c-1.7,30.4-3.5,60.8-5.2,91.3c0.3,0.1,0.7,0.2,1,0.3c10.1-28.9,20.1-57.7,30.3-87
		c20.1,5.1,38.6,12.9,56.7,23.4c-13.4,27.9-26.8,55.5-40.1,83.1c0.3,0.2,0.5,0.4,0.8,0.6c20.4-22.9,40.8-45.8,61.5-68.9
		c16.5,12.5,30.7,26.8,43.4,43.4c-23,20.5-45.7,40.8-68.4,61.1c0.2,0.3,0.4,0.6,0.6,1c27.4-13.2,54.8-26.5,82.5-39.9
		c10.5,17.9,18.3,36.4,23.5,56.7c-29.4,10.3-58.4,20.4-87.5,30.5c0.1,0.3,0.2,0.6,0.2,0.9c30.6-1.8,61.2-3.5,92.4-5.3
		c2.9,20.4,2.9,40.5,0.1,61.3c-30.5-1.7-60.6-3.4-90.7-5.2c-0.1,0.4-0.2,0.8-0.4,1.3c28.4,9.9,56.8,19.8,85.8,30
		c-4.9,20.1-12.9,38.6-23.3,56.8c-27.5-13.3-54.7-26.4-81.8-39.5c-0.2,0.4-0.5,0.8-0.7,1.2c22.5,20.1,45,40.1,67.7,60.4
		c-12.4,16.5-26.6,30.7-43.3,43.5c-20.4-22.9-40.7-45.6-61-68.4c-0.3,0.2-0.7,0.4-1,0.6c13.2,27.4,26.4,54.8,39.6,82.1
		c-9.9,7.9-43.1,21.8-56.6,23.6c-10.1-28.9-20.2-58-30.4-87.1c-0.4,0-0.7,0.1-1.1,0.1c1.8,30.6,3.5,61.3,5.2,91.8
		c-9.7,3.8-49.8,4-61.3,0.2c1.8-30.5,3.5-61.2,5.3-91.8c-0.3-0.1-0.6-0.2-0.9-0.2c-10.1,29-20.3,58.1-30.5,87.4
		c-20.2-5.1-38.7-12.9-56.7-23.5c13.3-27.7,26.5-55,39.8-82.4c-0.4-0.2-0.7-0.4-1.1-0.7c-20.2,22.6-40.3,45.2-60.8,68.2
		c-16.6-12.5-30.9-26.9-43.4-43.4c23.2-20.7,46.1-41.1,69-61.5C315,498.9,314.9,498.6,314.7,498.3z"/>
</g>
</svg>
