<?xml version="1.0" encoding="utf-8"?>
<!-- Generator: Adobe Illustrator 26.3.1, SVG Export Plug-In . SVG Version: 6.00 Build 0)  -->
<svg version="1.1" id="katman_1" xmlns="http://www.w3.org/2000/svg" xmlns:xlink="http://www.w3.org/1999/xlink" x="0px" y="0px"
	 viewBox="0 0 850.4 850.4" style="enable-background:new 0 0 850.4 850.4;" xml:space="preserve">
<g>
	<path d="M8.1,584.7c15.3-11.5,29.3-19.9,42-25.1c12.7-5.3,29.3-9.6,49.9-12.9c20.6-3.3,51-5.6,91.2-6.8c40.2-1.2,72.6-3,97-5.4
		c27.3-12,48.6-24.5,63.9-37.7c15.3-13.2,26.8-25.3,34.5-36.3c7.7-11,14.7-23.6,21.2-37.7c6.5-14.1,9.8-29.7,10.1-46.7
		c0.2-17,0.8-28.3,1.8-33.8c1-5.5,2.2-9.5,3.6-11.9c1.4-2.4,3.2-2.3,5.4,0.4c2.2,2.6,3.7,9.3,4.7,20.1c1,10.8,1.8,21.8,2.5,33.1
		c0.7,11.3,3.3,24.1,7.9,38.4c4.5,14.4,11.2,27.2,20.1,38.4c8.9,11.3,20.5,23.4,34.8,36.3c14.4,12.9,24.5,21.2,30.5,24.8
		c6,3.6,18.6,9,37.7,16.2c50.3,1.4,91,3.2,122.1,5.4c31.1,2.2,57.2,5.6,78.3,10.4c21.1,4.8,37,9.8,47.8,15.1
		c10.8,5.3,17.8,10.2,21.2,14.7c3.3,4.6,5.3,6.8,5.7,6.8c-4.3,9.6-10.7,20.4-19,32.3c-8.4,12-20.2,25.9-35.6,41.7
		c-24-18.7-43.6-31.6-58.9-38.8c-15.3-7.2-30.4-12.4-45.3-15.8c-14.9-3.3-28.4-5.4-40.6-6.1c-12.2-0.7-22-1.1-29.5-1.1
		c-7.4,0-17,0.7-28.7,2.2c-11.7,1.4-25.3,4.3-40.6,8.6c-15.3,4.3-28.6,10.4-39.9,18.3c-11.3,7.9-26.2,20.5-44.9,37.7
		c-16.3,1.4-30.1,2.2-41.3,2.2c-11.3,0-21.9-0.7-32-2.2c-9.6-15.3-18.9-26-28-32c-9.1-6-20-12.1-32.7-18.3
		c-12.7-6.2-25.8-10.8-39.2-13.7c-13.4-2.9-25.4-4.5-35.9-5c-10.5-0.5-21.4-0.2-32.7,0.7c-11.3,1-26.2,3.2-44.9,6.8
		c-18.7,3.6-36.3,8.6-52.8,15.1c-16.5,6.5-36.8,19-60.7,37.7C41.4,637.8,24.4,612.4,8.1,584.7z M371,310.2l-3.6,112.1
		c-17.2,12.9-29.6,22.3-37,28c-7.4,5.7-14.9,15.1-22.3,28c-7.4,12.9-12.1,23.5-14,31.6c-1.9,8.2-2.4,12.2-1.4,12.2
		c-13.4,3.8-25.6,5.7-36.6,5.7c-11,0-21-1.1-29.8-3.2c-8.9-2.2-18.1-4-27.7-5.4c-9.6-1.4-14.1-2.2-13.7-2.2
		c3.8-24.4,9.3-48.1,16.5-71.1c19.6,8.2,33.2,12.2,40.6,12.2c7.4,0,12.9-1.3,16.5-4c3.6-2.6,5.4-6.7,5.4-12.2c0-5.5-3-12.3-9-20.5
		c-6-8.1-13.8-15.6-23.4-22.3l46.7-46.7c17.2,15.3,29.6,24.3,37,26.9c7.4,2.6,12.9,3.1,16.5,1.4c3.6-1.7,6.1-5.4,7.5-11.1
		c1.4-5.7,1.3-12-0.4-18.7c-1.7-6.7-4.9-16.3-9.7-28.7L371,310.2z M475.8,780.1c-15.3,3.8-32.1,5.5-50.3,5
		c-18.2-0.5-34.7-1.7-49.6-3.6c-3.4-20.1-6.6-33.9-9.7-41.3c-3.1-7.4-8.1-16.2-15.1-26.2c-6.9-10.1-14.5-18.9-22.6-26.6
		c-8.2-7.7-17.6-14.7-28.4-21.2c-10.8-6.5-19.8-10.4-26.9-11.9c-22-1.4-45.7-1-71.1,1.4l-9.3-46.7c23.9-1,45.5-1,64.7,0
		c19.2,1,38.8,5.5,58.9,13.7c6.7,8.6,15.8,17.7,27.3,27.3c11.5,9.6,21.2,15.8,29.1,18.7c7.9,2.9,16.8,5.4,26.6,7.5
		c9.8,2.2,20.4,3.1,31.6,2.9c11.2-0.2,22.9-2.2,34.8-5.7c12-3.6,23.2-9.1,33.8-16.5c10.5-7.4,18.6-14.1,24.1-20.1
		c5.5-6,9.2-11.1,11.1-15.4c13.4-2.9,24.7-5.1,33.8-6.8c9.1-1.7,18-2.9,26.6-3.6c8.6-0.7,29.9-1.1,63.9-1.1l-12.2,51
		c-12.5-3.3-23.4-5-32.7-5c-9.3,0-18.6,0-27.7,0c-9.1,0-18,2.3-26.6,6.8c-8.6,4.6-18.9,11.9-30.9,21.9c-12,10.1-22.6,22.6-32,37.7
		C487.7,737.3,480.6,756.6,475.8,780.1z M393.2,488.7c-10.5,5.5-18.7,13.5-24.4,24.1c-5.7,10.5-8.6,21.6-8.6,33.1
		c0,11,2.9,21.7,8.6,32c5.7,10.3,13.8,18.3,24.1,24.1c10.3,5.7,21.2,8.6,32.7,8.6c11,0,21.7-2.9,32-8.6
		c10.3-5.7,18.3-13.8,24.1-24.1c5.7-10.3,8.6-20.9,8.6-32c0-11.5-2.9-22.5-8.6-33.1c-5.7-10.5-13.9-18.6-24.4-24.1
		c-10.5-5.5-21.1-8.3-31.6-8.3C414.5,480.5,403.8,483.2,393.2,488.7z M425.6,492c9.1,0,18,2.3,26.6,6.8c8.6,4.6,15.3,11.1,20.1,19.8
		c4.8,8.6,7.2,17.7,7.2,27.3c0,9.1-2.4,18-7.2,26.6c-4.8,8.6-11.4,15.2-19.8,19.8c-8.4,4.6-17.4,6.8-26.9,6.8
		c-9.1,0-18-2.3-26.6-6.8c-8.6-4.5-15.2-11.1-19.8-19.8c-4.6-8.6-6.8-17.5-6.8-26.6c0-9.6,2.4-18.7,7.2-27.3
		c4.8-8.6,11.4-15.2,19.8-19.8C407.7,494.3,416.5,492,425.6,492z M416.2,65.2h18.7v47.4c9.6,23.5,16.3,46.8,20.1,70.1
		c3.8,23.2,7.4,52.9,10.8,89.1c3.3,36.2,6.9,96.4,10.8,180.7c-10.1-8.1-18-19-23.7-32.7c-5.7-13.7-9.8-43-12.2-88
		c-1.4-7.7-4-12.6-7.5-14.7c-3.6-2.2-7.3-2.4-11.1-0.7c-3.8,1.7-6.9,6.8-9.3,15.4c-3.8,44.1-6.7,69-8.6,74.7
		c-1.9,5.7-5.3,12.9-10.1,21.6c-4.8,8.6-11.7,17.7-20.8,27.3c5.7-103,10.5-172.2,14.4-207.6c3.8-35.4,7.5-61.3,11.1-77.6
		c3.6-16.3,9.5-35.4,17.6-57.5V65.2z M405.1,507.8c-6.9,3.8-12.5,9.3-16.5,16.5c-4.1,7.2-6.1,14.6-6.1,22.3c0,7.7,1.9,15,5.7,21.9
		c3.8,6.9,9.3,12.3,16.5,16.2c7.2,3.8,14.6,5.7,22.3,5.7c7.7,0,15-1.9,21.9-5.7c6.9-3.8,12.3-9.2,16.2-16.2
		c3.8-6.9,5.7-14.2,5.7-21.9c0-7.7-1.9-15.1-5.7-22.3c-3.8-7.2-9.3-12.7-16.5-16.5c-7.2-3.8-14.4-5.7-21.6-5.7
		C419.3,502,412,504,405.1,507.8z M523.3,324.6c-6.7,10.5-10.7,20-11.9,28.4c-1.2,8.4-0.6,15.1,1.8,20.1c2.4,5,6,8.3,10.8,9.7
		c4.8,1.4,10.9-0.2,18.3-5c7.4-4.8,17.1-13.4,29.1-25.9l48.1,48.9c-1,0-4.1,2.8-9.3,8.3c-5.3,5.5-10.4,11.1-15.4,16.9
		c-5,5.7-7.7,11.4-7.9,16.9c-0.2,5.5,1.8,9.6,6.1,12.2c4.3,2.6,10.7,3.8,19,3.6c8.4-0.2,20.2-3.5,35.6-9.7l16.5,73.3
		c-5.3,0.5-10.2,1.2-14.7,2.2c-4.6,1-8.7,2.2-12.6,3.6c-3.8,1.4-15,2.2-33.4,2.2c-18.4,0-33.7-2.9-45.6-8.6
		c-4.3-18.2-9.2-32.2-14.7-42c-5.5-9.8-12.7-19.3-21.6-28.4c-8.9-9.1-21.4-17.7-37.7-25.9l-2.9-115L523.3,324.6z"/>
</g>
</svg>
