<?xml version="1.0" encoding="utf-8"?>
<!-- Generator: Adobe Illustrator 26.3.1, SVG Export Plug-In . SVG Version: 6.00 Build 0)  -->
<svg version="1.1" id="katman_1" xmlns="http://www.w3.org/2000/svg" xmlns:xlink="http://www.w3.org/1999/xlink" x="0px" y="0px"
	 viewBox="0 0 850.4 850.4" style="enable-background:new 0 0 850.4 850.4;" xml:space="preserve">
<g>
	<path d="M425.2,65.2c60.1,0,118.9,15.5,176.6,46.4c57.7,30.9,102.7,75.2,135.2,132.9s48.7,118,48.7,181.1
		c0,62.5-15.9,122.3-47.8,179.3c-31.8,57.1-76.3,101.4-133.4,132.9c-57.1,31.5-116.9,47.3-179.3,47.3c-62.5,0-122.4-15.8-179.8-47.3
		C188,706.3,143.6,662.1,112.1,605c-31.5-57.1-47.3-116.8-47.3-179.3c0-63.1,16.1-123.5,48.2-181.1c32.1-57.7,76.9-102,134.3-132.9
		C304.6,80.7,363.9,65.2,425.2,65.2z M167.5,560.4c-4.8-9.3-10.1-21.2-15.8-35.6c-5.7-14.4-10.1-32.7-13.1-55h-37.8
		c6,24,11.9,43.7,17.6,59c5.7,15.3,11.4,29,17.1,41c5.7,12,14.6,27.3,26.6,46l27-22.5C179.5,580.6,172.3,569.7,167.5,560.4z
		 M102.6,373.4h37.8c3-24,7.2-42.9,12.6-56.8c5.4-13.8,11.6-26.4,18.5-37.8c6.9-11.4,13.4-20.7,19.4-27.9L163,224.7
		c-15,24.6-25.2,43-30.6,55c-5.4,12-10.7,25.1-15.8,39.2C111.5,333,106.8,351.2,102.6,373.4z M395.5,306.7
		c-12.6,2.4-25.5,8.1-38.7,17.1L263,231L230.6,268l91.9,91.9c-6.6,13.8-10.8,26.7-12.6,38.7H178.3V450h131.6
		c3,15,7.8,27.3,14.4,36.9l-90.1,91l31.5,34.2l91-89.2c12,5.4,24.9,11.4,38.7,18v125.3h47.8V541.9c16.2-3.6,31.2-9,45.1-16.2
		l88.3,89.2l33.3-36l-87.4-86.5c9-12.6,17.1-27.3,24.3-44.2l124.4,0.9v-47.8H545c-4.2-18.6-10.2-34.8-18-48.7l86.5-87.4L580.2,231
		l-88.3,89.2c-15.6-7.8-31.5-13.5-47.8-17.1V173.3h-48.7V306.7z M378.3,132.8V94c-25.8,6-44.6,11.3-56.3,15.8
		c-11.7,4.5-27.2,11.4-46.4,20.7c-19.2,9.3-35.1,18.8-47.8,28.4l25.2,28.8c18.6-12,33.3-20.9,44.2-26.6
		c10.8-5.7,21.3-10.7,31.5-14.9C339,142.1,355.5,137.6,378.3,132.8z M327,700.5c-10.2-3.6-20.6-8.3-31.1-14
		c-10.5-5.7-23.9-14.3-40.1-25.7l-27,23.4c18,12.6,36.3,23.6,55,32.9c18.6,9.3,49.9,20,93.7,32v-36.9C354,708,337.2,704.1,327,700.5
		z M463.9,94v37.8c26.4,4.2,44.9,7.8,55.4,10.8c10.5,3,21.5,7.4,32.9,13.1c11.4,5.7,26.1,16.4,44.2,32l26.1-28.8
		c-23.4-19.2-40.7-31.5-51.8-36.9c-11.1-5.4-24-10.5-38.7-15.3C517.3,101.8,494.6,97.6,463.9,94z M566.2,683.8
		c-12.3,6.3-24.6,11.9-36.9,16.7c-12.3,4.8-32.6,9.6-60.8,14.4v35.1c21-2.4,41-6.4,59.9-12.2c18.9-5.7,35.3-12,49.1-18.9
		c13.8-6.9,30-16.4,48.7-28.4l-27-27.9C589.5,670.5,578.5,677.5,566.2,683.8z M696.4,225.6l-31.5,21.6c10.2,15,18.3,27.8,24.3,38.3
		c6,10.5,11,20.7,14.9,30.6c3.9,9.9,8.9,29.9,14.9,59.9h38.7c-3.6-21.6-7.7-39.5-12.2-53.6c-4.5-14.1-10.4-28.8-17.6-44.2
		C720.8,263,710.2,245.4,696.4,225.6z M756.8,466.2H719c-4.2,29.4-8.6,49.4-13.1,59.9c-4.5,10.5-9.6,21.3-15.3,32.4
		c-5.7,11.1-14.3,25.1-25.7,41.9l29.7,22.5c15.6-23.4,26.6-42,32.9-55.9c6.3-13.8,12.2-28.8,17.6-45.1
		C750.5,505.8,754.4,487.2,756.8,466.2z"/>
</g>
</svg>
