<?xml version="1.0" encoding="utf-8"?>
<!-- Generator: Adobe Illustrator 26.3.1, SVG Export Plug-In . SVG Version: 6.00 Build 0)  -->
<svg version="1.1" id="katman_1" xmlns="http://www.w3.org/2000/svg" xmlns:xlink="http://www.w3.org/1999/xlink" x="0px" y="0px"
	 viewBox="0 0 850.4 850.4" style="enable-background:new 0 0 850.4 850.4;" xml:space="preserve">
<g>
	<path d="M601.2,322.8c-4.1,14.8-8.9,29.1-12.1,43.8c-7.5,34.1-6,68.3,0.6,102.4c11,56.6,35.8,107.6,63.3,157.8
		c33.6,61.3,78.6,112.5,133.6,155.2c0.9,0.7,1.8,1.5,2.3,3.3c-12.1-4-24.3-7.8-36.3-12c-46.1-16.2-89.4-37.4-129.1-66.2
		c-43.1-31.3-72.7-72.7-94.2-120.7c-12.7-28.4-22.2-57.8-25.2-88.9c-3.9-41.5,1.6-81.2,25.1-116.7c17.4-26.2,41.5-44.7,70.2-57.4
		C600,323,600.7,322.9,601.2,322.8z"/>
	<path d="M249,322.4c13.9,5.3,25.8,12.6,37,21c39.4,29.3,58.2,69.4,61.5,117.6c3.5,52.6-12.9,100.1-35.9,146.4
		c-28.5,57.1-73.2,97.4-127.9,127.9c-38.1,21.3-78.5,36.9-120.1,49.4c-0.5,0.1-1,0-2,0c8.9-7.4,17.5-14.3,26-21.5
		c53-45.1,93.1-100.2,124.5-162c19.7-38.8,37.2-78.4,47-121c12.1-52.8,11.3-104.9-9.7-155.6C249.1,324.1,249.1,323.7,249,322.4z"/>
	<path d="M282.2,315.5c16.1-11.6,31.5-22,46-33.4c17.4-13.7,32-29.9,40.7-50.7c12.7-30.2,10.9-60.4-0.7-90.5c-2.9-7.6-6-15.1-9-22.7
		c-0.2-0.6-0.4-1.2-0.6-1.8c0.5,0.3,1,0.6,1.5,0.9c0.8,0.9,2.1,2.2,3.5,3.9c19,22,27.2,45.4,32.9,63.5
		c11.7,37.2,17.8,75.4,19.5,114.4c2.6,58.4,2.2,116.9-0.2,175.3c-2.7,65.7-9.6,131-24.5,195.2c-5.9,25.2-14,49.9-21.1,74.9
		c-0.2,0.6-0.5,1.2-1.4,1.6c2-9.9,4.1-19.7,6-29.6c8.7-46.2,16.7-92.5,17-139.7c0.5-66.6-15.9-128.9-49-186.7
		c-15.1-26.4-34.7-49.5-56.1-71.1C285.2,317.6,283.5,316.5,282.2,315.5z"/>
	<path d="M491.9,118c-3.5,8.9-7.3,17.6-10.4,26.6c-17.9,51.5-6.3,96.5,35.1,131.9c14.3,12.2,30.3,22.4,45.5,33.5
		c2,1.4,4.2,2.6,6.7,4.2c-4.8,5-9.3,9.7-13.8,14.4c-50.4,52.6-79.4,115.7-91.1,187c-6.1,37.3-5.8,74.8-1.4,112.4
		c4.5,38.7,11,77.1,19.5,115.2c0.2,0.8,0.2,1.7-0.6,2.8c-1.6-5.4-3.1-10.8-4.9-16.1c-17.5-52.9-27.6-107.4-34-162.7
		c-8.9-77-10.1-154.2-8.7-231.6c0.5-30.5,1.5-60.9,6.7-91c6.2-36.2,14.4-71.9,33.2-104.1c1.8-3.2,3.9-6.1,3.9-6.1
		c5-7.5,9.7-13.3,13.2-17.3c0.4-0.3,0.8-0.6,1.3-0.8C492,117,491.9,117.5,491.9,118z"/>
	<path d="M358.8,225.9c-8.8-37.8-29-67.3-56.2-92.6c-30.6-28.5-66.7-47.6-105.6-61.9c-4.2-1.5-8.4-3-12.5-4.5
		c-0.1-0.1-0.2-0.3-1-1.2c3.1-0.2,5.6-0.6,8.1-0.5c46.2,0.4,89.6,11,128.4,36.7c11.3,7.5,21.8,16.8,31,26.7
		c16.5,17.7,19,40.1,16.3,63c-1.2,10.3-4.5,20.4-6.9,30.6C360.1,223.2,359.6,224.1,358.8,225.9z"/>
	<path d="M668.7,65.7c-13.4,5.2-25.4,9.5-37,14.5c-41,17.9-77.6,41.9-105.9,77.3c-15.9,20-27.8,42.1-33.4,68.1
		c-0.8-1.5-1.4-2.4-1.7-3.3c-6.3-18.2-9.1-36.9-7.1-56.2c2.5-23.7,16.3-40.4,34-54.6c26.5-21.3,56.9-34.5,90-40.6
		c17.7-3.3,36-3.9,54-5.7C663.4,65.1,665.3,65.5,668.7,65.7z"/>
</g>
</svg>
