<?xml version="1.0" encoding="utf-8"?>
<!-- Generator: Adobe Illustrator 26.3.1, SVG Export Plug-In . SVG Version: 6.00 Build 0)  -->
<svg version="1.1" id="katman_1" xmlns="http://www.w3.org/2000/svg" xmlns:xlink="http://www.w3.org/1999/xlink" x="0px" y="0px"
	 viewBox="0 0 850.4 850.4" style="enable-background:new 0 0 850.4 850.4;" xml:space="preserve">
<path d="M268,629.6c-5.7,16.3-11.5,29.7-14.9,43.6c-5.5,22.3,5.2,42.9,25.6,52.7c19.2,9.3,44.9,5.3,56.8-8.8
	c12-14.3,12-45.7-2.6-61.2c-16.5-17.5-34.7-33.4-53.2-48.8c-40.8-34-86.8-62.4-114.9-113.7c-3.2,11.1-5.4,18.5-7.5,25.9
	c-20.3-128.8,29.2-235.2,105.5-332.8C338.2,90.1,472.1,52.2,605,69.1c-112.1,26.2-212,65.5-270.2,176.4c26.9-6,48.5-12.7,70.6-15.3
	c105.8-12.5,184.6,32.2,240.7,119.3C685.7,411,704.8,478.4,690,552c-6.7,33.2-24.5,58.7-56.7,73.2c-14.9,6.7-25.2,2.8-29.3-11
	c-5-17.2-7.5-35.3-9.1-53.3c-1.5-17.2-2-33.8-24.1-43.1c-31.8,125.3,24.6,206.8,126.8,267.3c-127.2-16.9-176.5-116.2-227.4-210
	c-38.8,7-76.3,13.7-116.9,21c82.8,36.3,152.1,88.5,211.5,161.7c-60.7-25.6-109.4-65.7-170.1-83c6,36.1-5.3,71.3-30.8,90.7
	c-21.9,16.7-47.6,16.4-57.3,16.3c-11.6-0.1-37.6-0.4-57.4-19.3c-11.9-11.3-16.4-24.2-18.7-31.3C217.1,691.2,230.8,653.9,268,629.6z
	 M325.2,483.6c0.1,1,0.1,2,0.2,3c-31.6-11.6-63.2-23.3-94.8-34.9c-1.8,46.3,23,74.8,62.6,68.3c44.2-7.2,79-32.7,108.4-65.4
	c4.9-5.4,6.5-14.5,7.7-22.2c5.1-34.2-1.9-66.4-21.2-98.7c73.2-2.8,107.4,50.4,148.1,95.4c3.1-54.6-33.7-112.9-81.9-132.6
	c-46.1-18.9-115.7,0.2-152.3,40.5c-11.9,13.1-14.6,25-2.9,38.2c18.4,20.7,37.5,40.7,54.7,59.2c-30.5-6.5-64.2-13.7-98-20.9
	c-1.3,2.3-2.7,4.6-4,6.9C276.3,441.5,300.7,462.5,325.2,483.6z M562.8,331.1c7,10.7,13.3,17.5,16.6,25.6
	c6.7,16.5,15.2,33.3,16.7,50.6c2.8,32.1,17.5,50.4,52.3,56.4C659,418.4,615.1,347.2,562.8,331.1z M463,492.9
	c20.7-2.7,43.9-7.7,61.1-33c-15.6-13-30.2-25.2-43.6-36.3C473.9,449.8,468.5,471.4,463,492.9z"/>
</svg>
