<?xml version="1.0" encoding="utf-8"?>
<!-- Generator: Adobe Illustrator 26.3.1, SVG Export Plug-In . SVG Version: 6.00 Build 0)  -->
<svg version="1.1" id="katman_1" xmlns="http://www.w3.org/2000/svg" xmlns:xlink="http://www.w3.org/1999/xlink" x="0px" y="0px"
	 viewBox="0 0 850.4 850.4" style="enable-background:new 0 0 850.4 850.4;" xml:space="preserve">
<g>
	<path d="M499.9,197.6c-3.3-8.6-6.6-17.2-10.9-28.7c8.5,2.3,14.2,3.8,19.9,5.4c1.1-0.8,2.1-1.6,3.2-2.4
		c-12.8-17.3-25.6-34.7-40.2-54.4c6.9,0.3,12.6-0.6,17.5,0.9c88,28.3,165.5,72.1,218,151.2c16.3,24.5,79.8,129,47.1,261.8
		C722.1,663,618.4,726.2,588.7,742.6c-93.6,51.7-183.1,43.1-209.3,40.1c-27.2-3-89.6-10.6-153.4-54.2
		c-10.6-7.2-124.2-87.5-138-231.3c-1.8-19-4.5-66.2,13.5-121.3c0,0,33.3-102,125.8-154.5c4.1-2.3,8.4-3,8.4-3
		c8.2-0.9,14.8,4.5,22.5,6.1l-0.7-0.6c7.3,4.2,14.6,8.4,22.3,12.8c0-11.4,0-19.1,0-26.7c7.8,1.4,15.7,2.1,23.2,4.2
		c10.3,2.9,20.3,6.9,32,11.1c-6.2-32.4-6.1-33.7,25-32.3c26.2,1.1,53,2.4,78.3,8.8c77.6,19.4,134.2,66.8,173.1,136.3
		c3.1,5.5,8.7,9.6,15.6,16.9c1.9,19.2,4,43.1,6.6,67c3.8,33.9,0.9,66.5-15.1,97.5c-4.2,8.1-3.3,18.8-4.9,28.7
		c-66.2,77-147.2,124.2-256.6,100.8c13.1,6.6,26.3,10.2,39.3,14.5c6.4,2.1,14,4.1,18,8.7c10.8,12.3,19.9,26,29.4,38.8
		C337.8,735,242.6,640.7,232.6,547.9c33.1,46,57.4,56.7,122.9,28.4c13.4-5.8,26.9-11.8,40.9-16c15.9-4.8,32.4-7.8,49.1,0.9
		c-27.3,21.8-31,29.3-32.4,64.7c-15.7,0-31.5,0-51.3,0c5.3,2.8,6.7,3.8,8.2,4.3c2.8,0.9,5.6,1.8,8.5,2.3
		c75.8,13.7,136.9-12.5,182.3-72.5c36.9-48.8,59.8-101.7,15.6-161.4c7,0.6,12.4,1.1,18.1,1.6c-13.2-79.5-90-167.9-208.4-170.6
		c3.1,1.6,7.4,3.7,13,6.5c-15.1,10.7-30.2,18.4-41,30c-11.1,11.9-17.9,27.8-27,42.7c-11-19.2-22.8-39.7-34.5-60.2
		c29.6,21.5,41.8-6.4,61-19c-110.3,3.5-202.9,86.9-226,193.1c-1,4.6,0.4,13.6,2.3,14.1c5.2,1.2,11.2-0.9,17.7-1.9
		c-1.7,7.3-3.1,14.8-5.2,22c-11.2,39.4-6.8,77.3,14.2,111.9c14.2,23.4,30.2,46.5,49.4,65.8c119.1,120,311.9,113.2,411.9-14.6
		c111.6-142.6,43.4-320.1-87.5-383.2c-15.6-7.5-28.4-15.4-33.9-32.2C500.3,202.3,500.1,200,499.9,197.6z"/>
	<path d="M499.9,197.6c0.2,2.3,0.4,4.7,0.6,7c-0.3,3.8-0.6,7.7-1,13.6c-43.4-23.2-88.2-32.5-136-29.9c-30.6,1.6-30.7,0.3-44.6,26.5
		c-14.9-5.2-29.9-10.4-46.9-16.3c0,11.8,0,20.2,0,30.3c-5.2-1.7-9.9-3.3-14.6-4.8c0,0,0.7,0.6,0.7,0.6c-8.8-5.8-17.4-12.1-26.5-17.4
		c-9.8-5.7-20-10.5-34-17.7c13.3-4.5,21.5-7.4,29.4-10.1c-4.3-9-7.9-16.4-10.7-22.3c23.4,0,45.3,0,69.9,0
		c-7.9-13.2-13.5-22.5-21.8-36.4c15,6.4,25.6,10.9,38.9,16.6c-3.6-10.8-6.2-18.5-9.8-29.1c68.1,44.3,109.9,3.9,152.7-42.9
		c0,12.7,0,21.8,0,31.7c3.9-1.8,7.8-3.6,14.4-6.6c-1.2,12.5-2.3,23.1-2.9,29.6c13.8,12.6,26,23.7,38.2,34.9c-1,1.3-2,2.6-3,3.9
		c-4.9-0.4-9.8-0.7-19.1-1.4C483.7,172.5,491.8,185.1,499.9,197.6z M408.2,149.4c-0.4-2.3-0.8-4.7-1.2-7c-18,2.7-36,5.4-56.7,8.6
		C375.4,182.3,389,142.5,408.2,149.4z"/>
</g>
</svg>
