<?xml version="1.0" encoding="utf-8"?>
<!-- Generator: Adobe Illustrator 26.3.1, SVG Export Plug-In . SVG Version: 6.00 Build 0)  -->
<svg version="1.1" id="katman_1" xmlns="http://www.w3.org/2000/svg" xmlns:xlink="http://www.w3.org/1999/xlink" x="0px" y="0px"
	 viewBox="0 0 850.4 850.4" style="enable-background:new 0 0 850.4 850.4;" xml:space="preserve">
<g>
	<g>
		<path d="M452.9,742.9c3.6-5.5,7.1-10.9,10.4-16c7.2,24.8-9.1,52.9-34.5,58.3c-2.1,0.4-5.3-0.9-7.1-2.5
			c-10-8.6-15.2-20.3-18.7-32.6c-2.6-9.1-4.5-18.4-5.8-27.8c-2.7-18.7-11.3-23.5-28.5-15.4c-0.9,0.4-1.8,0.7-5.3,2.3
			c1.8-5.8,2-10.4,4.3-13.5c5.3-7.2,11-14.4,17.6-20.3c14.6-13.1,19.1-29.3,16.7-48c-2.5-19.5-5-39.1-8.4-58.4
			c-2.3-12.8-10.3-22.9-20.1-30.8c-15.9-12.8-32.5-24.7-49.2-36.3c-16.3-11.2-23.7-25.3-19.9-43.1c1.4-6.7,4.1-13.4,7.7-19.3
			c9.4-15.5,13-30.8,4.6-48.2c-2.2-4.5-0.8-11.7,0.9-17c2.8-8.8,1.7-16.4-2.3-24.4c-5.3-10.9-10.8-21.8-14.5-33.3
			c-15.4-48.1-20.5-97-7-146.5c10.6-39,31-72.1,61.9-98.5c1.8-1.5,3.8-2.9,6.5-3.7c-4.2,6.3-8.6,12.4-12.5,18.9
			c-28.7,48.4-32.3,100.3-20.9,154c3,14.3,7.9,28.3,12.6,42.2c1.3,3.8,4,8.6,7.2,9.8c8.4,3.1,17.2,3.4,24.1-4.3
			c2.5-2.8,4.7-5.8,7.3-8.5c1.5-1.6,3.5-3.5,5.5-3.7c13.9-1.6,14.3-11.9,15.9-22.4c4.1-26.5,12.8-51.7,23.3-77.6
			c1.4,2.4,2.4,3.8,3.1,5.4c10.7,27.2,20.2,54.7,23.4,84c0.5,4.3,2.5,5.9,6.4,7.7c6.3,3,12.7,6.8,17.5,11.8
			c8.7,9.2,16.9,12.1,28.7,7.7c1.4-0.5,2.7-2.2,3.3-3.6c25.7-66.4,31.8-132.6-3.3-197.9c-4.5-8.4-10.3-16.2-16.6-26
			c19.1,14.2,33.3,30.4,45,48.7c26.6,41.5,35.5,87.3,31.5,135.9c-2.3,28-8.9,55.1-18.5,81.4c-1.9,5.3-4.6,10.4-7.6,15.2
			c-5.9,9.4-8.1,18.7-3.7,29.7c1.9,4.8,2,11.7-0.1,16.3c-7.3,15.7-5.1,30.1,3.6,44.1c8.9,14.3,12.8,29.6,11.7,46.3
			c-0.1,1.9,0.1,4,0.6,5.9c5.1,20.3,0.8,39.1-11.9,55c-12.4,15.5-25.8,30.6-40.5,43.8c-26.9,24.1-23.9,56.4-14.8,81.1
			c0.7,1.9,3.3,3.5,5.3,4.5c5.8,2.9,11.3,6,11.3,13.4c0,8.6-4.8,15.1-10.9,20.4c-1.2,1-4.7,0-6.8-0.9c-16.3-7-25.5-1.8-27.5,15.7
			c-0.8,6.6-1.9,13.1-2.9,19.6C451.3,742,452.1,742.5,452.9,742.9z M449.2,310.5c0.9,1.6,1.8,3.3,2.6,4.9c12,24.4,12.3,49,0.1,73.3
			c-5.3,10.6-13.4,19.1-26.4,19.3c-13,0.2-21-8.3-26.7-18.7c-7.7-13.9-10.9-29.2-8.4-44.8c1.9-11.9,6.2-23.4,9.1-34.3
			c0.4-0.2-0.5,0.2-1.2,0.8c-34.3,25.6-37,86.7-5.6,117.5c2.7,2.7,4.5,6.8,5.4,10.6c4.6,19.1,8.5,38.3,13.3,57.4
			c1.2,4.9,4.2,9.6,7.3,13.7c4.1,5.5,8.9,5.5,12.9,0.1c3.3-4.5,6.6-9.7,7.9-15.1c4.7-18.8,8.4-37.8,12.7-56.7
			c0.6-2.8,1.3-6.1,3.1-7.9c22.9-22.1,28-49.2,21.8-79C473.8,334.4,465.1,319.9,449.2,310.5z M532.5,485.8
			c-23.4,12.5-43.5,25.8-57.6,46.1c-4.2,6-6.8,13.2-9.8,20c-2.2,4.9-0.7,8.8,4.9,9c8,0.3,16.7,1.3,24-1.2
			c17.3-5.8,27.8-19.2,32.4-36.5C529.5,511.9,530.3,499.9,532.5,485.8z"/>
		<path d="M377.2,621.7c-8.9-21.8-21.4-40.4-41.5-53.5c-13.3-8.7-19.5-21.5-18.4-37.6c0.5-6.3,1.1-12.6,2.6-19.1
			c8.7,22.3,25.9,37.6,41.6,54.1C376.6,581.4,377.5,601.5,377.2,621.7z"/>
	</g>
	<g>
		<path d="M551.1,752c21.6-12.9,41.6-28.1,59.5-46c101.6-101.9,104.2-265.5,5.7-370.4c-7.8-8.3-16.7-15.7-24.8-23.8
			c-1.7-1.7-3.1-5.1-2.6-7.3c2.7-12.4,6.4-24.6,8.9-37.1c2.5-12.2,3.9-24.5,5.8-36.7c59.6,39.6,128.7,132.9,124.3,255.1
			C723.1,620.4,635.6,714.7,551.1,752z"/>
		<path d="M299.3,752c-21.6-12.9-41.6-28.1-59.5-46c-101.6-101.9-104.2-265.5-5.7-370.4c7.8-8.3,16.7-15.7,24.8-23.8
			c1.7-1.7,3.1-5.1,2.6-7.3c-2.7-12.4-6.4-24.6-8.9-37.1c-2.5-12.2-3.9-24.5-5.8-36.7c-59.6,39.6-128.7,132.9-124.3,255.1
			C127.3,620.4,214.8,714.7,299.3,752z"/>
	</g>
</g>
</svg>
