<?xml version="1.0" encoding="utf-8"?>
<!-- Generator: Adobe Illustrator 26.3.1, SVG Export Plug-In . SVG Version: 6.00 Build 0)  -->
<svg version="1.1" id="katman_1" xmlns="http://www.w3.org/2000/svg" xmlns:xlink="http://www.w3.org/1999/xlink" x="0px" y="0px"
	 viewBox="0 0 850.4 850.4" style="enable-background:new 0 0 850.4 850.4;" xml:space="preserve">
<path d="M425.1,65.2c212,0.6,376,181.3,354.3,392.4C767.6,572.7,710,660.1,614.2,724.3c-62.1,41.6-128.8,63.8-203.9,60.6
	c-87.2-3.7-159.9-41.7-221.8-98.9C79.7,585.2,43.9,459.5,86.6,318.3C129.2,177.4,229.4,95.5,374.4,69.4
	C391,66.4,408.2,66.5,425.1,65.2z M314.1,224.8C216.5,265.6,132.9,384.4,161,524.5c26,129.3,144.1,221.1,277.5,215.3
	c134.5-5.8,242.4-109.4,257-246.9c11.6-108.7-66.4-242.2-157.7-266.8c0,6.3,0,12.1,0,17.9c0,73.9,1,147.8-0.5,221.6
	c-0.3,17.1-5.6,36.2-14.5,50.8c-23.7,39-76.4,56.9-124.4,46.2c-44.2-9.8-88-44.8-85-106.3c3-61.7,0.7-123.7,0.7-185.5
	C314.1,256.1,314.1,241.5,314.1,224.8z"/>
</svg>
