<?xml version="1.0" encoding="utf-8"?>
<!-- Generator: Adobe Illustrator 26.3.1, SVG Export Plug-In . SVG Version: 6.00 Build 0)  -->
<svg version="1.1" id="katman_1" xmlns="http://www.w3.org/2000/svg" xmlns:xlink="http://www.w3.org/1999/xlink" x="0px" y="0px"
	 viewBox="0 0 850.4 850.4" style="enable-background:new 0 0 850.4 850.4;" xml:space="preserve">
<g>
	<path d="M420.1,65.2l-251.6,72.9v565.1l256.5,82l256.9-79.8V137.7L420.1,65.2z M213.9,172.2l113.5-32.9l3.1,107.4l-79.1,41.6v264.5
		l75,41.6l5.6,113.4l-118.1-37.7V172.2z M382.6,724V577.8l-81.2-43.7V302.9l81.2-39.6V123.3l37.8-10.9l37.8,10.5v140.6l81.2,39.6
		v231.1l-81.2,43.7v149.6l-33,10.3L382.6,724z M636.5,672l-127.9,39.7l5.8-117.3l75-41.6V288.4l-79.1-41.6l3.1-108.6l123.1,34.1V672
		z"/>
	<path d="M512.7,340.7c-31.4-14.7-62.8-29.4-94.3-44.1l-90.7,47.3v156.3l90.7,51.9l94.5-51.9C512.9,447,512.8,393.9,512.7,340.7z
		 M419.2,510.6l-54.4-35.1V370.1l54.4-31.9c18.9,9.9,37.7,19.8,56.6,29.7c0.1,35.9,0.1,71.8,0.2,107.6L419.2,510.6z"/>
	<path d="M419.8,382.6c9.1,4.8,18.3,9.6,27.4,14.4c0,17.4,0.1,34.7,0.1,52.1l-27.5,17l-26.3-17v-51.1L419.8,382.6z"/>
</g>
</svg>
