<?xml version="1.0" encoding="utf-8"?>
<!-- Generator: Adobe Illustrator 26.3.1, SVG Export Plug-In . SVG Version: 6.00 Build 0)  -->
<svg version="1.1" id="katman_1" xmlns="http://www.w3.org/2000/svg" xmlns:xlink="http://www.w3.org/1999/xlink" x="0px" y="0px"
	 viewBox="0 0 850.4 850.4" style="enable-background:new 0 0 850.4 850.4;" xml:space="preserve">
<g>
	<path d="M783.9,144.1c0.1-0.3,0.2-0.4,0.4-0.6c0,0,0.4-0.6,0.8-1.3c0.1-0.2,0.3-0.4,0.4-0.6c0.1-0.2,0.2-0.3,0.3-0.4
		c0.6-1,1.5-1.9,2.3-2.8c0,0,0.1-0.1,0.1-0.1c-0.1,0-0.3,0-0.4,0c-0.6,0-1.1,0-1.7,0c-5.9,0.7-11.7,1-17.3,2.2
		c-17.5,3.7-31,13.8-38.9,29.4c-6.6,13-16.7,20.8-29.4,27.2C623.1,107.3,525.3,61.2,406.1,65.5c-89.2,3.2-166.5,37.1-231.6,98.1
		C43,287,19.8,501.5,143.2,653.8c-12.9,12.4-25.9,24.9-38.8,37.5c-5.7,5.6-11.3,11.3-16.3,17.5c-1.6,2-2.6,6.5-1.5,8.4
		c3.7,6.4,8.2,12.4,12.9,18.3c3.3,4.1,6.7,3.9,10.6-0.3c16.4-17.7,33.1-35.1,49.7-52.6c1.5-1.6,2.9-3.1,4.7-5
		c80.9,78.8,177.4,115.7,290,106.1c82.2-7,153.8-39.8,213.6-96.7c66.6-63.3,104.2-141.3,111.5-232.9c7.4-91.6-17.7-174.2-73.3-249.1
		c8.7-4.5,16.4-9.4,24.8-12.7C754.8,182.7,772.1,166.4,783.9,144.1z M154.7,642.9c-72.8-96.9-97.1-202.3-61.6-316.2
		c42.5-136.4,137.3-219.5,278.7-241.5c126-19.7,230.7,25.4,315.6,120.6c-20.1,13-39,25.2-58.4,37.8c-8.7-15.6-7.7-31.9-4.8-49.5
		c-8.4,5.1-13.4,11.8-16.7,19.6c-5.6,13.3-6.6,27-2.6,41.1c0.5,1.8,0.2,5-1.1,5.9c-22.1,16.8-44.4,33.3-67.2,50.3
		c-12-20.5-9.3-41.8-4.1-63.3c-0.6-0.3-1.1-0.7-1.7-1c-4,4.2-8.8,7.8-12,12.6c-13.8,20.3-16.4,42.1-7.9,65.2c1.1,3,2.2,5.1-1.2,7.7
		c-22.8,17.3-45.4,34.9-68.2,52.4c-0.5,0.4-1.1,0.6-2,1c-13.5-24.3-12.2-48.6-2.1-74.1c-3.6,2.7-7.6,5-10.8,8.2
		c-24.4,24.2-30,52.7-19.2,84.9c1.2,3.4,1.4,5.5-1.9,8.2c-23.9,19.1-47.5,38.5-71.3,57.8c-0.3,0.3-0.8,0.3-1.8,0.7
		c-13.5-29-6.8-56,8-82.5c-48.5,12.2-65.4,72.6-41.8,114c-13.3,12.5-26.8,25.1-40.2,37.8c-13.5,12.7-26.9,25.5-41.1,39.1
		c-17.8-31.4-13.9-63-3.5-95.9c-9.4,3.3-16.8,8.5-23.1,15.3c-13.5,14.5-19.2,32.3-22.4,51.3c-3.6,21.5,0.3,41.5,11.2,60.4
		c0.8,1.5,0.6,4.7-0.4,5.9C171.5,625.2,163.6,633.4,154.7,642.9z M756.9,497.5c-31.3,136.4-116.7,226.1-252.2,261
		c-125.5,32.3-235.5-3.3-329.5-92.4c9.5-10.2,18.2-19.7,27.1-29.3c24,15.8,49.4,24.1,77.7,14.2c16.6-5.8,28.5-17.3,37.2-33.8
		c-19.2,4.7-37.3,4.7-54.8-2.2c-9-3.6-17.4-8.8-27.7-14.1c27.6-27.1,53.7-52.8,79.7-78.3c35,30.1,87.3,25,99.5-8
		c-11.5-1.1-23.2-1.6-34.7-3.4c-11.9-1.9-22.3-7.7-31.6-16.9c25.1-21.5,50-42.9,75.2-64.5c19.2,15.3,40.6,23,65.3,16.4
		c12.7-3.3,22.4-12.1,28-24c-23.8,3.2-45.5-0.4-63.8-18.6c24.2-20,48-39.8,71.6-59.4c31.8,20.5,64.2,20,74-0.7
		c-8.9-1.3-18-2.3-27-4.1c-9-1.9-16.7-6.4-24.2-13.5c23-18,45.7-35.6,68.2-53.2c27,19,52.4,19.5,62,0.8c-15.4-0.4-29.3-4.2-39.9-17
		c18.8-14,37.3-27.7,56.8-42.2C756.5,299.7,780.6,394.5,756.9,497.5z"/>
	<path d="M700.2,329c35.1,91.7,24.3,213.2-81.7,312.3c-100.6,94.1-230.3,85.9-323.6,41.3C430.1,564.6,565.1,446.9,700.2,329z
		 M545.7,587.4c11.6-3.5,22.7-6.8,33.9-10.2c0.5,0.7,0.9,1.4,1.4,2.1c-2.4,5.4-4.5,11-7.2,16.3c-8.5,16.4-17.3,32.7-25.9,49.1
		c-1.2,2.3-1.7,5-2.9,8.8c9-0.5,16.7-0.7,24.3-1.5c12.9-1.4,13.3-1.9,16.6-14.6c0.4-1.7,0.8-3.3,1.3-5c6-19.5,12-39.1,17.9-58.6
		c1.9-6.2,5.5-9,12.3-8.5c8.2,0.5,16.4,0.3,24.5,0.1c2-0.1,3.9-1.5,5.9-2.3c-2-1-3.9-2.7-5.9-2.8c-10.3-0.3-20.5-0.1-32.3-0.1
		c2.3-10.1,4.6-19.4,6.6-28.8c2.6-12.6,6-25.1,7.3-37.9c1.2-11.6-3.6-15.6-15.2-15.5c-15.2,0.1-28.6,5.8-40.7,14.6
		c-14.6,10.6-28.9,21.6-43.3,32.4c14.6,10.5,18.4,10.2,30.3-2.6c1.5-1.6,2.8-3.3,4.4-4.7c11-10.3,21.7-20.8,33.1-30.6
		c4.2-3.6,10-6.3,15.5-2.4c5.1,3.6,4.2,9.4,3.9,14.8c0,0.6-0.2,1.3-0.4,1.9c-5.2,15-10.9,29.8-15.6,44.9
		c-4.8,15.5-16.5,20.2-30.8,21.8c-1.5,0.2-3,0.2-4.5,0.3C548.7,569.3,544.6,574.4,545.7,587.4z"/>
	<path d="M142.6,490c-2.3-14.9-5-28.2-6.3-41.6c-5.3-55.2,2.3-108.3,27.1-158.3c27.1-54.6,69.4-94.5,122.6-122.9
		c78.6-41.9,160.2-43.5,243.3-14.9c14.7,5.1,28.9,11.9,44.8,18.6C429.8,277.7,287.1,383.2,142.6,490z M287.9,179.3
		c-0.8,0.2-1.7,0.4-2.5,0.7c-7.3,13.1-14.6,26.2-21.7,39.4c-8.3,15.6-15.7,31.6-18.7,49.2c-4,23.1,6.2,38.9,28.7,44.4
		c17.4,4.3,32.4-0.4,44.8-13c11.7-11.9,11.4-26.2,5.4-40.2C312.3,232.7,299.9,206,287.9,179.3z"/>
</g>
</svg>
