<?xml version="1.0" encoding="utf-8"?>
<!-- Generator: Adobe Illustrator 26.3.1, SVG Export Plug-In . SVG Version: 6.00 Build 0)  -->
<svg version="1.1" id="katman_1" xmlns="http://www.w3.org/2000/svg" xmlns:xlink="http://www.w3.org/1999/xlink" x="0px" y="0px"
	 viewBox="0 0 850.4 850.4" style="enable-background:new 0 0 850.4 850.4;" xml:space="preserve">
<path d="M444.4,784.9c-17.2-2.1-34.3-3.9-51.4-6.2c-96.4-13.3-184.2-48-262.6-105.9c-1.7-1.3-3.3-2.8-4.9-4.2
	c12.5,1.2,24.6,3.4,36.6,3.1c5.8-0.1,14.6-3.5,16.6-7.9c2.3-5.3,1.1-15.1-2.6-19.6c-27.3-32.3-43.2-70.5-59.1-108.8
	c-3-7.2-6-9-13.4-7.1c-18.6,4.9-30.3,18.4-30.3,39.5c0,13.4,2.6,26.7,4.3,40.1c0.5,3.7,1.6,7.3,2.8,12.1
	C3.3,530.9-3.6,329.1,66,230.4c-2.7,25.1-6,50.1-8,75.2c-2.7,34.6-4.3,69.4,4.5,103.5c2.1,8.2,6,16.3,10.4,23.6
	c2.6,4.4,7.3,9.1,12,10.5c6.7,2,14.4,2.1,21.5,1.4c2-0.2,4.1-0.8,5.9-2.4c2.5-2.4,2.8-5.9,2.9-7.7c0.5-6,1.3-13.3,2.3-22.1
	c2.7-12.8,6.4-30.3,11.2-51.1c2.5-10.7,4.4-18.7,5.4-22.6c12.4-49.4,25.4-98.8,39.5-147.8c9.1-31.5,23.9-60.4,48.5-83.1
	c7.6-7,16.4-12.7,24.7-19c0.7,0.6,1.3,1.3,2,1.9c-3.5,7.3-7,14.7-10.4,22c-1.2,2.6-2.3,5.3-3.1,8.1c-2,7.4-6.2,17.3,1.3,21.3
	c6.5,3.5,17.1,3.1,24.4,0.4c36.3-13.8,71.6-30.1,108.1-43.3c54.3-19.6,110.2-32.7,168.3-33.9c7.9-0.2,15.8,0,24.2,1.2
	c-13.8,12.3-26.7,24.5-32.3,43.2c4.4,1.6,8.5,3.1,12.6,4.6c45.6,16.8,83.1,45.9,117.5,79.1c21,20.3,40.3,42.4,60.6,63.4
	c3.1,3.2,7.5,5.8,11.8,7.1c18.5,5.6,34.7,14.8,48.7,28.2c23.8,22.8,39.9,50.6,51.9,81.7c-7-4.1-13.8-8.6-21-12.2
	c-8.3-4.2-16.7-8.5-25.5-11.1c-14.7-4.3-18.5-0.4-18,14.7c1.9,54.6,5,109.1,4.9,163.7c-0.1,50.8-5,101.4-21.9,150
	c-6.4,18.3-14.9,35.4-30.7,51.8c1.3-11.6,2.8-20.4,3.1-29.3c0.4-10.9,0-21.8-0.5-32.6c-0.2-3.4-1.4-7-2.9-10.1
	c-4.2-9-9.6-10.1-16.9-3.6c-31.7,28.1-66,52.2-104.9,69.4c-79.8,35.5-159.4,32.9-238.7-2c16.6,1.6,33.1,3.6,49.7,4.8
	c62.1,4.5,122.6-1.9,179.6-29c34.1-16.3,63.2-39.2,87.6-68.2c1.2-1.4,1.9-3.2,3.2-5.3c-15.4-8.3-31-5.2-42.8-3.7
	c20.2-19.4,43.8-39.5,64.3-62.4c28.7-32,44.1-69.8,40.1-113.9c-1.3-14.6-1-29.6-4-43.9c-1.9-9.3-8.3-17.8-13-26.5
	c-3.5-6.4-9.5-7.1-14.7-3.1c-4.9,3.7-10.3,8.4-12.4,13.9c-5,13-8.1,26.7-12.3,40.9c-9.3-12.6-14.8-27.3-18.3-42.7
	c-7.4-32.5-2-63.9,9.5-94.5c2.8-7.4,2.2-13-1.5-19.8c-30.9-56.5-76.4-96.1-136.7-118.7c-3.2-1.2-6.6-2.2-10.6-3.6
	c-3.5,21.3,3,39.6,12.4,57.9c-5-3.2-9.9-6.5-14.9-9.6c-35.7-22.7-73.4-39.7-116.1-43.8c-52.1-5-97.3,12.2-138,43.5
	c-6.3,4.9-5.4,12.5,2.1,15c6.2,2.1,13.1,2.2,19.8,2.7c4,0.3,8-0.6,13.5-1c-9,14.8-22.3,17.5-36.3,18.5c-6.4,0.5-12.9,0.4-19.2,1.2
	c-26.9,3.2-44.3,19.1-57.7,41.6c-21.5,36-32.7,75.2-38.8,116.2c-7.4,49.7-8,98.9,6.8,147.8c25.1,82.5,77.9,141.2,152.3,182.1
	c59.5,32.8,124,50.6,190.4,62.6c3.6,0.6,6.9,2.5,10.4,3.8C490.7,785.1,467.6,785,444.4,784.9z"/>
</svg>
