<?xml version="1.0" encoding="utf-8"?>
<!-- Generator: Adobe Illustrator 26.3.1, SVG Export Plug-In . SVG Version: 6.00 Build 0)  -->
<svg version="1.1" id="katman_1" xmlns="http://www.w3.org/2000/svg" xmlns:xlink="http://www.w3.org/1999/xlink" x="0px" y="0px"
	 viewBox="0 0 850.4 850.4" style="enable-background:new 0 0 850.4 850.4;" xml:space="preserve">
<g>
	<path d="M489.7,539.7c-20.9-16.5-39.5-30.7-57.6-45.6c-7.7-6.4-13.4-7.6-21.8-0.5c-18.3,15.2-37.7,29.2-58.5,45.1
		c-4.5-40.5-9.1-78.4-12.7-116.5c-1-10.6-4.2-17-14.3-21.8c-36.9-17.8-73.4-36.3-109.8-55.2c-6.1-3.2-12-9-15-15
		c-24-47.6-47.2-95.5-68.6-145.2c16.5,14.6,33.8,28.2,49.2,43.9c18.9,19.3,40.9,29.8,67.3,35.5c49.3,10.5,98.6,21.6,146.8,36.1
		c26,7.8,48.3,0.1,71.7-5.5c52.9-12.8,105.5-26.4,158.1-40.4c7.7-2.1,15.5-6.6,21.5-11.9c20.9-18.5,41.1-37.8,63.7-55.9
		c-3.4,7.6-6.6,15.3-10.2,22.8c-19.1,40.1-38,80.3-57.8,120.1c-3.2,6.5-9.7,12.6-16.2,16c-36.8,19.1-73.9,37.5-111.2,55.6
		c-8.2,4-11.6,9-12.4,18.2C498.2,458.3,493.9,497.5,489.7,539.7z M220.5,278.1c33.9,44.1,81.9,71.3,125.3,105.5
		c9.7-14.3,18.3-26.8,26.8-39.4C320.7,321.7,270.6,299.9,220.5,278.1z M494.1,383.7c43.1-35.5,91.5-61.4,125.6-105.2
		c-50,21.8-100.1,43.6-151.6,66C477,357.9,485.1,370.1,494.1,383.7z M407.3,352.7c-12.8,17.5-23.1,31.5-33.2,45.6
		c-1.3,1.9-2.4,4.8-2,6.9c3.6,19.2,7.6,38.4,11.8,59.2c7-5.5,12.3-8.7,16.2-13c4.3-4.8,10.3-10.7,10.3-16.1
		C410.4,409.4,408.6,383.5,407.3,352.7z M435.2,354.1c-1.7,25.5-3,47-4.7,68.5c-1.8,21.3,4.9,31,27.5,37.9c3.6-17,7.3-34,10.5-51
		c0.7-3.6,0.3-8.4-1.6-11.3C457.5,384.4,447.5,371,435.2,354.1z"/>
	<path d="M657.3,226.7c-14.4,7.9-28.7,15.9-43.2,23.6c-10.5,5.6-18.3,1.6-26.5-6c-57.3-53-126.8-72.3-202.8-69
		c-57.3,2.5-104.8,30-147.4,66.7c-13.3,11.5-20.2,11.6-33.1-0.5c-7.2-6.8-14.1-13.9-22.4-22.2c12.2-18.7,24.3-37.3,36.4-56
		c1,0.4,2,0.7,3.1,1.1c-0.5,6.4-1.8,12.8-1.4,19.2c1.2,17.2,11.4,21.8,26.2,14c26.9-14.1,54-27.8,81.5-40.4
		c19.7-9.1,23.5-25.3,5.3-37c-10-6.5-24-8-36.4-9.3c-8-0.9-16.5,2.7-25.3,4.3C320.2,63,503.1,39,591.3,106.8c-22.9-4-41.8-8-61-10.6
		c-33.7-4.5-66.8-1-99,9.7c-5.6,1.9-12,4.4-15.3,8.8c-4.2,5.4-8.9,13.8-7.3,19.1c1.5,5.1,10.8,11,16.7,11.1c48.6,0.7,93,17.1,137,35
		c31.4,12.8,62.3,26.7,93.4,40.2C656.4,222.4,656.8,224.5,657.3,226.7z"/>
	<path d="M474.3,741.7c4.4-10.9,8.6-18.9,10.9-27.5c2.4-9,7.8-18.6-3.9-27c-3.1-2.2-1-12.1-0.6-18.5c0.7-10-1.1-22.6,4.2-29
		c5-6.1,18-5.5,27.4-8c71.7-19.1,117.1-65.7,141-134.8c0.8-2.3,0.8-4.9,1.8-11.1c-14.1,4.7-26.3,8.7-38.5,12.7
		c8.7-15.9,18.3-31.4,25.9-47.9c15.9-34.4,20.2-69.7,5.2-106c-1.6-3.8-0.5-9.5,1.2-13.6c3.4-8.2,8-16,12.2-24.1
		c30.9,31.3,61.3,135.5,61.2,207.2c-10.3-8.3-21-17-33.7-27.3c-17.6,50.8-45,90.6-79.7,124.9c-26.8,26.5-51.5,53.7-69.6,87.3
		C526.4,722.7,502.3,734.3,474.3,741.7z"/>
	<path d="M179.1,654.6c24.5,1.8,48.3,7.6,67.1-14.5c-57.4-53.2-85.2-118.4-84.9-195.5c0.1-31.3,2.4-62.2,18.6-89.8
		c-19.7,103.7,5.7,192.6,88.4,264.7c-0.9-12.5-1.8-24.9-2.9-41.1c10.5,11.9,21.1,21.4,28.5,32.9c14.5,22.7,31.5,41.1,58.6,48.3
		c3.3,0.9,6.6,6.5,7.5,10.5c1.6,7.2,1.5,14.9,2,22.3C316.6,708.2,212.3,687.2,179.1,654.6z"/>
	<path d="M133.2,471.9c-12.8-67.5,0.1-132.1,28.5-204.3c7.2,14.5,14,27.7,20.2,41.1c1,2.2,0.2,6-1,8.3
		c-24.6,47.4-40.9,97.3-45.7,150.7C135.2,468.7,134.4,469.5,133.2,471.9z"/>
	<path d="M378.9,781.7c-7.2-60.9-14.4-121.8-21.7-182.7c-0.8-6.5-0.7-13.2-2.6-19.3c-7.3-23.9,1.7-39,25.7-47.2
		c0,82.6,0,165.6,0,248.5C379.9,781.3,379.4,781.5,378.9,781.7z"/>
	<path d="M459.7,785.2c0-84.3,0-168.6,0-253.2c26.9,13.2,28.9,17,25.7,44.3c-8.2,69.4-16.3,138.9-24.4,208.3
		C460.6,784.8,460.1,785,459.7,785.2z"/>
	<path d="M424.9,505.5c21.7,8.2,25.3,22,23.6,42c-5.6,69.1-8.9,138.5-13.1,207.7c-0.4,5.8-0.9,11.5-3.3,17.3
		C429.7,683.9,427.3,595.2,424.9,505.5z"/>
	<path d="M405.7,776.2c-1.8-32.8-3.8-65.7-5.5-98.5c-2.4-45.8-3.7-91.8-7.6-137.5c-1.5-17.8,6.3-26.3,22.2-35.3
		c-2.5,91.9-4.9,181.6-7.4,271.3C406.9,776.2,406.3,776.2,405.7,776.2z"/>
</g>
</svg>
