<?xml version="1.0" encoding="utf-8"?>
<!-- Generator: Adobe Illustrator 26.3.1, SVG Export Plug-In . SVG Version: 6.00 Build 0)  -->
<svg version="1.1" id="katman_1" xmlns="http://www.w3.org/2000/svg" xmlns:xlink="http://www.w3.org/1999/xlink" x="0px" y="0px"
	 viewBox="0 0 850.4 850.4" style="enable-background:new 0 0 850.4 850.4;" xml:space="preserve">
<g>
	<path d="M424.3,65.2c100.9,0,186.2,35.1,256.1,105.3c69.9,70.2,104.8,155.4,104.8,255.7c0,99-35.3,183.6-105.7,253.8
		C609,750.1,523.9,785.2,424.3,785.2c-99.1,0-183.7-35.1-253.8-105.3C100.3,609.8,65.2,525.2,65.2,426.1
		c0-100.2,34.8-185.5,104.3-255.7C239.1,100.3,324,65.2,424.3,65.2z M424.3,98.9c-90.5,0-167.6,31.6-231.1,94.8
		C129.7,256.9,98,333.8,98,424.3c0,90.5,31.7,167.6,95.2,231.1s140.5,95.2,231.1,95.2c89.9,0,166.6-31.7,230.1-95.2
		s95.2-140.5,95.2-231.1c0-90.5-31.6-167.4-94.8-230.6C591.7,130.5,514.8,98.9,424.3,98.9z M126.3,445.2l65.6-0.9l-1.8-14.6
		L126.3,445.2z M129,367.8l68.4,4.6l-1.8,12.8L129,367.8z M194.6,491.7l3.6,14.6l-61.1,10L194.6,491.7z M214.7,319.5l-9.1,11.8
		l-58.3-40.1L214.7,319.5z M212.8,549.1l9.1,12.8l-54.7,23.7L212.8,549.1z M254.8,275.7l-8.2,9.1l-51-53.8L254.8,275.7z
		 M647.6,442.5c0,57.7-21.9,107.9-65.6,150.4c-43.8,42.5-96.3,63.8-157.7,63.8c-61.4,0-113.9-21.3-157.7-63.8
		c-43.7-42.5-65.6-92.7-65.6-150.4c0-37.7,10.6-73,31.9-106.2c21.3-33.1,41.6-58.8,61.1-77c-18.2,31-27.3,66.5-27.3,106.6
		c0,28,7,52.6,21,73.8c15.8,25.5,37.4,38.3,64.7,38.3c17,0,29.8-10.6,38.3-31.9c7.3-15.2,10.9-32.5,10.9-52
		c0-20.6-5.2-40.1-15.5-58.3c-10.9-18.8-26.1-32.2-45.6-40.1l24.6-28.2c14.6,8.5,26.1,19.8,34.6,33.7v-1.8
		c0-18.2-5.5-35.8-16.4-52.9l41-45.6l40.1,45.6c-10.3,17-15.5,35.2-15.5,54.7c7.9-14,19.1-25.2,33.7-33.7l24.6,28.2
		c-18.8,7.9-34,21.3-45.6,40.1c-9.7,18.2-14.6,37.7-14.6,58.3c0,19.5,3.3,36.8,10,52c8.5,21.3,21.3,31.9,38.3,31.9
		c27.3,0,49.2-12.7,65.6-38.3c13.4-21.3,20-45.9,20-73.8c0-40.1-8.8-76.6-26.4-109.4c18.8,19.5,39,45.9,60.6,79.3
		C636.8,369.3,647.6,404.8,647.6,442.5z M251.1,596.5l10.9,11.8l-43.7,32.8L251.1,596.5z M290.3,244.7l12.7-2.7l-53.8-60.2
		L290.3,244.7z M310.4,251.1l-6.4,12.8l51,84.8l-69.3-49.2l-9.1,11.8l60.2,57.4l-64.7-25.5l-1.8,19.1l52.9,29.2l-52-3.6l5.5,19.1
		l43.7,10l-36.4,8.2l13.7,19.1l25.5-0.9l-15.5,10c7.3,5.5,14.1,8.5,20.5,9.1s13.7,0.1,21.9-1.4s14.9-5,20-10.5
		c5.2-5.5,9.4-13.1,12.8-22.8c3.3-9.7,5-19.3,5-28.7c0-9.4-1.5-19.3-4.6-29.6c-3-10.3-7.6-21-13.7-31.9l-25.5-32.8l-7.3-8.2l2.7-6.4
		L310.4,251.1z M299.4,636.6l12.8,8.2l-32.8,43.8L299.4,636.6z M317.6,148.1l53.8,112.1l-9.1-0.9l-8.2,9.1L317.6,148.1z
		 M357.8,657.6l13.7,4.6l-21.9,53.8L357.8,657.6z M391.5,130.8l16.4,77.5L396,220.1L391.5,130.8z M416.1,666.7h13.7l-6.4,59.2
		L416.1,666.7z M466.2,129l-6.4,95.7l-12.8-14.6L466.2,129z M508.1,292.1l2.7,6.4l-7.3,8.2l-25.5,32.8
		c-6.1,10.9-10.5,21.6-13.2,31.9c-2.7,10.3-4.3,20.2-4.6,29.6c-0.3,9.4,1.2,19,4.6,28.7s7.6,17.3,12.8,22.8c5.2,5.5,12,9,20.5,10.5
		c8.5,1.5,15.9,2,22.3,1.4c6.4-0.6,12.9-3.6,19.6-9.1l-14.6-10l24.6,0.9l13.7-20l-36.5-7.3l44.7-10l5.5-19.1l-52.9,3.6l53.8-29.2
		l-1.8-19.1l-64.7,25.5l59.2-57.4l-9.1-11.8l-68.4,49.2l51-84.8l-2.7-13.7L508.1,292.1z M540,147.2l-42.8,120.3l-9.1-8.2l-7.3-1.8
		L540,147.2z M481.7,658.5l10.9-1.8l8.2,62L481.7,658.5z M537.3,640.3l10.9-6.4l24.6,56.5L537.3,640.3z M608.4,184.6l-41,65.6
		L551,242L608.4,184.6z M593.8,594.7l-10,12.8l48.3,39.2L593.8,594.7z M596.5,278.5l10.9,11.8l55.6-54.7L596.5,278.5z M623.9,561
		l7.3-12.8l47.4,40.1L623.9,561z M628.4,324.9l7.3,14.6l63.8-37.4L628.4,324.9z M653,493.6l-4.6,13.7l60.2,11.8L653,493.6z
		 M651.2,379.6l1.8,13.7l70.2-19.1L651.2,379.6z M656.7,435.2v15.5l72-6.4L656.7,435.2z"/>
</g>
</svg>
