<?xml version="1.0" encoding="utf-8"?>
<!-- Generator: Adobe Illustrator 26.3.1, SVG Export Plug-In . SVG Version: 6.00 Build 0)  -->
<svg version="1.1" id="katman_1" xmlns="http://www.w3.org/2000/svg" xmlns:xlink="http://www.w3.org/1999/xlink" x="0px" y="0px"
	 viewBox="0 0 850.4 850.4" style="enable-background:new 0 0 850.4 850.4;" xml:space="preserve">
<g>
	<path d="M785.2,423.4c0,99.6-35.1,184.8-105.3,255.6c-70.2,70.8-155.1,106.2-254.7,106.2c-99.6,0-184.5-35.4-254.7-106.2
		C100.3,608.2,65.2,523,65.2,423.4c0-98.4,35.4-182.7,106.2-252.9c70.8-70.2,155.4-105.3,253.8-105.3c99,0,183.7,35.1,254.3,105.3
		C749.9,240.7,785.2,325,785.2,423.4z M760.9,423.4c0-91.8-33-170.4-99-235.8c-66-65.4-144.9-98.1-236.7-98.1
		c-91.8,0-170.7,32.7-236.7,98.1c-66,65.4-99,144-99,235.8c0,93,32.7,172.5,98.1,238.5c65.4,66,144.6,99,237.6,99
		c93,0,172.2-33,237.6-99C728.2,595.9,760.9,516.4,760.9,423.4z M745.6,423.4c0,88.8-31.4,164.7-94,227.7
		c-62.7,63-138.1,94.5-226.4,94.5c-88.8,0-164.4-31.5-226.8-94.5c-62.4-63-93.6-138.9-93.6-227.7c0-87.6,31.5-162.6,94.5-225
		c63-62.4,138.3-93.6,225.9-93.6c87.6,0,162.9,31.2,225.9,93.6C714.1,260.8,745.6,335.8,745.6,423.4z M212.8,462.1l-34.2-5.4
		l19.8-27.9l-27.9,19.8l-5.4-34.2l-5.4,34.2l-27.9-19.8l19.8,27.9l-34.2,5.4l34.2,5.4l-19.8,27.9l27.9-19.8l5.4,34.2l5.4-34.2
		l27.9,19.8l-19.8-27.9L212.8,462.1z M227.2,342.4l-34.2-6.3l20.7-28.8L184.9,328l-5.4-34.2L175,328l-28.8-20.7l20.7,28.8l-35.1,6.3
		l35.1,4.5l-20.7,28.8L175,355l4.5,35.1l5.4-35.1l28.8,20.7L193,346.9L227.2,342.4z M258.7,569.2l-34.2-5.4l19.8-27.9l-27.9,19.8
		l-5.4-34.2l-5.4,34.2l-28.8-19.8l20.7,27.9l-35.1,5.4l35.1,5.4l-20.7,27.9l28.8-19.8l5.4,34.2l5.4-34.2l27.9,19.8l-19.8-27.9
		L258.7,569.2z M289.3,241.6l-34.2-5.4l20.7-28.8L247,228.1l-5.4-34.2l-5.4,34.2l-28.8-20.7l20.7,28.8l-35.1,5.4l35.1,5.4
		l-20.7,28.8l28.8-20.7l5.4,35.1l5.4-35.1l28.8,20.7L255.1,247L289.3,241.6z M625,426.1c0-35.4-9.5-68.8-28.4-100.3
		c-18.9-31.5-44-55.9-75.1-73.3c29.4,29.4,44.1,63.3,44.1,101.7c0,26.4-6,49.5-18,69.3c-14.4,24-33.9,36-58.5,36
		c-28.8,0-43.2-26.1-43.2-78.3c0-46.8,18.3-77.7,54.9-92.7l-22.5-27c-13.2,7.8-23.4,18.3-30.6,31.5c0-19.2,4.5-36.3,13.5-51.3
		l-36-43.2l-36,43.2c9.6,15.6,14.4,32.7,14.4,51.3c-7.2-12.6-17.4-23.1-30.6-31.5l-23.4,27c36.6,15,54.9,45.9,54.9,92.7
		c0,52.2-14.4,78.3-43.2,78.3c-24.6,0-44.1-12-58.5-36c-12-19.8-18-42.9-18-69.3c0-38.4,14.7-72.3,44.1-101.7
		c-31.2,17.4-56.3,41.9-75.2,73.3c-18.9,31.5-28.3,65-28.3,100.3c0,54.6,19.6,102,58.9,142.2c39.3,40.2,86.2,60.3,140.9,60.3
		c54.6,0,101.5-20.1,140.8-60.3C605.3,528.1,625,480.7,625,426.1z M352.3,652l-34.2-5.4l19.8-27.9L310,638.5l-5.4-34.2l-5.4,34.2
		l-28.8-19.8l20.7,27.9L256,652l35.1,6.3l-20.7,27.9l28.8-19.8l5.4,34.2l5.4-34.2l27.9,19.8l-19.8-27.9L352.3,652z M397.3,175
		l-34.2-5.4l19.8-28.8L355,161.5l-5.4-35.1l-6.3,35.1l-27.9-20.7l19.8,28.8L301,175l34.2,5.4l-19.8,27.9l27.9-19.8l6.3,34.2
		l5.4-34.2l27.9,19.8l-19.8-27.9L397.3,175z M472.9,685.3l-34.2-5.4l19.8-27.9l-27.9,19.8l-5.4-34.2l-5.4,34.2L391.9,652l19.8,27.9
		l-34.2,5.4l34.2,5.4l-19.8,27.9l27.9-19.8l5.4,34.2l5.4-34.2l27.9,19.8l-19.8-27.9L472.9,685.3z M541.3,175.9l-34.2-6.3l19.8-27.9
		L499,162.4l-5.4-35.1l-6.3,35.1l-27.9-20.7l19.8,27.9l-34.2,6.3l34.2,5.4l-19.8,27.9l27.9-19.8l6.3,34.2l5.4-34.2l27.9,19.8
		l-19.8-27.9L541.3,175.9z M593.5,652.9l-35.1-5.4l20.7-27.9l-27.9,19.8l-6.3-34.2l-5.4,34.2l-27.9-19.8l19.8,27.9l-34.2,5.4
		l34.2,6.3l-19.8,27.9l27.9-20.7l5.4,35.1l6.3-35.1l27.9,20.7l-20.7-27.9L593.5,652.9z M652.9,241.6l-35.1-5.4l20.7-28.8l-28.8,20.7
		l-4.5-34.2l-5.4,34.2L571,207.4l20.7,28.8l-34.2,5.4l34.2,5.4L571,275.8l28.8-20.7l5.4,35.1l4.5-35.1l28.8,20.7L617.8,247
		L652.9,241.6z M687.1,572.8l-35.1-5.4l20.7-27.9l-27.9,19.8l-6.3-34.2l-5.4,34.2l-27.9-19.8l19.8,27.9l-34.2,5.4l34.2,6.3
		L605.2,607l27.9-19.8l5.4,34.2l6.3-34.2l27.9,19.8L652,579.1L687.1,572.8z M717.7,343.3l-34.2-5.4l20.7-27.9l-28.8,20.7l-5.4-35.1
		l-5.4,35.1L636.7,310l20.7,27.9l-35.1,5.4l35.1,6.3l-20.7,28.8l27.9-21.6l5.4,35.1l5.4-35.1l28.8,21.6l-20.7-28.8L717.7,343.3z
		 M727.6,466.6l-34.2-5.4l19.8-27.9l-27.9,19.8l-5.4-34.2l-6.3,34.2l-27.9-19.8l20.7,27.9l-35.1,5.4l35.1,5.4l-20.7,28.8l27.9-20.7
		l6.3,35.1l5.4-35.1l27.9,20.7L693.4,472L727.6,466.6z"/>
</g>
</svg>
