<?xml version="1.0" encoding="utf-8"?>
<!-- Generator: Adobe Illustrator 26.3.1, SVG Export Plug-In . SVG Version: 6.00 Build 0)  -->
<svg version="1.1" id="katman_1" xmlns="http://www.w3.org/2000/svg" xmlns:xlink="http://www.w3.org/1999/xlink" x="0px" y="0px"
	 viewBox="0 0 850.4 850.4" style="enable-background:new 0 0 850.4 850.4;" xml:space="preserve">
<g>
	<path d="M785.2,426.5c0.2,199-161,358.6-362.3,358.7C228,785.3,65.2,623.4,65.2,429.4c0-203.8,159.6-364.1,362.7-364.2
		C624.8,65.1,785,227.1,785.2,426.5z M750.6,424.6c0.1-178.4-144.4-323.9-321.9-324.1c-179.2-0.2-324.5,143.3-324.9,320.8
		c-0.4,180.4,143.3,325.2,322.9,325.4C604.9,747,750.5,602.2,750.6,424.6z"/>
	<path d="M534.6,641.1c15.5,10.2,31,20.5,45.7,30.2c-65.1,55.1-214.4,74-315.3-0.4c20.6-7,40-14.8,55-34.5c-8.3,3.6-14,6.1-19.7,8.6
		c-30.4,13-57.4,7.2-81.7-14.4c-25.9-23.1-43.3-52.3-58.4-83.6c3.4,3.2,6.8,6.4,10.3,9.6c3.8,3.5,8,6.7,11.5,10.5
		c35.8,37.4,80.5,42.4,128.3,34.9c21.9-3.4,31.5,0.4,42.9,19.9c5.8,10,10.9,20.4,17.9,33.6c3.7-7.6,7.4-12.4,8.5-17.7
		c6.8-34.3,14.9-68.5,19-103.1c5.5-46.5,6.3-93.3-0.4-139.9c-3.1-21.1-11.5-40.2-25.5-55.9c-8.9-9.9-20.8-17.1-33.7-27.4
		c3.2-23.5,12.3-49,29.1-71.9c-7.5,21.8-4.8,42.3,8.8,60.2c6,7.9,14.7,14.5,23.4,19.6c10.6,6.2,15.1,13.8,15.1,26.2
		c-0.3,103.1-0.2,206.2-0.2,309.3c0,9.6-0.8,23,10.6,23c11.2,0,10.6-13.5,10.7-22.9c0.1-50.2,0.1-100.4,0.7-150.7
		c8,51.5,8.8,105.1,45.3,151.5c6.7-12.3,12.9-21.7,17-31.9c8.1-19.8,23.3-25.3,42.8-23.4c14.6,1.4,29.3,4.3,43.9,3.8
		c37-1.2,66.9-18.7,92.8-43.9c3.7-3.6,7.1-7.4,10.8-11.3c0.8,1.1,1.8,1.9,1.6,2.2c-15.8,34.8-36.2,66.1-68.8,87.5
		c-24.3,16-50,17.9-76.2,4.1c-3.2-1.7-6.6-3.2-9.8-4.9C535.9,639,535.3,640.1,534.6,641.1z"/>
	<path d="M313.6,149.1c-15.2,13.2-28.6,23-39.7,34.9c-55.7,59.4-49.7,137,14.1,190.1c5.3,4.4,10.7,8.8,16,13.3
		c14.7,12.4,22.6,27.2,21.6,47.5c-1.4,26.8-0.3,53.6-0.3,81.9c-19.3,2.4-36.8-3-53.4-11.3c-45.6-22.9-71.9-61.8-84.4-109.6
		c-22.2-85,6.2-194.5,111.6-240.9C302.7,153.2,306.6,151.8,313.6,149.1z"/>
	<path d="M540.9,150.2c21.8,7.2,40,18.2,57.1,31.3c94.4,72.5,99.5,230.6,9.7,306.6c-22.8,19.3-49.3,29.7-80.4,29.1
		c0-22.8,1.8-45-0.4-66.7c-3.3-32.9,9.6-55.2,35.2-75.2c36.4-28.5,58.9-66,53.9-114.7c-4.6-44.6-31-75.9-65.6-101.5
		c-2.8-2-5.5-4.1-8.3-6.2C541.9,152.8,541.8,152.2,540.9,150.2z"/>
	<path d="M160.1,297.4c-3.6,35.5-4.4,70.9,6,105.5C185.1,466,223.7,509.2,290,524.2c25,5.7,42.7,25.3,44.7,50.6
		c0.3,3.2-4.4,8.7-8,10.1c-25.6,9.8-51.6,9.5-77.5,0.9c-36.3-12-65.2-33.8-84.4-67C122.6,446,123.6,372,160.1,297.4z"/>
	<path d="M696.5,297.8c6.9,24.7,15.9,48.9,20.2,74c9.8,56.7-3.7,109.3-35.6,156.8c-33,49.3-95.4,73.6-148.4,59
		c-17.3-4.7-18.3-6.4-12.6-23.2c6.7-20,17.8-35.6,40.3-39.6c71.1-12.6,122.7-75.1,131-147.9c2.9-25.5,0.5-51.7,0.5-77.6
		C693.4,298.8,694.9,298.3,696.5,297.8z"/>
	<path d="M383,274.6c7.4-2.7,14.8-5.3,26.1-9.4c-10.9-4-18.4-6.8-25.9-9.6c0.1-0.8,0.1-1.6,0.2-2.4c4,0,8-0.2,12,0
		c13.2,0.9,26.1,1.6,26.5-17.6c0,19.7,0,39.4,0,59.7c-6.8-4.4-0.1-19.4-13.8-18.5c-8.3,0.5-16.6,0.1-25,0.1
		C383.1,276.1,383,275.3,383,274.6z"/>
	<path d="M430.2,236.1c2.8,27.8,25.5,13.3,41.5,18.6c-9.5,3.6-17.1,6.4-28.4,10.6c11.3,3.9,19,6.6,29.2,10.1
		c-16.7,4.9-39.9-9.2-42.3,19.6C430.2,275.3,430.2,255.7,430.2,236.1z"/>
</g>
</svg>
