<?xml version="1.0" encoding="utf-8"?>
<!-- Generator: Adobe Illustrator 26.3.1, SVG Export Plug-In . SVG Version: 6.00 Build 0)  -->
<svg version="1.1" id="katman_1" xmlns="http://www.w3.org/2000/svg" xmlns:xlink="http://www.w3.org/1999/xlink" x="0px" y="0px"
	 viewBox="0 0 850.4 850.4" style="enable-background:new 0 0 850.4 850.4;" xml:space="preserve">
<path d="M307.9,379.2c34.6-69.5,68.4-137.5,102.2-205.5c1.5-3,2.4-6.6,4.6-9c3.2-3.5,7.2-8,11.2-8.4c2.9-0.3,7.7,4.6,9.6,8.3
	c14.9,29,29.4,58.3,44,87.5c21,42.1,42,84.3,63.3,127.2c31-11.8,61.4-23.4,91.8-35c16-6.1,17.3-5.6,25.3,10.2
	c39.8,78.3,79.6,156.7,119.3,235c1.3,2.6,2.6,5.3,3.8,8.1c5,11.7,1.6,17.1-10.9,17.1c-14.5,0-28.9-0.5-43.4-0.7
	c-66.1-0.9-131.9,1.9-195.8,20.8c-37.7,11.1-74,25.3-100,57.5c-2.1,2.6-12.8,2.9-14.8,0.4c-34.1-41-82-54.4-130.7-65.4
	c-67-15.2-135.1-14-203.2-12.6c-20.2,0.4-23.1-4.2-14-22.2c40.2-79.5,80.5-159.1,120.7-238.6c7.4-14.6,9.4-15.4,24.8-9.5
	C246.1,355.7,276.6,367.3,307.9,379.2z"/>
</svg>
