<?xml version="1.0" encoding="utf-8"?>
<!-- Generator: Adobe Illustrator 26.3.1, SVG Export Plug-In . SVG Version: 6.00 Build 0)  -->
<svg version="1.1" id="katman_1" xmlns="http://www.w3.org/2000/svg" xmlns:xlink="http://www.w3.org/1999/xlink" x="0px" y="0px"
	 viewBox="0 0 850.4 850.4" style="enable-background:new 0 0 850.4 850.4;" xml:space="preserve">
<g>
	<path d="M785.2,430c-12.5,10.6-26.2,19.1-41.4,25.2c-10.1,4.1-19.9,8.9-29.8,13.7c-4.8,2.3-8.1,6.4-10.1,11.4
		c-4,10,0.4,19.8,10.8,23.1c7.5,2.4,15.2,2.1,22.6,0.2c10.6-2.8,20.9-6.3,31.4-9.5c1.1-0.3,2.2-0.7,3.2-1c0.2,0.3,0.4,0.6,0.6,0.9
		c-6.9,6.4-13.3,13.4-20.9,18.9c-7.9,5.7-12.2,13.2-15.6,21.8c-4.3,10.6-8.5,21.3-13.5,31.6c-7.7,15.8-19.9,27.2-35.9,34.7
		c-11.2,5.2-13,9.7-10,21.8c2.4,9.8,7.1,18.4,14.1,25.6c1.1,1.1,2,2.3,2.6,3.9c-4.7-2.4-9.4-4.8-14.1-7.1
		c-21.5-10.2-43.8-17.8-67.9-18.6c-14.7-0.5-29.3,0.4-43.7,3.2c-22.8,4.4-39.8,17.3-53.9,35.2c-10.5,13.4-15.1,29-17.7,45.4
		c-0.2,1.1-0.5,2.2-0.7,3.4c-0.3,0-0.6,0-1,0c-0.8-38.5-1.7-77.1-2.5-115.6c0.3-0.1,0.7-0.1,1-0.2c0.3,0.8,0.7,1.6,0.9,2.4
		c3.8,15.1,17,19.2,29.1,16.7c13.1-2.7,22-10.9,28.3-22.3c1.7-3.1,3.1-6.3,4.3-9.6c0.8-2,1.7-2.4,3.8-2c17.7,2.7,35.1,1.8,50.7-8.1
		c12.4-7.8,19.2-19.3,19.5-34.1c0.3-11.8-6.1-20.5-17.4-24.3c-9.6-3.2-19.5-4-29.5-3.4c-18.9,1-37.5,4.6-55.8,9.2
		c-0.4,0.1-0.8,0.3-1.4,0.6c5.9,13.6,9.3,27.6,9.2,42.3c-0.3,0.2-0.5,0.3-0.8,0.5c-2-2-3.9-3.9-5.8-5.9c-9-9.2-17.2-19.2-27-27.4
		c-17.6-14.8-37-27-58.5-35.7c-0.6-0.2-1.1-0.5-2.6-1.2c4.7-0.8,8.5-1.3,12.3-2c21.5-3.9,39.2-13.8,52-32
		c7.6-10.8,4.7-19.9-8.2-22.8c-5.7-1.3-11.8-1.4-17.7-2c-1.4-0.1-2.9,0-4.8,0c1.7-3,3.2-5.4,4.5-7.9c3.3-6.5,2.6-9.8-3.7-13.5
		c-2.8-1.7-3.6-3.6-3.5-6.7c0.3-10.7,0.5-21.4,0.6-32.1c0-2.8,1-4.9,2.7-7.1c13-17,26.3-33.9,38.7-51.3
		c7.6-10.7,11.8-23.2,14.3-36.1c1.9-10-0.7-19.1-6.7-27.3c-3.5-4.8-6.7-9.8-10.1-14.7c-1.1-1.6-1.2-3,0-4.6c1.2-1.6,2-3.5,3.2-5.1
		c7.3-10.1,4.8-20.1-1.2-29.3c-6.7-10.2-15.7-18.2-27.8-23.5c16.6-11.2,30.7-24.4,40.1-41.2c6.2,7.9,11.5,16,18.2,22.8
		c6.7,6.8,14.8,12.3,22.4,18.5c-2.7,1.5-5.6,2.9-8.2,4.6c-3.9,2.4-7.8,4.8-11.4,7.6c-8.4,6.5-10.7,15.2-8.4,25.3
		c1.7,7.7,5.1,14.6,9.7,21c4.5,6.4,11.2,9.7,18.4,11.7c5.2,1.4,10.5,2.4,16.2,3.6c-1.3,2.1-2.6,4.1-3.8,6.1
		c-16,25.5-32.2,50.9-47.9,76.7c-8.6,14.2-13.2,29.8-13.6,46.6c-0.4,21.8,7.4,39.5,26.1,51.7c5,3.3,9.7,6.9,14.5,10.4
		c0.7,0.5,1.2,1,2.2,1.8c-3.1,1.6-5.9,3-8.7,4.5c-9.5,5.2-19,10.5-26.9,18c-4.5,4.2-8,9.1-9.1,15.3c-1.2,6.3,1.6,11.5,7.6,13.7
		c6.4,2.3,12.8,1.8,18.7-1.6c1.6-0.9,3.2-3,3.6-4.9c1.9-7.9,6.8-10.9,14.7-12.3c45.6-7.8,91-16.3,136.6-24.3
		c20.8-3.6,41.6-7,61.8-13.5C766.7,436.7,775.9,433.2,785.2,430z"/>
	<path d="M355,712.7c-1.1-5.4-2.1-10.8-3.4-16.1c-8.5-34.8-37.6-61.5-72.9-67.7c-38.3-6.7-74.5-0.7-109,16.9
		c-4,2.1-8.1,4.1-12.5,5.6c1.6-1.9,3.2-3.7,4.8-5.5c7.4-8.2,11.5-18,12.9-28.9c0.9-7.4-1.2-11.5-8-14.6
		c-10.5-4.9-20.2-10.9-27.9-19.6c-9.3-10.5-14.9-23.1-20.1-35.9c-3.2-8-6.4-16-10-23.7c-1.2-2.6-3.8-4.8-6-6.8
		c-8.3-7.4-16.7-14.7-25-22c0.2-0.4,0.5-0.7,0.7-1.1c5.8,1.9,11.5,4.1,17.4,5.7c8.6,2.3,17.2,4.6,26,5.8c4.8,0.6,10.2-0.3,14.9-1.9
		c9.1-3,13.1-12.3,10-21.4c-2-5.8-5.6-10.4-11.1-13c-11.5-5.4-23.1-10.7-34.8-15.7c-12.5-5.4-23.7-12.8-34.4-21
		c-0.4-0.3-0.9-0.5-1.4-0.8c0.2-0.3,0.4-0.5,0.5-0.8c2.3,0.8,4.5,1.6,6.8,2.5c25.7,10.2,52.5,15.8,79.7,20.4
		c29.2,4.9,58.3,10.5,87.4,15.7c18.8,3.4,37.6,6.7,56.4,9.9c3.8,0.6,6.5,2.4,7.9,6c0.5,1.3,1.2,2.5,1.5,3.9c1.1,5.1,4.6,7.8,9.3,8.3
		c4.3,0.5,9,0.7,13.1-0.3c7-1.7,10.1-7.9,8.2-14.9c-1.9-7.3-6.3-13.2-12.4-17.2c-9.7-6.5-19.8-12.3-29.8-18.3
		c-0.6-0.4-1.3-0.7-2.5-1.4c2.3-1.6,4.2-3,6.1-4.4c6.7-5,13.7-9.7,20-15.3c12.1-10.7,16.3-25,16.7-40.6c0.5-17.5-4-34-12.9-48.9
		c-13.2-22.2-27.2-44.1-40.9-66c-3.7-5.9-7.5-11.8-11.5-17.9c5-1,9.6-1.8,14.2-2.9c18.9-4.6,33.7-26.2,30.6-44.4
		c-1-5.8-3.8-10.5-8.4-13.8c-5.7-4.1-11.8-7.6-17.7-11.3c-0.8-0.5-1.6-0.9-2.3-1.3c7.6-6.1,15.6-11.6,22.3-18.4
		c6.6-6.7,11.9-14.8,18.1-22.6c9.4,16.7,23.4,29.9,39.9,41c-11.6,5.2-20.2,13-27.2,22.7c-4,5.5-5.9,11.8-6.1,18.5
		c-0.1,2.6,1.1,5.4,2.2,7.8c1.5,3.2,3.8,6.1,5.4,9.4c0.5,1.1,0.6,3,0,3.9c-2.7,4.4-5.5,8.8-8.7,12.9c-8.8,11.2-10.6,23.3-6.5,36.9
		c4.7,15.7,12.2,29.8,22.3,42.6c10.1,12.8,20.1,25.8,30,38.7c0.8,1.1,1.6,2.6,1.6,3.9c0.3,11.8,0.4,23.6,0.8,35.3
		c0.1,2.3-0.7,3.8-2.7,4.8c-1.2,0.6-2.3,1.5-3.4,2.4c-3,2.4-3.8,4.9-2.3,8.5c1.5,3.6,3.4,7,5.4,10.9c-1.1,0.1-2.2,0.1-3.3,0.2
		c-5.6,0.5-11.2,0.9-16.8,1.5c-1.8,0.2-3.5,0.8-5.2,1.4c-9.6,3.9-12,11.6-6.2,20.2c10.4,15.4,24.4,26.2,42.5,31.1
		c6.3,1.7,12.9,2.7,19.3,4c0.9,0.2,1.8,0.4,3.4,0.7c-19.1,7.4-35.3,18.1-51.5,29.2c-16.3,11.1-28.2,26.9-42,40.8
		c-2.2-5.9,0.5-19.8,8.4-43.2c-5.5-1.3-10.8-2.8-16.3-3.7c-14.1-2.1-28.3-4.6-42.5-5.7c-8-0.6-16.4,0.6-24.3,2.3
		c-16.8,3.7-24.8,17.7-20.1,34.3c5,17.8,17.7,27.6,34.9,32.2c11.2,3,22.5,2.8,33.8,1.1c2.8-0.4,3.7,0.4,4.6,2.7
		c3.2,8.2,7.4,15.8,14.1,21.7c8.2,7.4,17.8,11.1,28.9,9.7c8.9-1.1,14.9-6.1,17.9-14.7c0.5-1.5,1-3,1.5-4.5c0-0.1,0.2-0.1,1.1-0.9
		c-0.9,38.9-1.7,77-2.5,115.2C355.6,712.7,355.3,712.7,355,712.7z"/>
</g>
</svg>
