<?xml version="1.0" encoding="utf-8"?>
<!-- Generator: Adobe Illustrator 26.3.1, SVG Export Plug-In . SVG Version: 6.00 Build 0)  -->
<svg version="1.1" id="katman_1" xmlns="http://www.w3.org/2000/svg" xmlns:xlink="http://www.w3.org/1999/xlink" x="0px" y="0px"
	 viewBox="0 0 850.4 850.4" style="enable-background:new 0 0 850.4 850.4;" xml:space="preserve">
<path d="M759.8,446.6c0-59.1-16-115-48.1-167.7c-32.1-52.7-74.3-93.5-126.7-122.5c50.7,50.2,76.1,106.8,76.1,169.8
	c0,44.1-10.3,82.8-31,116.3c-24,40.2-56.6,60.2-97.9,60.2c-25.7,0-44.9-16.4-57.7-49.4c-10-24.5-15.1-51.9-15.1-82
	c0-33.5,7.5-64.1,22.6-92c16.7-30.7,39.6-51.9,68.6-63.6L513,170.6c-21.7,13.4-38.8,31.2-51,53.5c0-31.2,8.1-59.9,24.3-86.2
	l-61.1-72.8L364.1,138c16.2,26.2,24.3,54.1,24.3,83.7v2.5c-12.3-22.3-29.3-40.2-51-53.5l-37.6,45.2c29,11.7,51.9,32.9,68.6,63.6
	c15.1,27.9,22.6,58.6,22.6,92c0,30.1-5,57.4-15.1,82c-12.8,32.9-32.1,49.4-57.7,49.4c-41.3,0-73.9-20.1-97.9-60.2
	c-20.6-33.5-30.9-72.2-30.9-116.3c0-63,25.4-119.6,76.1-169.8c-52.4,29.6-94.7,70.6-126.7,123c-32.1,52.4-48.1,108.2-48.1,167.3
	c0,92,32.8,171.5,98.3,238.4c62.5,63.8,137,97.2,223.6,100.1c-18.9-3.6-35.9-8.4-51.1-14.7c-29.3-13.4-49.8-32.7-61.4-58
	c-3.6-11.8-5.5-21.4-5.5-28.6h1.4c5,13.2,13.2,25.6,24.6,37.2v-0.7c-18.2-25.7-27.3-50.3-27.3-74v-2c0-19.1,6.5-36.4,19.4-51.8v1.7
	c-4.1,9.1-6.1,18.1-6.1,26.9v0.7c0,23,10,44.7,30,65.1v-1c-15-20-22.5-39-22.5-56.9v-2.7c0-24.6,8.6-48.5,25.9-71.9
	c12.5-13.2,21.6-19.9,27.3-20.1c-11.1,20.7-16.7,38.1-16.7,52.2v4.8c0,16.1,9,33,26.9,50.5v0.7c-10.7,16.8-16,34.7-16,53.5
	c0,26.8,16.6,52.2,49.8,76l5.5,2.7v-0.7l2.7-46.7l-20.1,17.4v-1.4l12.6-22.8v-0.7l-36.5-5.1v-1.4h0.7c21.6-2.7,33.5-4.5,35.8-5.5
	l-11.3-30c2.5,2.5,7.6,9.9,15.3,22.2h0.7l6.8-184.8h1.7l6.8,184.1v0.7h0.7c8.4-13.4,14-21.5,16.7-24.2v0.7l-12.6,32.7h0.7l35.8,4.1
	v1.4l-35.8,5.1v0.7l11.9,24.9h-0.7L430,727.2l2.7,48.1c37.3-21.1,55.9-49.7,55.9-85.6c0-16.6-5.3-32.6-16-48.1
	c19.3-19.8,29-39.3,29-58.7c0-16.8-6.9-33.3-20.8-49.4h0.7c15.5,5.9,29.2,18.4,41.3,37.5c8.4,15,12.6,30.8,12.6,47.4
	c0,23.4-7.3,46.7-21.8,69.9h0.7c20-21.8,30-43.3,30-64.4v-1.4c0-9.1-2.3-20.2-6.8-33.4h0.7c7.7,7.5,14,26.8,18.8,58
	c0,21.4-8,45.6-23.9,72.6h1c10.7-12.5,17.6-24.2,20.8-35.1h0.7v0.7c-1.8,14.8-9,31.6-21.5,50.5c-18.4,19.8-33.1,31.4-44,34.8
	c-20.9,9.3-36.5,14-46.7,14c-0.4,0.2-1.2,0.4-2.4,0.6c85.3-3.6,158.8-37,220.6-100C727,618.1,759.8,538.7,759.8,446.6z"/>
</svg>
