<?xml version="1.0" encoding="utf-8"?>
<!-- Generator: Adobe Illustrator 26.3.1, SVG Export Plug-In . SVG Version: 6.00 Build 0)  -->
<svg version="1.1" id="katman_1" xmlns="http://www.w3.org/2000/svg" xmlns:xlink="http://www.w3.org/1999/xlink" x="0px" y="0px"
	 viewBox="0 0 850.4 850.4" style="enable-background:new 0 0 850.4 850.4;" xml:space="preserve">
<path d="M784.2,400.3c-1.8-123.7-59.2-220.9-160.6-291.8c-4.7-3.3-9.8-6-14.8-9c-0.7,0.9-1.3,1.8-2,2.7c2.4,3.2,5.1,6.3,7.3,9.6
	c15.7,23.8,33.8,46.4,46.6,71.6c41.2,81.4,38.6,161-15.4,236.6c-19.9,27.8-45.8,48.1-80.4,53.9c-24.9,4.2-59-4.4-65.6-43.2
	c-1-6.1-2.8-12.2-3-18.4c-0.8-20.2-3.9-41.5,8.7-59c17.4-24.1,27.2-50.7,33.5-79.3c2.6-11.9-0.1-20-10.7-26.6
	c-7.9,5.6-16,11.2-24.1,16.8c10.8-10,21.4-20.3,32.5-30c32.7-28.8,30.6-16.3,6.2-54.3c-5-7.7-9.7-7.3-15.6-0.8
	c-14.6,16.3-29.4,32.5-44.5,48.3c-6.7,7-8.3,13.8-2.8,21.9c-4.3-4.5-8.6-9.1-11.1-11.8c19.7-22,39.1-43.2,57.7-65.1
	c1.9-2.3,0.4-9.7-2-13c-5.7-8-13.3-14.6-19.2-22.6c-5.5-7.4-10.7-6.9-16.9-2c-0.3-5.9,1.1-13-1.7-17.3c-6.2-9.5-14.6-17.6-22.2-26.2
	c-6.6-7.5-12-6.5-17.6,1.6c-4.4,6.4-9.2,12.5-13.9,18.6c2-4.1,4.1-8.1,6.4-12c12.1-20.4,10.9-16.2-6.1-29.9c-1.9-1.6-3.9-3.4-6.2-4
	c-2.5-0.6-6.6-0.9-7.9,0.5c-13,14.6-25.5,29.6-39.3,45.8c9,4.9,15.8,7.8,21.8,12c9.9,6.9,18.3,7.7,25.3-1.3
	c0.4,5.7,0.9,11.5,1.3,17.4c-15.9-5.7-33.4-11.8-50.7-18.3c-9.6-3.6-16.2-1.5-22.1,7.2c-15.9,23.2-32.3,46.1-49.2,68.6
	c-6.4,8.5-7,15.6-1.7,24.8c17,29.8,33.5,60,49.9,90.1c3.7,6.8,8.3,13.8,9.8,21.2c5.9,29.1,6,58.5-0.9,87.5
	c-7.8,32.5-41.3,56-74.7,52.7c-24.9-2.4-46.3-13.7-63.8-30.6c-46.9-45.4-68.1-100.9-60.7-166.2c7-61.4,34.1-114.4,70.8-163.1
	c2.8-3.7,5.4-7.5,8.1-11.3c-0.8-0.8-1.6-1.6-2.4-2.4c-5.4,3.4-10.9,6.5-16,10.2C90.5,207.6,34.3,368.9,83.9,527
	c71.7,228.8,319.3,319.7,515.9,214.9C734.2,670.2,786.4,546.8,784.2,400.3z M432,261.7c-1.5,10.8,10,23.5,15.7,35.4
	c1.2,2.4,1.9,5,0.7,8.8c-1.6-2.3-3.5-4.5-4.7-7c-11.2-22.6-22.8-45-33.4-67.8c-6.4-13.8-13.8-25.2-30.3-27.7
	c-3.5-0.5-6.7-2.9-12-5.3c13-5.3,15-13.7,6-27.2c10.9,7.5,18.3,12.6,27.3,18.8c-6.5,0-11.8,0-17.1,0c-0.5,1.5-1,3.1-1.5,4.6
	c7.8,3.1,15.3,6.8,23.3,9.2c18.7,5.7,28.4-1,31.9-20.1c1.9-10.2,5.6-20.1,8.5-30.1c3.3,4.8,6.9,9.9,11.1,15.9
	c10.2-11.4,19.4-21.5,28.5-31.6c-13.9,19-27.9,38-41.8,57c-2.2,3-4.6,5.9-6.9,8.8c-5.5,6.9-5.4,12.5,3.3,16.9
	c5.8,2.9,11.1,6.6,16.8,10.1C447.9,241.3,433.6,250.6,432,261.7z"/>
</svg>
