<?xml version="1.0" encoding="utf-8"?>
<!-- Generator: Adobe Illustrator 26.3.1, SVG Export Plug-In . SVG Version: 6.00 Build 0)  -->
<svg version="1.1" id="katman_1" xmlns="http://www.w3.org/2000/svg" xmlns:xlink="http://www.w3.org/1999/xlink" x="0px" y="0px"
	 viewBox="0 0 850.4 850.4" style="enable-background:new 0 0 850.4 850.4;" xml:space="preserve">
<g>
	<path d="M759.7,446.5c0,92-32.8,171.4-98.3,238.3c-65.5,66.9-144.2,100.3-236.2,100.3c-92,0-170.7-33.4-236.2-100.3
		c-65.5-66.9-98.3-146.3-98.3-238.3c0-59.1,16-114.8,48.1-167.3c32.1-52.4,74.3-93.4,126.7-122.9c-50.7,50.2-76.1,106.8-76.1,169.8
		c0,44,10.3,82.8,30.9,116.2c24,40.1,56.6,60.2,97.8,60.2c25.6,0,44.9-16.4,57.7-49.3c10-24.5,15.1-51.8,15.1-82
		c0-33.5-7.5-64.1-22.6-92c-16.7-30.7-39.6-51.8-68.6-63.6l37.6-45.2c21.7,13.4,38.7,31.2,51,53.5v-2.5c0-29.5-8.1-57.4-24.2-83.6
		l61-72.8l61,72.8c-16.2,26.2-24.2,54.9-24.2,86.1c12.3-22.3,29.3-40.1,51-53.5l37.6,45.2c-29,11.7-51.8,32.9-68.6,63.6
		c-15.1,27.9-22.6,58.5-22.6,92c0,30.1,5,57.4,15.1,82c12.8,32.9,32.1,49.3,57.7,49.3c41.3,0,73.9-20.1,97.8-60.2
		c20.6-33.5,30.9-72.2,30.9-116.2c0-63-25.4-119.6-76.1-169.8c52.4,29,94.6,69.8,126.7,122.5C743.7,331.5,759.7,387.4,759.7,446.5z"
		/>
</g>
</svg>
