<?xml version="1.0" encoding="utf-8"?>
<!-- Generator: Adobe Illustrator 26.3.1, SVG Export Plug-In . SVG Version: 6.00 Build 0)  -->
<svg version="1.1" id="katman_1" xmlns="http://www.w3.org/2000/svg" xmlns:xlink="http://www.w3.org/1999/xlink" x="0px" y="0px"
	 viewBox="0 0 850.4 850.4" style="enable-background:new 0 0 850.4 850.4;" xml:space="preserve">
<g>
	<path d="M413.9,65.2h22.5c108.7,0,202.8,49.6,282.1,148.7c44.5,64.9,66.7,131.6,66.7,200v22.5c0,108.7-49.6,202.8-148.7,282.1
		c-64.9,44.5-131.6,66.7-200.1,66.7h-22.5c-108.7,0-202.8-49.6-282.1-148.7c-44.5-64.9-66.7-131.6-66.7-200v-22.5
		c0-108.7,49.6-202.8,148.7-282.1C278.8,87.4,345.4,65.2,413.9,65.2z M387.8,158v92.8c-18,10.8-32.8,22.1-44.2,33.8
		c-11.4,11.7-17.9,22.8-19.4,33.3c-1.5,10.5-5.6,16.1-12.2,16.7h-42.4V286c26.4-51.1,39.3-85.6,38.7-103.6
		c-52.3,24.6-93.7,64.3-124.4,118.9c-9,15.6-18.3,40.3-27.9,73.9h-36.9v103.6h35.1l14.4,43.3c29.4,67.3,73.6,116,132.5,146
		l23.4,11.7l-55-234.3v-79.3h44.2c1.8,0,7.2,12.3,16.2,36.9c9,24.6,30.9,43.9,65.8,57.7v238.8H459V460.8c27.6-10.8,46-24.9,55-42.4
		c9-17.4,15.9-34.8,20.7-52.3h44.2v79.3l-55,234.3c60.7-25.2,107.5-67.3,140.6-126.2c9-16.2,17.7-40.6,26.1-73l1.8-1.8h40.5V375.2
		h-38.7c-3,0-7.2-12.3-12.6-36.9c-12-34.2-34.2-69.1-66.7-104.5c-29.4-26.4-54.4-43.6-74.8-51.4c0,18,12.9,52.6,38.7,103.6v48.7
		h-43.3c-6,0-11.4-6.9-16.2-20.7c-4.8-13.8-11.1-25.2-18.9-34.2c-7.8-9-21-18-39.6-27v-93.7c0-12-5.4-18-16.2-18h-43.3
		C392.3,140.9,387.8,146.6,387.8,158z M482.4,301.3c15.6,15.6,23.4,34.2,23.4,55.9c0,22.2-7.8,41.2-23.4,56.8
		c-15.6,15.6-34.2,23.4-55.9,23.4c-22.2,0-41.2-7.8-56.8-23.4c-15.6-15.6-23.4-34.5-23.4-56.8c0-21.6,7.8-40.2,23.4-55.9
		c15.6-15.6,34.5-23.4,56.8-23.4C448.2,277.9,466.8,285.7,482.4,301.3z"/>
</g>
</svg>
