<?xml version="1.0" encoding="utf-8"?>
<!-- Generator: Adobe Illustrator 26.3.1, SVG Export Plug-In . SVG Version: 6.00 Build 0)  -->
<svg version="1.1" id="katman_1" xmlns="http://www.w3.org/2000/svg" xmlns:xlink="http://www.w3.org/1999/xlink" x="0px" y="0px"
	 viewBox="0 0 850.4 850.4" style="enable-background:new 0 0 850.4 850.4;" xml:space="preserve">
<path d="M98.9,571.8c44.3,41.4,92.6,69.6,143.4,88.7c-14-9.5-28.6-19-43.3-28.8c-24.1-16.1-36-24.5-43.9-30.8
	c-17.9-14.2-42.6-33.9-62-67.6c-14.4-24.9-19.8-47.1-21.7-56.3c-5.1-24.2-4.6-44.9-3.2-58.9c27.9,62,68.9,113.3,120.9,156.2
	c-12.5-14.4-25.5-28.3-37.3-43.3c-39.4-49.8-64.5-106-72.9-169.2c-4.6-34.8,13.5-63.3,27.1-93.4c3.6,75.2,27.4,143.3,61.7,200
	c-9.6-31.3-23.2-69.3-32.6-108.3c-11.2-46.6-9.7-94,5.3-139.7c5-15.4,16.3-29.8,27.8-41.7c61.3-63.3,136.4-98.9,224-108.2
	c3-0.3,6-0.4,9-0.4c1.5,0,2.9,0.5,4.6,0.8c2.2,10.8-3.9,13.2-12.9,15.4c-78.3,19.5-143.2,59.3-188.5,127.4
	c-47.7,71.7-46,162.9,4,224.8c19.9,24.6,45.2,40.7,77.1,45.8c38.4,6.1,62.5-10.1,69.7-48.2c19.4-103.9,38.4-207.9,57.6-311.8
	c3.6-19.6,7.6-39.1,14.9-59.1c1.9,7.1,4.2,14.2,5.5,21.4c21.4,115.3,42.8,230.6,63.9,345.9c8.3,45.3,37.9,63.3,84.4,48.7
	c55.5-17.5,83.9-59.5,96.4-113.4c19.4-84-14.3-150-73.6-206c-41-38.7-90.4-62.7-145-75.6c-8.9-2.1-13.6-5.3-12.6-16
	c33.7,1.3,66.3,8.2,98,19.4c60.5,21.3,111.1,57.1,153.5,105.1c19.8,22.4,22,50.1,24.6,77.2c5.9,60.2-6.4,117.7-30,173
	c-2,4.6-3.8,9.2-5.7,13.9c-0.1,0.4,0.2,0.9,0.3,1.4c22.4-21.8,45.9-97.1,59.2-192.1c17.6,40.5,34.2,76,23.8,119
	c-14.2,58.3-40,109.9-78.3,155.6c-3.8,4.5-7.6,9.1-10.2,14.6c43.3-37.2,75.8-82.5,100.4-137.5c5.2,60.2-10.4,109-51,150.5
	c-36.3,37-77.3,66.6-123.5,89.7c52.8-17.5,99.3-45.7,141.9-83.7C709.7,675.4,592.3,780,438.4,785
	C273.4,790.4,146.6,685.7,98.9,571.8z"/>
</svg>
