<?xml version="1.0" encoding="utf-8"?>
<!-- Generator: Adobe Illustrator 26.3.1, SVG Export Plug-In . SVG Version: 6.00 Build 0)  -->
<svg version="1.1" id="katman_1" xmlns="http://www.w3.org/2000/svg" xmlns:xlink="http://www.w3.org/1999/xlink" x="0px" y="0px"
	 viewBox="0 0 850.4 850.4" style="enable-background:new 0 0 850.4 850.4;" xml:space="preserve">
<g>
	<path d="M598.9,65.2l191.3,360l-184.1,360H251.5l-191.3-360l184.1-360H598.9z M148.7,398.1h175.9l33.4-59.5L265,169.9L148.7,398.1z
		 M148.7,449.6l121.8,227.4L358,503.7l-33.4-54.1H148.7z M306.5,139.2l95.6,180.5h51.4l95.6-180.5H306.5z M306.5,708.5h242.7
		l-95.6-181.4h-51.4L306.5,708.5z M497.8,343.1l33.4,55h175.9L590.8,169.9L497.8,343.1z M497.8,509.1l87.5,167.8l121.8-227.4H531.2
		L497.8,509.1z"/>
</g>
</svg>
