<?xml version="1.0" encoding="utf-8"?>
<!-- Generator: Adobe Illustrator 26.3.1, SVG Export Plug-In . SVG Version: 6.00 Build 0)  -->
<svg version="1.1" id="katman_1" xmlns="http://www.w3.org/2000/svg" xmlns:xlink="http://www.w3.org/1999/xlink" x="0px" y="0px"
	 viewBox="0 0 850.4 850.4" style="enable-background:new 0 0 850.4 850.4;" xml:space="preserve">
<g>
	<path d="M613.6,769.2c-6.6-5.1-12.3-9.4-18-13.8c-41-31.5-82.1-62.9-123-94.5c-3.9-3-7.5-4.1-12.6-3.3c-24,3.7-48.1,3.6-72.1-0.2
		c-2.7-0.4-6.3,0.9-8.6,2.6c-45.7,34.9-91.4,69.9-137,105c-1.5,1.2-3.1,2.2-5.6,4c6.2-31.7,12.2-62.4,18.5-94.7
		C191.6,711.7,129,748.5,66.4,785.2c-0.4-0.3-0.8-0.7-1.2-1c36.7-62.6,73.4-125.1,110.9-189c-32.1,6.3-62.8,12.3-94.8,18.5
		c2.1-2.8,3.4-4.7,4.9-6.6c34.6-45.2,69.3-90.4,104-135.4c2.7-3.5,3.4-6.6,2.7-11c-3.8-23.6-3.8-47.3,0-70.9c0.7-4.4,0-7.5-2.7-11
		c-34.8-45.1-69.4-90.3-104-135.4c-1.3-1.7-2.6-3.5-4.8-6.5c31.9,6.2,62.7,12.2,94.8,18.5C138.7,191.5,102,129,65.3,66.4
		c0.4-0.4,0.7-0.8,1.1-1.2c62.6,36.7,125.2,73.5,188.9,110.9C249,144,243,113.2,236.8,81.4c2.3,1.6,3.8,2.5,5.2,3.6
		c45.3,34.8,90.7,69.5,135.9,104.4c3.9,3,7.4,4.1,12.6,3.3c23.6-3.9,47.3-3.7,70.9,0.1c4,0.6,6.8-0.1,9.9-2.5
		c44.8-34.5,89.6-68.9,134.5-103.3c2.2-1.7,4.4-3.4,7.9-6c-6.2,32-12.2,62.8-18.5,95C658.8,138.7,721.4,102,784,65.3
		c0.4,0.3,0.8,0.7,1.2,1c-36.7,62.6-73.4,125.1-110.9,189c32.1-6.3,62.9-12.3,94.9-18.5c-7.7,10-14.6,19.1-21.5,28.1
		c-29,37.8-58,75.7-87.1,113.4c-2.8,3.6-3.8,6.8-3,11.5c3.9,23.8,3.8,47.7-0.1,71.5c-0.7,4,0.2,6.8,2.5,9.9
		c34.6,44.9,69.1,90,103.6,135c1.6,2.1,3.1,4.1,5.5,7.4c-31.9-6.2-62.7-12.2-94.9-18.5c37.4,63.7,74.1,126.3,110.8,188.9
		c-0.3,0.4-0.7,0.8-1,1.2c-62.6-36.7-125.1-73.4-189-110.9C601.4,706.4,607.4,737.2,613.6,769.2z M626.2,425.6
		C626.6,314.8,537.4,225,426,224.3c-111-0.8-201.1,88.7-201.8,200.2c-0.7,110.9,88.8,200.9,200.4,201.7
		C535.5,626.9,625.7,537,626.2,425.6z"/>
	<path d="M425.1,613.3c-103.6-0.1-188.1-84.6-188-188.2c0.1-103.7,84.6-188,188.2-188c103.7,0.1,188.1,84.6,188,188.2
		C613.2,529,528.7,613.4,425.1,613.3z"/>
</g>
</svg>
