<?xml version="1.0" encoding="utf-8"?>
<!-- Generator: Adobe Illustrator 26.3.1, SVG Export Plug-In . SVG Version: 6.00 Build 0)  -->
<svg version="1.1" id="katman_1" xmlns="http://www.w3.org/2000/svg" xmlns:xlink="http://www.w3.org/1999/xlink" x="0px" y="0px"
	 viewBox="0 0 850.4 850.4" style="enable-background:new 0 0 850.4 850.4;" xml:space="preserve">
<g>
	<polygon points="583.8,346.8 495.6,494.7 451.9,428.8 540.1,267.5 425.2,65.2 310.2,267.5 398.5,428.8 354.8,494.7 266.6,346.8 
		219.4,425.2 425.2,785.2 631,425.2 	"/>
	<path d="M726.2,425.2c0-146.8-105-269-244-295.6l13.9,24.5C616.5,185.5,705.4,295,705.4,425.2c0,130.1-88.6,239.4-208.8,271
		l-14.1,24.6C621.4,694,726.2,571.9,726.2,425.2z"/>
	<path d="M145,425.2c0-130.2,88.8-239.7,209.2-271.1l13.9-24.5c-139,26.7-244,148.9-244,295.6c0,146.7,104.9,268.8,243.7,295.6
		l-14.1-24.6C233.7,664.6,145,555.3,145,425.2z"/>
</g>
</svg>
