<?xml version="1.0" encoding="utf-8"?>
<!-- Generator: Adobe Illustrator 26.3.1, SVG Export Plug-In . SVG Version: 6.00 Build 0)  -->
<svg version="1.1" id="katman_1" xmlns="http://www.w3.org/2000/svg" xmlns:xlink="http://www.w3.org/1999/xlink" x="0px" y="0px"
	 viewBox="0 0 850.4 850.4" style="enable-background:new 0 0 850.4 850.4;" xml:space="preserve">
<g>
	<path d="M302.4,321.7l-16.1,52.3l-4.8,30.9v33.3l4.8,30.9l25.6,64.2l-132.6-23.8c-6.7-1.2-13.1-4.4-19-9.5l33.3-23.8l-7.1-4.8
		L81.8,435.9c-5.9-2-11.5-5.1-16.6-9.5l128.4-49.9l-11.9-16.6l-21.4-14.3L177,336L302.4,321.7z M545,425.2c0,32.1-11.8,60-35.4,83.5
		c-23.6,23.6-51.4,35.4-83.5,35.4c-32.1,0-60-11.8-83.5-35.4c-23.6-23.6-35.4-51.4-35.4-83.5c0-32.1,11.8-59.9,35.4-83.5
		c23.6-23.6,51.4-35.4,83.5-35.4c32.1,0,59.9,11.8,83.5,35.4C533.2,365.2,545,393.1,545,425.2z M545,321.7l149.8,16.6l-7.1,7.1
		l-19,14.3c-4.4,4.8-8.3,10.3-11.9,16.6l52.3,19c7.5,3.6,16.2,6.7,26.2,9.5c7.5,3.6,16.2,6.7,26.2,9.5l23.8,11.9l-16.6,9.5
		l-104.6,35.7c0.4,4.8,2,9.5,4.8,14.3l21.4,14.3l-19,9.5l-133.2,23.8l26.2-64.2l4.8-30.9v-35.7l-4.8-28.5L545,321.7z"/>
</g>
</svg>
